<svg xmlns="http://www.w3.org/2000/svg" viewBox="0 0 500 500"><g id="freepik--background-complete--inject-220"><polygon points="307.36 291.39 304.99 305.62 288.91 392.44 286.32 392.44 298.01 305.62 299.74 291.39 307.36 291.39" style="fill:#dbdbdb"></polygon><polygon points="299.74 291.39 307.36 291.39 304.99 305.62 298.01 305.62 299.74 291.39" style="fill:#a6a6a6"></polygon><polygon points="357.84 392.44 355.25 392.44 339.18 305.62 336.8 291.39 344.43 291.39 346.15 305.62 357.84 392.44" style="fill:#dbdbdb"></polygon><polygon points="344.43 291.39 346.15 305.62 339.18 305.62 336.8 291.39 344.43 291.39" style="fill:#a6a6a6"></polygon><polygon points="406.06 392.44 403.47 392.44 387.4 305.62 385.02 291.39 392.65 291.39 394.37 305.62 406.06 392.44" style="fill:#dbdbdb"></polygon><polygon points="394.37 305.62 387.4 305.62 385.02 291.39 392.65 291.39 394.37 305.62" style="fill:#a6a6a6"></polygon><polygon points="401.95 298.07 284.15 298.07 284.15 285.66 328.25 285.66 343.07 199.43 397.46 199.43 401.95 298.07" style="fill:#dbdbdb"></polygon><polygon points="401.95 298.07 395.53 298.07 391.35 199.43 397.46 199.43 401.95 298.07" style="fill:#a6a6a6"></polygon><path d="M290.13,215.23l10.53,6.53,2-3.22a2.93,2.93,0,0,1,2.77-1.37c.61.05,1.23.07,1.85.06a2.93,2.93,0,0,1,2.67,1.54l1.8,3.34,10.92-5.86-1.79-3.34a2.93,2.93,0,0,1,.2-3.08,17.16,17.16,0,0,0,1-1.58,3,3,0,0,1,2.68-1.55l3.79.12.38-12.39-3.8-.11a3,3,0,0,1-2.57-1.73c-.13-.27-.26-.54-.41-.81s-.29-.54-.45-.79a2.94,2.94,0,0,1,0-3.08l2-3.25-10.53-6.53-2,3.23a2.92,2.92,0,0,1-2.77,1.36c-.61-.05-1.23-.07-1.84-.06a3,3,0,0,1-2.68-1.53L302,177.78l-10.92,5.86,1.79,3.34a2.93,2.93,0,0,1-.2,3.08c-.35.51-.67,1-1,1.57a2.94,2.94,0,0,1-2.67,1.56l-3.8-.12-.38,12.38,3.8.12a2.94,2.94,0,0,1,2.55,1.73c.13.27.27.54.42.82s.29.53.45.79a2.94,2.94,0,0,1,0,3.09ZM298,204.74a10.15,10.15,0,1,1,13.74,4.16A10.13,10.13,0,0,1,298,204.74Z" style="fill:#ebebeb"></path><path d="M383.72,182.07l4.34,7.52,2.3-1.33a2.05,2.05,0,0,1,2.16.08c.37.23.74.45,1.13.65a2.06,2.06,0,0,1,1.14,1.83v2.66h8.68v-2.66a2,2,0,0,1,1.15-1.83c.38-.2.76-.42,1.12-.65a2.05,2.05,0,0,1,2.16-.08l2.31,1.33,4.33-7.52-2.31-1.33a2.07,2.07,0,0,1-1-1.91c0-.21,0-.43,0-.64s0-.43,0-.64a2.05,2.05,0,0,1,1-1.91l2.31-1.34-4.33-7.52-2.31,1.33a2,2,0,0,1-2.17-.07,11.27,11.27,0,0,0-1.12-.65,2.06,2.06,0,0,1-1.14-1.83V162.9h-8.68v2.66a2.06,2.06,0,0,1-1.14,1.83,12.53,12.53,0,0,0-1.12.65,2,2,0,0,1-2.16.07l-2.31-1.33-4.34,7.52,2.31,1.34a2.06,2.06,0,0,1,1,1.91c0,.21,0,.42,0,.64s0,.43,0,.64a2.07,2.07,0,0,1-1,1.91Zm8.3-3.88a7.11,7.11,0,1,1,7.11,7.11A7.11,7.11,0,0,1,392,178.19Z" style="fill:#ebebeb"></path><path d="M60.36,260.52,64.7,268l2.3-1.32a2,2,0,0,1,2.17.07c.36.23.73.45,1.12.65a2,2,0,0,1,1.14,1.83v2.66h8.69v-2.66a2,2,0,0,1,1.14-1.83c.39-.2.76-.42,1.12-.65a2,2,0,0,1,2.17-.07l2.3,1.32,4.34-7.51-2.31-1.34a2.05,2.05,0,0,1-1-1.91c0-.21,0-.43,0-.64s0-.43,0-.64a2.06,2.06,0,0,1,1-1.91l2.32-1.34-4.34-7.51-2.31,1.33a2.05,2.05,0,0,1-2.16-.08,12.53,12.53,0,0,0-1.12-.65A2,2,0,0,1,80.12,244v-2.66H71.43V244a2,2,0,0,1-1.14,1.83,12.53,12.53,0,0,0-1.12.65,2.05,2.05,0,0,1-2.16.08l-2.31-1.33-4.34,7.51,2.31,1.34a2.05,2.05,0,0,1,1,1.91c0,.21,0,.42,0,.64s0,.43,0,.64a2.08,2.08,0,0,1-1,1.92Zm8.3-3.89a7.12,7.12,0,1,1,7.11,7.11A7.11,7.11,0,0,1,68.66,256.63Z" style="fill:#ebebeb"></path><polygon points="200.69 250.01 179 392.37 174.72 392.37 188.11 250.01 200.69 250.01" style="fill:#ebebeb"></polygon><polygon points="200.68 250.01 198.61 263.61 186.83 263.61 188.11 250.01 200.68 250.01" style="fill:#a6a6a6"></polygon><polygon points="399.31 250.01 421 392.37 425.28 392.37 411.89 250.01 399.31 250.01" style="fill:#ebebeb"></polygon><polygon points="399.32 250.01 401.39 263.61 413.17 263.61 411.89 250.01 399.32 250.01" style="fill:#a6a6a6"></polygon><rect x="166.66" y="234.96" width="266.69" height="12.09" style="fill:#ebebeb"></rect><rect x="170.7" y="247.05" width="258.59" height="2.96" style="fill:#c7c7c7"></rect></g><g id="freepik--Shadow--inject-220"><ellipse cx="250" cy="424.53" rx="203" ry="23.07" style="fill:#ebebeb"></ellipse></g><g id="freepik--Floor--inject-220"><polygon points="29.71 392.48 84.78 392.24 139.85 392.15 250 391.98 360.15 392.15 415.22 392.23 470.29 392.48 415.22 392.72 360.15 392.81 250 392.98 139.85 392.81 84.78 392.72 29.71 392.48" style="fill:#263238"></polygon></g><g id="freepik--Bullseye--inject-220"><circle cx="167.76" cy="110.77" r="38.85" style="fill:#407BFF"></circle><circle cx="167.76" cy="110.77" r="29.65" style="fill:#fff"></circle><circle cx="167.76" cy="110.77" r="21.19" transform="translate(21.12 248.28) rotate(-76.59)" style="fill:#407BFF"></circle><circle cx="167.76" cy="110.77" r="11.72" transform="translate(22.29 249.52) rotate(-77.08)" style="fill:#fff"></circle><path d="M173.06,110.77a5.3,5.3,0,1,1-5.3-5.3A5.29,5.29,0,0,1,173.06,110.77Z" style="fill:#407BFF"></path><rect x="160.82" y="81.36" width="71" height="1.7" transform="translate(-0.63 162.9) rotate(-45)" style="fill:#455a64"></rect><polygon points="174.32 109.01 167.76 110.77 169.52 104.2 174.32 109.01" style="fill:#263238"></polygon><polygon points="229.82 53.84 220.41 63.25 213.02 65.5 215.28 58.12 224.69 48.71 222.44 56.09 229.82 53.84" style="fill:#263238"></polygon></g><g id="freepik--paper-plane--inject-220"><path d="M106.12,286.87c0-.68-.07-1.36-.07-2h.75c0,.65,0,1.31.07,2Z" style="fill:#263238"></path><path d="M183.6,345h-.13v-.75h.14c1.26,0,2.56,0,3.85-.1l0,.75C186.19,344.94,184.88,345,183.6,345Zm-5.16-.17c-1.33-.08-2.68-.2-4-.34l.08-.75c1.31.15,2.65.26,4,.35Zm14.07-.31-.08-.75c1.31-.14,2.64-.32,3.95-.52l.11.74C195.17,344.17,193.83,344.34,192.51,344.49Zm-23-.74c-1.31-.23-2.63-.49-4-.79l.17-.73c1.3.29,2.61.55,3.91.78Zm32-.71-.16-.73c1.29-.28,2.6-.6,3.88-.93l.19.72C204.06,342.44,202.74,342.76,201.44,343Zm-40.8-1.32c-1.28-.37-2.57-.77-3.84-1.2l.24-.71c1.26.43,2.54.83,3.81,1.19Zm49.53-1-.23-.71c1.24-.41,2.51-.85,3.77-1.32l.26.7C212.7,339.83,211.42,340.27,210.17,340.68Zm-58.08-1.92c-1.24-.5-2.48-1-3.69-1.59l.31-.69c1.2.56,2.44,1.09,3.66,1.59Zm66.54-1.29-.3-.69c1.22-.52,2.43-1.09,3.6-1.69l.34.67C221.08,336.36,219.86,336.94,218.63,337.47Zm-74.74-2.54c-1.19-.64-2.37-1.3-3.5-2l.38-.64c1.13.67,2.3,1.33,3.48,2Zm82.77-1.6-.39-.64c1.13-.68,2.26-1.41,3.36-2.16l.42.62C228.94,331.91,227.8,332.64,226.66,333.33Zm-90.52-3.07c-1.12-.75-2.22-1.53-3.29-2.32l.45-.6c1,.78,2.15,1.56,3.26,2.3Zm98-2.09-.46-.58c1-.82,2.06-1.68,3.05-2.56l.5.57C236.18,326.48,235.14,327.35,234.09,328.17Zm-105.18-3.35c-1-.87-2-1.76-3-2.66l.51-.55c1,.89,2,1.78,3,2.63Zm111.94-2.65-.53-.53c.92-.92,1.85-1.88,2.76-2.87l.55.5C242.71,320.27,241.78,321.25,240.85,322.17ZM122.3,318.62c-.92-1-1.83-2-2.7-3l.57-.49c.86,1,1.76,2,2.67,3Zm124.64-3.13-.57-.48c.84-1,1.68-2.05,2.49-3.11l.59.46C248.63,313.42,247.79,314.48,246.94,315.49Zm-130.49-3.78c-.8-1.08-1.58-2.19-2.31-3.3l.63-.41c.72,1.09,1.49,2.19,2.29,3.26Zm136-3.38-.62-.44c.77-1.08,1.53-2.17,2.27-3.28l.63.41C254,306.14,253.22,307.24,252.45,308.33Zm-140.89-4.24c-.66-1.2-1.26-2.42-1.8-3.61l.68-.31c.54,1.18,1.13,2.38,1.77,3.56Zm145.9-3.28-.64-.4c.71-1.12,1.4-2.26,2.09-3.41l.64.39C258.86,298.54,258.17,299.68,257.46,300.81Zm-149.53-5c-.43-1.31-.79-2.62-1.07-3.89l.73-.16c.28,1.25.63,2.53,1,3.82Zm154.16-2.71-.66-.37c.66-1.16,1.31-2.32,2-3.49l.66.36C263.4,290.74,262.74,291.9,262.09,293.06Zm4.34-7.91-.66-.36q.94-1.76,1.86-3.54l.67.35C267.68,282.79,267.06,284,266.43,285.15Zm4.16-8-.66-.34c.6-1.19,1.2-2.38,1.81-3.57l.67.33Zm4.06-8.06-.67-.33,1.79-3.59.67.34Zm4-8.06-.67-.34,1.81-3.58.67.34Zm4.08-8-.66-.34,1.84-3.56.67.35Zm4.19-8-.66-.36c.63-1.17,1.27-2.34,1.91-3.51l.66.36C288.21,242.67,287.58,243.84,287,245Zm4.35-7.86-.66-.37c.66-1.16,1.33-2.31,2-3.46l.65.38C292.62,234.85,292,236,291.3,237.15Zm4.57-7.72-.64-.4c.7-1.13,1.4-2.26,2.12-3.38l.64.4C297.27,227.17,296.56,228.3,295.87,229.43Zm4.85-7.55-.63-.42c.75-1.11,1.51-2.21,2.28-3.31l.61.44C302.21,219.68,301.46,220.78,300.72,221.88Zm5.19-7.35-.61-.44c.8-1.07,1.61-2.14,2.44-3.19l.59.46C307.51,212.41,306.7,213.47,305.91,214.53Zm5.55-7.06-.58-.48c.86-1,1.73-2.05,2.61-3.05l.56.49C313.17,205.43,312.31,206.45,311.46,207.47Zm6-6.73-.55-.52c.92-1,1.84-1.93,2.79-2.88l.53.53C319.24,198.81,318.32,199.77,317.41,200.74Zm6.36-6.35-.52-.55c1-.91,2-1.81,3-2.69l.49.56C325.72,192.59,324.73,193.49,323.77,194.39Zm6.76-5.9-.47-.58c1-.85,2.1-1.68,3.15-2.48l.46.59C332.63,186.82,331.57,187.65,330.53,188.49Zm7.16-5.41-.43-.61c1.09-.76,2.21-1.52,3.33-2.25l.41.63C339.89,181.57,338.78,182.33,337.69,183.08Zm7.54-4.88-.39-.64c1.15-.69,2.32-1.37,3.48-2l.36.65C347.53,176.85,346.37,177.52,345.23,178.2Z" style="fill:#263238"></path><path d="M353.29,173.76l-.34-.67,1.8-.89.33.67Z" style="fill:#263238"></path><polygon points="343.94 166.84 338.46 181.88 349.97 172.9 393.95 156.95 343.94 166.84" style="fill:#407BFF"></polygon><polygon points="343.94 166.84 338.46 181.88 349.97 172.9 393.95 156.95 343.94 166.84" style="fill:#17153e;opacity:0.1"></polygon><polygon points="351.44 176.41 338.46 181.88 349.97 172.9 351.44 176.41" style="fill:#263238"></polygon><polygon points="349.97 172.9 393.95 156.95 357.87 192.15 349.97 172.9" style="fill:#407BFF"></polygon><polygon points="343.94 166.84 325.67 155.03 393.95 156.95 343.94 166.84" style="fill:#407BFF"></polygon></g><g id="freepik--chess-pawn--inject-220"><rect x="66.1" y="383.8" width="104.64" height="3.77" style="fill:#455a64"></rect><rect x="66.1" y="407.97" width="104.64" height="3.77" style="fill:#455a64"></rect><rect x="66.1" y="410.42" width="104.64" height="1.31" style="fill:#37474f"></rect><rect x="62.63" y="411.74" width="111.58" height="6.06" style="fill:#455a64"></rect><rect x="71.27" y="387.57" width="94.3" height="20.4" style="fill:#455a64"></rect><rect x="71.27" y="387.57" width="94.3" height="4.88" style="fill:#37474f"></rect><rect x="71.27" y="403.09" width="94.3" height="4.88" style="fill:#37474f"></rect><path d="M97,284.36s-6.4-8.2-6.15-9,16.46-8.25,26.44-6,38.24,16.29,43.81,38.74-10.64,54.62-11.05,62.1a32.68,32.68,0,0,0,2.32,13.64h-8.23s-4.4-8.4-1.66-21,9.89-36.33,6.73-49.3-24.6-30.26-31-32.59S97,284.36,97,284.36Z" style="fill:#263238"></path><path d="M148.64,383.8H81.48s0-17.4,6.65-28.37,22.6-22.28,25.82-27.49a17,17,0,0,0,2.46-10.42,21.53,21.53,0,0,1-12.33,8.16,26.26,26.26,0,0,1-14.26-.5s-11.23,3.66-12,4.43-3.32,3-5.32,3.09S64.22,326,64.22,320c0-5,21.35-23.58,21.35-23.58s2.88-6.88,3.66-8.43,20.5-11,25.71-10.64,28.09,13,35.7,29.49c7.31,15.85-.59,41.08-3.33,52C143.32,374.88,148.64,383.8,148.64,383.8Z" style="fill:#455a64"></path><path d="M89.82,305.28l11.32-6.2s-4.15-1-6.69.16S89.82,305.28,89.82,305.28Z" style="fill:#263238"></path><path d="M106.41,285.59S97.15,270.49,97,268.8c-.09-1.08,12.88,1.75,16.37,4.16s10.23,9.82,10.23,9.82Z" style="fill:#455a64"></path><path d="M101.14,271.92s6.45,1.92,7.72,3.4a61.45,61.45,0,0,1,3.81,5.91" style="fill:#263238"></path><path d="M81.67,379.55l64.24-6.7c.45,7.12,2.73,10.95,2.73,10.95H81.48Z" style="fill:#37474f"></path></g><g id="freepik--chart-2--inject-220"><rect x="304.95" y="60.92" width="124.39" height="78.36" style="fill:#ebebeb"></rect><path d="M315.2,78.86c17.26-.11,34.52-.08,51.77-.12s34.52,0,51.77.12c-17.25.11-34.51.08-51.77.12S332.46,79,315.2,78.86Z" style="fill:#a6a6a6"></path><path d="M315.2,89.09C332.46,89,349.72,89,367,89s34.52,0,51.77.12c-17.25.11-34.51.08-51.77.13S332.46,89.2,315.2,89.09Z" style="fill:#a6a6a6"></path><path d="M315.2,99.32c17.26-.11,34.52-.08,51.77-.12s34.52,0,51.77.12c-17.25.11-34.51.08-51.77.13S332.46,99.43,315.2,99.32Z" style="fill:#a6a6a6"></path><path d="M315.2,109.55c17.26-.11,34.52-.08,51.77-.12s34.52,0,51.77.12c-17.25.11-34.51.08-51.77.13S332.46,109.66,315.2,109.55Z" style="fill:#a6a6a6"></path><path d="M315.2,119.78c17.26-.11,34.52-.08,51.77-.12s34.52,0,51.77.12c-17.25.11-34.51.08-51.77.13S332.46,119.89,315.2,119.78Z" style="fill:#a6a6a6"></path><path d="M336.05,72.21c.15,9.56.11,19.12.17,28.68s0,19.11-.17,28.67c-.15-9.56-.12-19.12-.18-28.67S335.9,81.77,336.05,72.21Z" style="fill:#a6a6a6"></path><path d="M354,72.21c.16,9.56.12,19.12.18,28.68s0,19.11-.18,28.67c-.15-9.56-.11-19.12-.17-28.67S353.8,81.77,354,72.21Z" style="fill:#a6a6a6"></path><path d="M371.86,72.21c.15,9.56.11,19.12.18,28.68s0,19.11-.18,28.67c-.15-9.56-.12-19.12-.18-28.67S371.71,81.77,371.86,72.21Z" style="fill:#a6a6a6"></path><path d="M389.76,72.21c.16,9.56.12,19.12.18,28.68s0,19.11-.18,28.67c-.15-9.56-.11-19.12-.17-28.67S389.61,81.77,389.76,72.21Z" style="fill:#a6a6a6"></path><path d="M407.67,72.21c.15,9.56.11,19.12.18,28.68s0,19.11-.18,28.67c-.15-9.56-.11-19.12-.18-28.67S407.52,81.77,407.67,72.21Z" style="fill:#a6a6a6"></path><path d="M317.81,112.36c3.16,0,5-10.39,9.52-10.39s4.95,7.58,8.72,7.58,3.65-13.32,8.72-13.32,3.88,5.41,9.18,5.41,3.3-12.55,8.84-12.55,3.3,17.29,9.07,17.29c3.65,0,5.06-5.49,9.42-5.49,2.89,0,4.59,2.74,8.36,2.74s4.6-10.56,9.31-10.56,5.25,6.25,8.72,6.25,4.71-10.23,11.07-10.23v40.47H317.81Z" style="fill:#407BFF;opacity:0.5"></path><path d="M317.81,112.86v-1c1,0,2.27-2.43,3.24-4.2,1.65-3,3.36-6.19,6.28-6.19s4.2,2.3,5.42,4.34c1,1.59,2,3.24,3.3,3.24,1.18,0,2.2-3.2,2.94-5.53,1.23-3.83,2.49-7.79,5.78-7.79,2.93,0,4.08,1.56,5.09,2.93s1.84,2.48,4.09,2.48c2,0,2.84-2.93,3.61-5.77.91-3.33,1.85-6.78,5.23-6.78s4.21,4.34,5.12,8.94c.74,3.72,1.65,8.35,3.95,8.35,1.37,0,2.5-1.15,3.69-2.35,1.44-1.48,3.09-3.14,5.73-3.14a8.16,8.16,0,0,1,4,1.34,8.62,8.62,0,0,0,4.33,1.4c1.31,0,2.5-2.51,3.46-4.53,1.41-3,2.87-6,5.85-6s4.43,2,5.72,3.76c.94,1.28,1.83,2.49,3,2.49,1,0,2.13-1.94,3.12-3.66,1.7-2.93,3.82-6.57,7.95-6.57v1c-3.18,0-5,3.16-6.64,6-1.39,2.39-2.48,4.28-4.43,4.28s-3.11-1.47-4.26-3-2.35-3.21-4.46-3.21c-2,0-3.31,2.84-4.51,5.35-1.32,2.8-2.47,5.21-4.8,5.21a10.26,10.26,0,0,1-5.2-1.61,6.59,6.59,0,0,0-3.16-1.13c-1.9,0-3.26,1.37-4.57,2.71s-2.74,2.78-4.85,2.78c-3.53,0-4.42-4.48-5.35-9.21-.71-3.6-1.6-8.08-3.72-8.08s-3.08,3.17-3.84,6c-.92,3.38-1.79,6.58-5,6.58s-4.29-1.61-5.34-3-1.77-2.39-3.84-2.39-3.4,3.89-4.39,7c-1.13,3.53-2,6.31-4.33,6.31s-3.4-1.87-4.6-3.85c-1.11-1.83-2.25-3.73-4.12-3.73s-3.62,3.08-5,5.55C320.9,110.72,319.74,112.86,317.81,112.86Z" style="fill:#407BFF"></path><path d="M317.81,72.83c.11,9.46.21,18.91.22,28.37l.11,28.36-.33-.23,50.47.06,25.23,0,25.23.13-25.23.13-25.23.05-50.47.06h-.33v-.24l.11-28.36C317.6,91.74,317.69,82.29,317.81,72.83Z" style="fill:#a6a6a6"></path></g><g id="freepik--chart-1--inject-220"><rect x="62.88" y="157.7" width="121.21" height="66.79" style="fill:#ebebeb"></rect><rect x="81.18" y="166.13" width="95.87" height="5.77" style="fill:#fff"></rect><rect x="81.18" y="166.13" width="66.35" height="5.77" style="fill:#455a64"></rect><rect x="81.18" y="177.17" width="95.87" height="5.77" style="fill:#fff"></rect><rect x="81.18" y="177.17" width="86.07" height="5.77" style="fill:#407BFF"></rect><rect x="81.18" y="188.21" width="95.87" height="5.77" style="fill:#fff"></rect><rect x="81.18" y="188.21" width="61.1" height="5.77" style="fill:#455a64"></rect><rect x="81.18" y="199.25" width="95.87" height="5.77" style="fill:#fff"></rect><rect x="81.18" y="199.25" width="70.51" height="5.77" style="fill:#407BFF"></rect><rect x="81.18" y="210.29" width="95.87" height="5.77" style="fill:#fff"></rect><rect x="81.18" y="210.29" width="45.88" height="5.77" style="fill:#455a64"></rect><rect x="71.13" y="187.59" width="7.01" height="7.01" style="fill:#455a64"></rect><path d="M74,191.84h-.94v-1.08H74c0-.08,0-.14,0-.21,0-.28,0-.57,0-.85a1.18,1.18,0,0,1,1-1.14,9.26,9.26,0,0,1,1.18,0v1H75.8a2.31,2.31,0,0,0-.37,0,.34.34,0,0,0-.3.34c0,.28,0,.55,0,.85H76.2c0,.35-.09.68-.14,1,0,0-.09.07-.13.07h-.8v2.77H74Z" style="fill:#fff"></path><rect x="71.13" y="198.63" width="7.01" height="7.01" style="fill:#407BFF"></rect><path d="M74.75,202.5h-1v-.61h1.72v.36a1.66,1.66,0,0,1-1.61,1.69,1.8,1.8,0,0,1-1-3.39,1.84,1.84,0,0,1,2.07.24c-.14.14-.28.29-.42.42s-.08,0-.12,0a3.61,3.61,0,0,0-.46-.17,1.1,1.1,0,0,0-1.31.89,1.12,1.12,0,0,0,.89,1.33A1,1,0,0,0,74.75,202.5Z" style="fill:#fff"></path><path d="M77.37,201.87v.38s0,.08,0,.14h-.5v.51h-.52v-.5h-.51v-.52h.51v-.51h.51v.5Z" style="fill:#fff"></path><rect x="71.13" y="209.67" width="7.01" height="7.01" style="fill:#455a64"></rect><path d="M72,214.91a2.45,2.45,0,0,0,1.56-.48c-.65-.19-.91-.39-1-.76l.43,0a1.17,1.17,0,0,1-.84-1.09l.44.11c-.47-.58-.56-1-.28-1.46a3.18,3.18,0,0,0,2.28,1.14,1,1,0,0,0,0-.18,1.11,1.11,0,0,1,1.83-.91.25.25,0,0,0,.25.05l.54-.2a1.09,1.09,0,0,1-.43.54v0l.54-.14,0,0c-.14.14-.27.28-.42.41a.3.3,0,0,0-.11.24,3.14,3.14,0,0,1-2.85,3.14,3.26,3.26,0,0,1-1.86-.38Z" style="fill:#fff"></path><rect x="71.18" y="165.51" width="7.01" height="7.01" style="fill:#455a64"></rect><path d="M77.26,167.6a1.08,1.08,0,0,0-1.13-1.17c-1,0-1.93,0-2.89,0a1.08,1.08,0,0,0-1.13,1.14c0,.48,0,1,0,1.44s0,.94,0,1.41a1.1,1.1,0,0,0,1.15,1.19h2.86a1.09,1.09,0,0,0,1.14-1.16Q77.27,169,77.26,167.6Zm-.46,2.86a.62.62,0,0,1-.68.69H73.26a.62.62,0,0,1-.69-.69q0-1.44,0-2.88a.63.63,0,0,1,.69-.7h2.85a.63.63,0,0,1,.69.69c0,.48,0,1,0,1.45S76.81,170,76.8,170.46Z" style="fill:#fff"></path><path d="M74.69,167.67A1.35,1.35,0,1,0,76,169,1.34,1.34,0,0,0,74.69,167.67Zm0,2.24a.9.9,0,0,1-.88-.89.9.9,0,0,1,1.79,0A.9.9,0,0,1,74.67,169.91Z" style="fill:#fff"></path><path d="M76.44,167.63a.31.31,0,0,1-.62,0,.31.31,0,0,1,.33-.29A.3.3,0,0,1,76.44,167.63Z" style="fill:#fff"></path><rect x="71.13" y="176.45" width="7.01" height="7.01" style="fill:#407BFF"></rect><path d="M72,182.55c.12-.4.22-.77.33-1.14a.5.5,0,0,0,0-.34A2.59,2.59,0,1,1,77.25,180a2.62,2.62,0,0,1-2.45,2.5,2.85,2.85,0,0,1-1.29-.24.36.36,0,0,0-.25,0Zm.63-.61c.26-.06.48-.13.7-.17a.28.28,0,0,1,.22,0,2.41,2.41,0,0,0,1.05.27,2.16,2.16,0,0,0,2.16-2.52,2,2,0,0,0-1.62-1.69,2.17,2.17,0,0,0-2.37,3.19.36.36,0,0,1,0,.25A6.12,6.12,0,0,1,72.65,181.94Z" style="fill:#fff"></path><path d="M73.51,178.9c.18-.24.41-.2.54.07a1.45,1.45,0,0,1,.1.25.3.3,0,0,1-.07.41.17.17,0,0,0,0,.25,1.84,1.84,0,0,0,.79.67.18.18,0,0,0,.24-.06c.23-.27.23-.27.55-.12l.11.06a.29.29,0,0,1,.08.53.71.71,0,0,1-.72.18,2.65,2.65,0,0,1-1.58-1.2,1,1,0,0,1-.19-.58A.84.84,0,0,1,73.51,178.9Z" style="fill:#fff"></path></g><g id="freepik--Character--inject-220"><path d="M166.61,435.13c2.19.71,64.83-.11,67.19-1.65.91-.57,1.32-9.71,1.51-20.76v-.34c0-2.28.07-4.63.07-7,0-.33,0-.66,0-1l-3-32.5-41.9.42,4.13,32.19,0,1.28.25,6.66,0,.68s-23.84,11-26.26,13S164.41,434.43,166.61,435.13Z" style="fill:#dd6a57"></path><path d="M166.61,435.13c2.19.71,64.83-.11,67.19-1.65.91-.57,1.32-9.71,1.51-20.76v-.34c0-2.28.07-4.63.07-7,0-.33,0-.66,0-1l-40.81.11,0,1.28.25,6.66,0,.68s-23.84,11-26.26,13S164.41,434.43,166.61,435.13Z" style="fill:#ebebeb"></path><path d="M166.6,435.12c1.13.37,18.15.33,34.78,0,3.35-.06,6.67-.14,9.84-.23,11.86-.32,21.67-.81,22.58-1.4s1.31-9.45,1.49-20.3c0-.15,0-.3,0-.46s0-.24,0-.35h-.05l-40.36.07v.69s-23.83,11-26.25,13S164.41,434.42,166.6,435.12Z" style="fill:#407BFF"></path><path d="M167.29,432.69c10.55-.4,53.16-1,63.62-.59.09,0,.09.06,0,.07-10.45.62-53.06.88-63.62.69C167.06,432.86,167.06,432.7,167.29,432.69Z" style="fill:#263238"></path><path d="M190.4,412.62c4.14-.83,9.23-.25,12.45,2.66.12.12,0,.29-.18.25a57.84,57.84,0,0,0-12.25-2.38A.27.27,0,0,1,190.4,412.62Z" style="fill:#263238"></path><path d="M187.42,414.47c4.15-.83,9.24-.26,12.45,2.66.12.11,0,.29-.17.25A58.74,58.74,0,0,0,187.45,415,.26.26,0,0,1,187.42,414.47Z" style="fill:#263238"></path><path d="M184.45,416.32c4.14-.83,9.23-.26,12.44,2.66.13.11,0,.28-.17.24a59.12,59.12,0,0,0-12.25-2.38A.26.26,0,0,1,184.45,416.32Z" style="fill:#263238"></path><path d="M201.38,435.11c3.35-.06,6.67-.14,9.84-.23,11.86-.32,21.67-.81,22.58-1.4s1.31-9.45,1.49-20.3c0-.15,0-.3,0-.46s0-.24,0-.35h-.05C229.73,416.25,210.24,429.22,201.38,435.11Z" style="fill:#263238"></path><path d="M192.15,412.59h45.1s-9.08-105.36-8.72-107.2c.45-2.35,3.11-13,6.65-26.95,1.12-4.36,2.31-9,3.56-13.88,3.36-13.11,7.07-27.43,10.3-39.9,4.85-18.67,8.63-33.18,8.63-33.18H219.44S215,205.6,209.37,224c-9.15,29.87-21.37,71-22.58,81C184.84,321.08,192.15,412.59,192.15,412.59Z" style="fill:#37474f"></path><path d="M194.14,404.89c6.89-.14,4.91-.2,11.8-.26,3.38,0,25.53-.23,28.68.29a.07.07,0,0,1,0,.14c-3.15.52-25.3.33-28.68.3-6.89-.07-4.91-.12-11.8-.27A.1.1,0,0,1,194.14,404.89Z" style="fill:#263238"></path><path d="M220,299c1.48-6.52,3.69-12.91,5.61-19.31q5.86-19.5,11.8-39,3-9.75,6-19.48,1.51-4.92,3-9.83c1-3.2,2.15-6.37,3.05-9.6.37-1.32.57-.6.1,1.07-1,3.37-1.89,6.73-2.87,10.09q-2.91,10-5.86,19.93Q235,252.65,229,272.45q-3,9.92-6,19.85a81.31,81.31,0,0,0-2.44,9.6,44.69,44.69,0,0,0-.4,10.27c.44,6.9,1.24,13.79,1.87,20.68l1.92,20.7q1.91,20.59,3.78,41.2c.16,1.74.31,3.48.44,5.22.05.58-.84.54-.9,0-1.48-13.58-2.62-27.2-3.9-40.8s-2.53-27.06-3.8-40.6c-.32-3.39-.68-6.8-.68-10.21A42.42,42.42,0,0,1,220,299Z" style="fill:#263238"></path><path d="M223.78,191.48c2.66,20.53,7.72,59,11.4,87,8.63-33.84,22.49-87,22.49-87Z" style="fill:#263238"></path><path d="M214.39,435.73c2.2.72,64.83.13,67.2-1.4.91-.57,1.36-9.7,1.58-20.75,0-.12,0-.23,0-.35.05-2.28.09-4.62.1-7,0-.32,0-.65,0-1,.15-15.94-1-32.49-1-32.49l-40.94.27,1.14,32.19,0,1.27.23,6.67,0,.68s-23.87,11-26.3,12.91S212.2,435,214.39,435.73Z" style="fill:#dd6a57"></path><path d="M214.39,435.73c2.2.72,64.83.13,67.2-1.4.91-.57,1.36-9.7,1.58-20.75,0-.12,0-.23,0-.35.05-2.28.09-4.62.1-7,0-.32,0-.65,0-1l-40.8,0,0,1.27.23,6.67,0,.68s-23.87,11-26.3,12.91S212.2,435,214.39,435.73Z" style="fill:#ebebeb"></path><path d="M214.39,435.73c2.2.72,64.83.13,67.2-1.4.91-.57,1.36-9.7,1.58-20.75,0-.12,0-.23,0-.35l-40.42-.07,0,.68s-23.87,11-26.3,12.91S212.2,435,214.39,435.73Z" style="fill:#407BFF"></path><path d="M215.08,433.3c10.56-.36,53.17-.81,63.63-.36.08,0,.08.06,0,.07-10.46.58-53.07.68-63.63.46C214.86,433.46,214.86,433.3,215.08,433.3Z" style="fill:#263238"></path><path d="M238.27,413.31c4.14-.81,9.23-.22,12.43,2.71.13.11,0,.29-.17.25a58,58,0,0,0-12.24-2.43A.27.27,0,0,1,238.27,413.31Z" style="fill:#263238"></path><path d="M235.28,415.15c4.15-.82,9.24-.23,12.44,2.71.13.11,0,.28-.17.24a58.59,58.59,0,0,0-12.24-2.43A.26.26,0,0,1,235.28,415.15Z" style="fill:#263238"></path><path d="M232.3,417c4.15-.81,9.24-.22,12.44,2.71.12.11,0,.29-.18.25a57.83,57.83,0,0,0-12.24-2.43A.27.27,0,0,1,232.3,417Z" style="fill:#263238"></path><path d="M220.68,191.48s.88,18.29,5.07,32.78c.33,1.2.7,2.38,1.09,3.51a68,68,0,0,1,11,5.66s.44,14.72.88,31.13c.49,18.35,1,38.81.89,43.15-.38,16.24,2,105.54,2,105.54l45.1.18s-8.15-99.72-8.1-105.67c.09-9.56-2.18-51.83-3.93-82.65-1.08-19-2-33.63-2-33.63Z" style="fill:#37474f"></path><path d="M243.21,405.23c6.89-.12,4.91-.18,11.8-.22,3.37,0,25.53-.12,28.68.42.06,0,.06.13,0,.14-3.16.51-25.31.22-28.68.17-6.89-.09-4.92-.14-11.8-.31A.1.1,0,0,1,243.21,405.23Z" style="fill:#263238"></path><path d="M269,198c.83,25.16,1.71,50.32,2.84,75.47s2.65,50.47,4.76,75.64c1.18,14.07,2.29,33.85,3.81,47.88a.08.08,0,0,1-.15,0c-3.28-25-5.11-55.82-6.73-80.93s-2.71-50.27-3.56-75.42c-.49-14.23-.86-28.46-1.28-42.69C268.66,197.8,269,197.82,269,198Z" style="fill:#263238"></path><path d="M225,226.68a83.74,83.74,0,0,1,12.9,6.75.15.15,0,0,1-.14.26c-4.35-2.11-8.79-4.14-13-6.49A.29.29,0,0,1,225,226.68Z" style="fill:#263238"></path><path d="M224.71,211.16c.3,1.6.69,3.19,1,4.78s.57,3,1,4.5a7.73,7.73,0,0,0,2.1,3.77c.59.54,1.23,1,1.86,1.53.33.27.7.52,1.05.8-.05-.22-.08-.43-.12-.65-.11-.61-.21-1.21-.31-1.82-.23-1.35-.45-2.71-.65-4.06-.41-2.66-.78-5.35-1.34-8a.09.09,0,0,1,.17,0c.66,2.61,1.39,5.19,2,7.82.28,1.29,1.29,7.66,1.34,8.12s.08.93.1,1.4a6.22,6.22,0,0,1,0,1.43c0,.11-.17.09-.22,0h0a5.59,5.59,0,0,1-.4-1.38q-.18-.69-.3-1.38c0-.17-.06-.34-.08-.51-.63-.38-1.21-.89-1.8-1.31s-1.27-.91-1.87-1.41a7.16,7.16,0,0,1-2.29-3.58,26.09,26.09,0,0,1-.75-4.57c-.2-1.82-.35-3.64-.6-5.44C224.53,211.09,224.69,211.05,224.71,211.16Z" style="fill:#263238"></path><path d="M238.42,141.28c-1.7,7-20.15,44.66-20,47,0,.56,11.16,8,11.43,8.91,1.11,3.59-17.2,18.76-21.21,19.66-11.78,2.66-22.07,2.11-21.86-7.56.33-15.17,27-52.74,40.66-66C236.42,134.54,240.1,134.42,238.42,141.28Z" style="fill:#dd6a57"></path><path d="M204.15,218.66l21.67-27.18s-6.47-2.34-6.61-3.85,15.53-33.75,18.92-43.23.76-11.44-9.4-3.31-47.86,60.81-42.27,72.54C190.31,221.72,204.15,218.66,204.15,218.66Z" style="fill:#407BFF"></path><path d="M219.2,187.81a14.85,14.85,0,0,0-2.79,1q-1.36.6-2.7,1.23c-1.77.82-3.53,1.67-5.24,2.61s-3.37,1.94-5,3l-1.16.72-.46.16c-.65.23-1.3.48-1.92.77a30.63,30.63,0,0,0-3.51,1.93c-.08.05,0,.17.08.13a27.59,27.59,0,0,1,3.65-1.72l.5-.18c-.66.44-1.3.9-1.92,1.39A50,50,0,0,0,194,203c-.07.07,0,.17.11.1,2.68-2.6,6.07-4.48,9.3-6.31s6.62-3.94,10-5.81c1-.54,1.93-1.05,2.92-1.54a31.17,31.17,0,0,0,2.95-1.47A.09.09,0,0,0,219.2,187.81Z" style="fill:#263238"></path><path d="M277.47,218.66c-.16.16-66.24-4.36-66.8-5.09-.77-1,19.26-71.52,26.68-79.88,1.58-1.79,10.88-3.69,15.85,1,10.54,10,17.93,42.1,19.48,51.74C275.25,202.34,278.06,218.07,277.47,218.66Z" style="fill:#407BFF"></path><path d="M230,148.69c0-.11-.15-.19-.19-.08-1.09,2.72-2.1,5.47-3.09,8.22.05-.39.09-.79.12-1.18.08-1.05.07-2.1.16-3.14,0-.1-.15-.1-.15,0-.06,1.08-.26,2.14-.42,3.21s-.27,1.92-.43,2.88l-.09.51c-1.6,4.59-3.1,9.22-4.57,13.85-2.6,8.25-5,16.58-7.25,24.93-1.28,4.71-2.4,9.45-3.45,14.21a.08.08,0,0,0,.15,0c2.45-8.26,4.82-16.55,7.26-24.81,2.24-7.61,4.6-15.18,7-22.75a.09.09,0,0,0,.13-.05l.51-2C227.15,157.94,228.63,153.33,230,148.69Z" style="fill:#263238"></path><path d="M235.65,136.62s0,0,0,0c-.39,3-1.1,9.92,3.63,9.82a10,10,0,0,0,5.23-2.17,25.52,25.52,0,0,0,4.27-3.77,38.43,38.43,0,0,0,4.07-4.94c0-.07.17,0,.11.09-1.24,1.76-2.3,3.6-3.71,5.23a23.22,23.22,0,0,1-4.61,4.19,10,10,0,0,1-5.56,2.08,3.8,3.8,0,0,1-3.66-3.12A16.9,16.9,0,0,1,235.65,136.62Z" style="fill:#263238"></path><path d="M257.54,149.33c16.08,12,34.76,18.47,42.48,15.45,6-2.36,25.43-20.15,28.61-34.53.7-3.17-23.67-6-24.63-3.87-2.81,6.12-13.8,16.75-14.92,16.59-1.46-.2-18.09-3.76-31.22-6.85C242,132.39,248.75,142.79,257.54,149.33Z" style="fill:#dd6a57"></path><path d="M333,125.11c-1.27,5.15-8,14.68-10.51,16.35s-19.07-9.23-19.31-12.31,5.4-20.11,9.7-23.4S334.36,119.77,333,125.11Z" style="fill:#dd6a57"></path><path d="M303.67,126.08a44.1,44.1,0,0,0-3.6-12.28c-2.3-4.57-6.23-11.1-3.82-12.43C301.2,98.64,311,114.92,311,114.92s3.17,7.88-1.5,11A5.58,5.58,0,0,1,303.67,126.08Z" style="fill:#dd6a57"></path><path d="M307.32,112.15c2,1.93,3.52.16,3.52.16s-3,4.56-1.06,7,5-.82,5.24-1c-.16.24-2.8,4.5-.61,6.75s4.89-1.38,5.06-1.62c-.08.28-1,3.94,1,5.26,3.53,2.29,6.19-7,9.23-8.53,0,0,3.18,4.86,3.3,5s2.71-8.79.42-12.78a2.94,2.94,0,0,0-3.41-1.39s1.19-2.74-.48-4.57c-.87-.93-3.13-.38-3.13-.38a3.69,3.69,0,0,0-.73-3.77c-1.26-1.22-3.33-.48-3.33-.48s8.32-11,5.83-13c-4.3-3.51-18.87,20-21.31,20.2C305.7,109.05,306.43,111.3,307.32,112.15Z" style="fill:#dd6a57"></path><path d="M322,101.8a0,0,0,0,0,0-.07,26.23,26.23,0,0,0-11.32,10.7c-.08.15,0,.93.1.77C313.24,109.16,317.62,104.94,322,101.8Z" style="fill:#263238"></path><path d="M326.48,105.91s0-.11-.06-.08a24.5,24.5,0,0,0-11.62,12.43c-.07.19.05.44.15.23C316.66,114.89,322.49,108.72,326.48,105.91Z" style="fill:#263238"></path><path d="M319.45,123.84c2.27-5.26,6-9.26,10.4-12.82.06,0,0-.12-.07-.1-2.64,1.16-5.21,3.72-7,5.88a15.07,15.07,0,0,0-3.46,7C319.25,123.86,319.4,124,319.45,123.84Z" style="fill:#263238"></path><path d="M310.75,112.32c-.1.18.52.07.43.25-.95,2-2.47,5.62-1,6.76,1.16.9,3.18,0,3.82-.68l1.6-1.66-.93,2.12a9.49,9.49,0,0,0-.79,3,3.4,3.4,0,0,0,.73,2.66,1.93,1.93,0,0,0,2.39.46,5.74,5.74,0,0,0,2.11-2l1.52-2.27-.69,2.63a8.47,8.47,0,0,0-.29,2.25,3.64,3.64,0,0,0,.53,2,1.73,1.73,0,0,0,1.66.75,3.78,3.78,0,0,0,1.82-1.14,30.05,30.05,0,0,0,2.92-3.73c.47-.65.94-1.3,1.43-1.93a5.7,5.7,0,0,1,1.76-1.63,6.19,6.19,0,0,0-1.58,1.76c-.44.66-.85,1.34-1.27,2a26.45,26.45,0,0,1-2.78,4,4.53,4.53,0,0,1-2.14,1.44,2.45,2.45,0,0,1-2.5-1,4.44,4.44,0,0,1-.73-2.52,10.05,10.05,0,0,1,.29-2.5l.83.36a6.8,6.8,0,0,1-2.47,2.41,2.8,2.8,0,0,1-1.88.26,3.13,3.13,0,0,1-1.6-1A4.24,4.24,0,0,1,313,122a10.38,10.38,0,0,1,.92-3.24l.67.46c-.84.81-3,2.09-4.95.9C307.28,118.19,310.16,113.2,310.75,112.32Z" style="fill:#263238"></path><path d="M300.52,129.38l24.05,14.89S307,166.85,295.49,167.11s-38-12.24-46.42-21.52c-7.28-8,.88-12.24,8.42-10s31.15,6.88,31.81,6.54S300.52,129.38,300.52,129.38Z" style="fill:#407BFF"></path><path d="M320.15,148.72a25.79,25.79,0,0,0-2.57-1.81L314.8,145c-1.78-1.21-3.63-2.32-5.47-3.44-3.74-2.28-7.47-4.63-11.38-6.61-.07,0-.16.07-.09.12,3.47,2.58,7.17,4.85,10.83,7.14,1.82,1.15,3.64,2.31,5.5,3.38l2.82,1.57a26.58,26.58,0,0,0,3.06,1.65C320.13,148.85,320.21,148.77,320.15,148.72Z" style="fill:#263238"></path><path d="M265.34,156.9a22.45,22.45,0,0,0-9-2.89.08.08,0,0,0,0,.15c1.18.34,2.31.82,3.49,1.2l.71.22-.62,0-2-.1c-.07,0-.08.1,0,.11a8.83,8.83,0,0,0,2,.35,9.71,9.71,0,0,0,1.52-.06l.13,0c.52.14,3.24,1.12,3.77,1.16C265.36,157.06,265.38,157,265.34,156.9Z" style="fill:#263238"></path><path d="M239.3,143.24c3.36.56,9.4-5.34,11.38-9.58.13-.29-.49-3.23-1.08-6.83-.36-2.18-.69-4.63-.84-6.88,0-.46-1.55.49-1.55.49l-2.86.9-9.49,3a36.15,36.15,0,0,1,1.94,8.56,5.69,5.69,0,0,1,0,.93s0,.09,0,.15C236.58,135.72,236.05,142.69,239.3,143.24Z" style="fill:#dd6a57"></path><path d="M236.76,133.8s0,.09,0,.15a9,9,0,0,0,1.46,0c9.49-.84,9.88-13,9.88-13l-3.74.41-9.49,3a36.15,36.15,0,0,1,1.94,8.56A5.69,5.69,0,0,1,236.76,133.8Z" style="fill:#263238"></path><path d="M233.26,98.46s-4.6,1.78-5.55,6.38,0,9.48.39,9.72S233.26,98.46,233.26,98.46Z" style="fill:#263238"></path><path d="M251.68,105.35c1.33,5.07-1.88,19.45-5.57,22.54-5.35,4.48-13.83,4.6-17.57-1.77-3.62-6.18.9-24.84,5-27.62C239.57,94.41,249.71,97.85,251.68,105.35Z" style="fill:#dd6a57"></path><path d="M246.47,127.76h0" style="fill:none;stroke:#dc6a57;stroke-linecap:round;stroke-linejoin:round;stroke-width:0px"></path><path d="M238.64,114.2s.07.06.06.1c-.23,1-.33,2.11.48,2.62a0,0,0,1,1,0,0C238.12,116.6,238.27,115.08,238.64,114.2Z" style="fill:#263238"></path><path d="M239.72,113.36c1.59.2,1.07,3.37-.4,3.18S238.39,113.2,239.72,113.36Z" style="fill:#263238"></path><path d="M233,113.12s-.08,0-.09.07c-.13,1-.44,2.09-1.38,2.27,0,0,0,.06,0,.06C232.59,115.55,233,114.07,233,113.12Z" style="fill:#263238"></path><path d="M232.26,112c-1.56-.37-2.2,2.77-.76,3.12S233.56,112.27,232.26,112Z" style="fill:#263238"></path><path d="M241.2,112.12a12.83,12.83,0,0,1-1.15-.63c-.44-.25-.82-.4-1.05-.87a.66.66,0,0,1,.24-.79,1.7,1.7,0,0,1,1.7.1,2.5,2.5,0,0,1,1.23,1.29A.72.72,0,0,1,241.2,112.12Z" style="fill:#263238"></path><path d="M231.29,110.16a11.39,11.39,0,0,0,1.31-.12,2.17,2.17,0,0,0,1.32-.37.69.69,0,0,0,.09-.83,1.67,1.67,0,0,0-1.6-.58,2.46,2.46,0,0,0-1.64.69A.72.72,0,0,0,231.29,110.16Z" style="fill:#263238"></path><path d="M238,123.11c-.28.19-.56.47-.92.44a2.65,2.65,0,0,1-1-.42s-.07,0-.05,0a1.33,1.33,0,0,0,1.15.74,1,1,0,0,0,.91-.74C238.15,123.11,238.08,123.08,238,123.11Z" style="fill:#263238"></path><path d="M237.49,120a3.4,3.4,0,0,1-2.47,1.12,4.18,4.18,0,0,1-1.21-.15.71.71,0,0,1-.22-.06l-.21-.07a.23.23,0,0,1-.16-.25h0a.44.44,0,0,1,0-.1h0l0-.09c.1-.76.36-1.89.36-1.89-.29.09-1.8.49-1.72.1a51.44,51.44,0,0,1,2.95-9.88.1.1,0,0,1,.18.06c-.58,3.13-1.71,6.14-2.34,9.27a6.33,6.33,0,0,1,1.66-.22c.1,0-.55,2.19-.57,2.53v0a4.69,4.69,0,0,0,3.63-.51C237.49,119.86,237.56,119.94,237.49,120Z" style="fill:#263238"></path><path d="M234.32,120.67a4,4,0,0,0,1.38,1.49,1.77,1.77,0,0,0,1.07.25c.82-.08.95-.8.91-1.43a4,4,0,0,0-.2-1A5.15,5.15,0,0,1,234.32,120.67Z" style="fill:#263238"></path><path d="M235.7,122.16a1.77,1.77,0,0,0,1.07.25c.82-.08.95-.8.91-1.43A1.87,1.87,0,0,0,235.7,122.16Z" style="fill:#ff98b9"></path><path d="M249.37,117c-3,0-2.62-13.07-2.62-13.07a18.91,18.91,0,0,1-5.5,1.6,25.7,25.7,0,0,1-5.79-.3c-.41-.12,4.73-2.12,4.73-2.12s-12.89,2.41-13.57,0c-.23-.83,5.65-9.67,14.55-9,6.58.46,10.24,7.24,10.24,7.24s3.16,3.54,3,5.61C254.23,109.65,252.51,117,249.37,117Z" style="fill:#263238"></path><path d="M248.12,117s3.55-4.48,5.61-3.19-.81,7.93-3.36,8.71a2.54,2.54,0,0,1-3.32-1.57Z" style="fill:#dd6a57"></path><path d="M252.86,115.72s0,0,0,.07a6.4,6.4,0,0,0-3.55,3.81,1.39,1.39,0,0,1,2.11-.26s0,.1-.05.09a1.58,1.58,0,0,0-1.75.44,8,8,0,0,0-.9,1.34c-.09.16-.37.05-.3-.12l0,0C248.54,118.82,250.45,115.8,252.86,115.72Z" style="fill:#263238"></path><path d="M236.7,133.71l3.44,8.3,10.25-10.67,3,3.35s-10,16.88-10,16.13l-3.52-7.15-4.9,5.06.26-12.57Z" style="fill:#ebebeb"></path><path d="M234.69,142.51c.12-2.07.17-4.16.38-6.23,0-.07.12-.11.14,0,.44,2,0,9.92,0,11.82l0,0c.2-.22,4.55-4.46,4.59-4.39.76,1.13,3.34,6.34,3.52,6.81,1.57-2.68,7.61-12.43,9.48-15a.07.07,0,1,1,.12.07c-1.38,2.83-9.36,16-9.49,15.92a81.39,81.39,0,0,1-3.68-7.56c-.73.92-5.11,5.7-5.13,5.39A64.63,64.63,0,0,1,234.69,142.51Z" style="fill:#263238"></path><rect x="221.18" y="204.59" width="46.26" height="2.7" style="fill:#455a64"></rect><rect x="221.18" y="204.59" width="28.12" height="2.7" style="fill:#263238"></rect><polygon points="244.44 207.33 185.89 207.34 177.51 167.37 236.07 167.37 244.44 207.33" style="fill:#455a64"></polygon><path d="M214.54,187.35a3.15,3.15,0,0,1-3.19,3.58,4.07,4.07,0,0,1-3.94-3.58,3.16,3.16,0,0,1,3.19-3.58A4.06,4.06,0,0,1,214.54,187.35Z" style="fill:#263238"></path><path d="M197.64,209.71c3.61,2,8,6.63,11,7.15a3.49,3.49,0,0,0,3.8-1.74s1.35,3.1,4.16,3.12c1.45,0,2.74-2.28,2.74-2.28a4.16,4.16,0,0,0,3.68,2.3c2-.1,3-2.39,3-2.39s2.23,1.81,4.23,1c4-1.54,4.94-18.64-1.22-21.61-2.87-1.39-2.86,2.8-2.86,2.8s-1.46-6-5-6.29S218,197,218,197s-1.47-5.82-5.15-5.74c-3.83.09-2.56,5.47-2.56,5.47s-2.37-3.94-5.18-3.23c-4.62,1.17.63,10.1-.46,13.81h-6.12Z" style="fill:#dd6a57"></path><path d="M202.84,213.05c-3.58-1.55-5.3,1-9,.52-4.16-.54-2.81-5.42,4.5-6.29h6.33Z" style="fill:#dd6a57"></path><path d="M226.21,215.53a0,0,0,1,0,.09,0,29.82,29.82,0,0,0-.12-17.67c-.07-.18-.39-.15-.36.06A60.65,60.65,0,0,1,226.21,215.53Z" style="fill:#263238"></path><path d="M219.36,216c0,.07.1.08.12,0a27.83,27.83,0,0,0-1.33-19.26c-.1-.21-.4-.3-.31,0C219.5,200.94,220.12,210.56,219.36,216Z" style="fill:#263238"></path><path d="M209.92,196.34c2.61,5.94,3.05,12.13,2.59,18.54a.07.07,0,0,0,.14,0c1.08-3.08.95-7.2.57-10.4a17.21,17.21,0,0,0-3.09-8.26C210.06,196.15,209.86,196.21,209.92,196.34Z" style="fill:#263238"></path></g><g id="freepik--Plant--inject-220"><path d="M387.43,305a93,93,0,0,1,2.14-15c1.06-4.46,2.57-9,5.38-12.69,2.56-3.36,6.25-6,10.53-6.56,4.12-.51,8,1.33,11.08,3.93,3.83,3.22,6.76,7.48,9.5,11.61a142.77,142.77,0,0,1,8.21,14.37c.08.16-.17.3-.25.13a88.87,88.87,0,0,0-7.34-12,75.29,75.29,0,0,0-8.45-10.23c-2.83-2.77-6.43-5.35-10.53-5.48s-7.85,2.16-10.31,5.3c-2.75,3.52-4.14,7.92-5.19,12.2a92.12,92.12,0,0,0-2.12,14.32c-.8,9.9-1,19.87-1.25,29.81q-.18,8.43-.25,16.86,0,4.28-.07,8.55a52.65,52.65,0,0,1-.33,8.24c-.09.56-1,.5-1.09,0a49.67,49.67,0,0,1-.38-7.81c0-2.7-.07-5.4-.09-8.1-.05-5.25-.08-10.51-.06-15.76C386.59,326.13,386.72,315.55,387.43,305Z" style="fill:#263238"></path><path d="M401.59,297.57c.53-2.8,1.47-6.46,3.07-8.63,2.87-3.9,6-2.2,3.1,2.12a25.68,25.68,0,0,0-4,10.65s4.82,6.89,10.64,10.28c-.25-2.65-1-6.72-.48-10.65,1.11-8.51,6.26-8,5-1.27-1,5.42-1.44,11.17-1.17,13.67a29,29,0,0,0,6.22,3c-.33-1-.68-2.17-1.08-3.6-2.06-7.63,3-10,3.19-5.72a59.44,59.44,0,0,0,2,10.82c2.79.94,5.1,1.58,6.52,2.08a23.74,23.74,0,0,1,9.54,6.52,30.16,30.16,0,0,0,6.5-8.41c-1.78-1.53-4.59-3.81-8.49-6.56-7.32-5.17-4.77-11.69,1-7.63,4.19,2.92,7.43,8.34,8.9,11.13a45.26,45.26,0,0,0,3.32-15.23c-5.75-5.4-20-12.91-15.67-12.91,3.85,0,12.48,5.65,15.64,7.83a41.67,41.67,0,0,0-.49-4.43c-5.41-3.54-23-9.06-20.19-10.65,3.08-1.74,15.35,3.94,19.05,5.74a22.2,22.2,0,0,0-3.25-6.73c-7.47-10-20.95-13.46-26.83-11.55-4.17,1.35-2.95,11.91-3.84,11.55C403.05,272.3,395.44,277.06,401.59,297.57Zm41-1.16c1.18-1.43,6.67,2.78,5.08,5.09S441.05,298.25,442.58,296.41Zm-28.67-9c1.44.92-.69,6.26-2.92,4.64C409.1,290.66,412.45,286.48,413.91,287.4Z" style="fill:#407BFF"></path><path d="M416.09,289c.76-1.49,1.55-3,2.41-4.41a25.71,25.71,0,0,1,2.76-4l-.71-.88c-.1-.11.07-.28.17-.16.28.32.55.64.82,1a.24.24,0,0,1,.11.13c1,1.24,2,2.52,2.94,3.82a43.5,43.5,0,0,1,4.86,1.41c1.64.55,3.26,1.12,4.86,1.79.16.07.08.34-.09.27-1.58-.7-3.18-1.38-4.81-1.93s-3.13-.92-4.7-1.37c.51.72,1,1.45,1.5,2.19a57,57,0,0,1,8.58,3.5c2.9,1.38,5.7,3,8.48,4.59.15.09,0,.33-.15.24a92,92,0,0,0-8.43-4.36c-2.69-1.26-5.47-2.3-8.18-3.5,6.82,10.66,10.92,22.95,16.39,34.34.08.16-.18.3-.25.13-1.67-4-3.59-7.88-5.41-11.81-1.64-3.52-3.23-7.07-4.87-10.59q-.72-1.54-1.47-3.09c.3,5.69.18,11.48,1.11,17.11a.14.14,0,1,1-.28,0c-.39-6.08-1.46-12.07-1.42-18.19,0,0,0-.05,0-.08-1.16-2.32-2.39-4.62-3.72-6.85-2.27,5.33-4.64,10.74-5.7,16.45,0,.18-.32.1-.27-.08,1.54-5.73,3-11.47,5.73-16.77a66.33,66.33,0,0,0-4.81-6.93c-.76,1.42-1.74,2.75-2.6,4.11s-1.67,2.65-2.45,4a58.67,58.67,0,0,0-4.27,9c-.06.17-.34.08-.27-.09C413.28,295,414.6,292,416.09,289Z" style="fill:#263238"></path><path d="M362.27,302c4.39-4.39,9.48-10.16,16.25-10.15,6.53,0,11.34,5.28,14.11,10.71,2.89,5.67,3.93,12.1,4.74,18.35a221.51,221.51,0,0,1,1.73,22.57c.12,4.19.11,8.39,0,12.58a81.59,81.59,0,0,1-1,12.69c-.12.68-1.2.7-1.24,0-.2-3.53-.06-7.07,0-10.6s0-7-.16-10.44c-.26-7-.77-14.05-1.6-21-.72-6.1-1.29-12.38-3.12-18.27-1.65-5.32-4.74-11.4-10.13-13.74-7.35-3.19-14.54,2.63-19.36,7.55C362.37,302.3,362.15,302.12,362.27,302Z" style="fill:#263238"></path><path d="M339.92,311.81h0c0,.9.09,1.79.15,2.66a15.84,15.84,0,0,1,7.18-3c6.22-.66,5.82,4.07,1.67,4.27a23.66,23.66,0,0,0-8.54,1.71c1,8.21,3.28,14.81,3.61,14.9a120.21,120.21,0,0,0,16.43-2.08c-1.54-3.29-5.06-7.67-3.27-8s3.76,3.55,4.75,7.73a78.27,78.27,0,0,0,12-3.29c-2.73-2.37-7-5.31-5.34-6.57s5,2.9,7,5.91a23.81,23.81,0,0,0,5.16-2.88c-3.68-5.41-12.66-6.51-11.49-10.43s9.57,1.52,13.35,8.76c4.43-4.59,5.73-11.1,5.26-16.65-3.86-.45-11.29.36-10.75-2.41s5.9-2.24,10.3-.62a15.43,15.43,0,0,0-2.58-6.11c-4.07-5.22-16.48,1.42-16.48,1.42s1.33-12.48-3.41-14.64c-2.73-1.24-7.54-1.23-12.37,1.62,2.71.22,6,1.08,7.3,3,1.68,2.4-1,3.7-2.66,2.6-1.19-.79-3.41-3.26-7.42-3.58a24.28,24.28,0,0,0-4.48,5,22.73,22.73,0,0,0-1.31,2.06,17.07,17.07,0,0,1,14.53.26c5.38,2.68,2.38,8.27-2.25,6.09s-9-4.3-13.95-3.07a34.74,34.74,0,0,0-2.36,13.91,24.36,24.36,0,0,1,8-3.82c5.35-1.41,7,1.79,1.09,2.38A23.64,23.64,0,0,0,339.92,311.81Zm6.51-8.59c-.37-1.73,3.43-2.23,4.06-.82C351,303.6,346.79,305,346.43,303.22Zm32.47,9.6c.35-.94,2.89.13,2.66,1.31C381.24,315.71,378.55,313.77,378.9,312.82ZM361,318.9c1.85-.73,4.74,3.86,2.72,4.92S359.46,319.51,361,318.9Z" style="fill:#407BFF"></path><path d="M344.72,331.43c2.79-4.66,5.54-9.35,8.47-13.93,1.37-2.13,2.79-4.22,4.28-6.27-.23,0-.45-.11-.67-.15l-1.11-.22c-.85-.15-1.72-.27-2.58-.36s-1.63-.12-2.45-.13a12.76,12.76,0,0,0-2.62.13c-.1,0-.12-.14,0-.14.87,0,1.76-.07,2.64-.09s1.69,0,2.54.06,1.58.13,2.37.25c.44.07.87.14,1.3.23.26.05.53.09.78.16,1.51-2.07,3.08-4.11,4.7-6.1A55.59,55.59,0,0,0,347.09,300a.07.07,0,0,1,0-.14,51.75,51.75,0,0,1,15.49,4.7c.89-1.1,1.79-2.19,2.69-3.27s2.09-2.4,3-3.69c.06-.08.18,0,.11.08a54.88,54.88,0,0,0-3.54,4.34h0a53.87,53.87,0,0,1,5.67,4.56q2.79,2.46,5.43,5.09c.06.06,0,.17-.1.1-1.74-1.73-3.54-3.37-5.43-4.94s-3.86-3-5.76-4.55a0,0,0,0,1,0,0l-1.3,1.7-.66.86s0,0-.05.06l-2.16,2.84a22.36,22.36,0,0,1,2.15,3.89c.63,1.32,1.17,2.68,1.67,4a59,59,0,0,1,2.33,8.74c0,.09-.12.13-.14,0a51,51,0,0,0-2.53-8.56c-.55-1.43-1.16-2.82-1.8-4.21s-1.28-2.47-1.82-3.74c-.63.83-1.25,1.66-1.86,2.5-.18.25-.35.5-.53.74,0,.06,0,.13-.06.13h0q-2.87,4-5.51,8.18a2.5,2.5,0,0,1,.24.61c.12.34.22.67.32,1a20.75,20.75,0,0,1,.49,2.07c.12.66.21,1.32.28,2a16.79,16.79,0,0,0,.17,2.25c0,.12-.16.12-.14,0a7.14,7.14,0,0,0-.16-2.11c-.1-.72-.23-1.44-.4-2.14s-.32-1.28-.51-1.91c-.1-.32-.2-.63-.31-.94s-.13-.34-.19-.52q-1.24,1.95-2.46,3.92c-1.61,2.61-3.2,5.23-4.8,7.84C344.85,331.68,344.64,331.56,344.72,331.43Z" style="fill:#263238"></path><path d="M387.73,367.23c.07-2.64.49-5.3.77-7.93s.59-5.28.87-7.92c.54-5.08.84-10.29,2-15.27a22.19,22.19,0,0,1,6.22-11.43,10.13,10.13,0,0,1,6.09-2.91,10.45,10.45,0,0,1,6.47,2,22.34,22.34,0,0,1,5.45,5.73,56.61,56.61,0,0,1,4.24,6.89c.05.1-.09.15-.14.07a35.2,35.2,0,0,0-9.19-10.29,10.8,10.8,0,0,0-5.78-2.42,7.91,7.91,0,0,0-5.62,2.24c-3.08,2.68-4.86,6.62-5.92,10.49-1.26,4.59-1.67,9.41-2.3,14.11-.37,2.8-.73,5.6-1.1,8.39s-.59,5.64-1.19,8.38A.46.46,0,0,1,387.73,367.23Z" style="fill:#263238"></path><path d="M400.72,346.71a14.52,14.52,0,0,0,2.88,2.94c-.44-2.58-1-7.16.34-9.6,2-3.79,4.41-1.9,3.21,1.39a26.68,26.68,0,0,0-1.95,9.34,40.1,40.1,0,0,0,8.78,4.14,14.72,14.72,0,0,1-.29-4.52c.4-4,3.5-4,2.7.24a25.67,25.67,0,0,0-.43,4.95,90.7,90.7,0,0,0,13.68,3.08,39.87,39.87,0,0,0,5.66-10.07c-3.29-.83-10-1-9.82-3.37.19-3.17,6.65-.73,10.43,1.57a25.16,25.16,0,0,0,1.14-8.53,43.07,43.07,0,0,0-9.09-1.51c-6.78-.58-6.45-4.43-1.53-4.34,3.63.06,8.22,2.29,10.39,3.44-1.41-9.23-8.46-15.15-14.1-15.37-9.49-.39-6.08,11.43-6.08,11.43s-6.43-4.53-12.5-4.41S394.23,337.68,400.72,346.71Zm25.36-17.07c-.22-1.33,4-1.65,4.24.05C430.57,331.61,426.29,331,426.08,329.64Zm6.81,13.86c-.09-.87,1.74-1,2.16.07C435.32,344.28,433,344.35,432.89,343.5Zm-22.79.8c1.43.21,2.24,5.32-.22,5.22C408,349.44,408.89,344.13,410.1,344.3Z" style="fill:#407BFF"></path><path d="M412.08,350c.23-.63.44-1.28.65-1.93q-.28,1-.48,2A.09.09,0,1,1,412.08,350Z" style="fill:#263238"></path><path d="M414.58,341.76c.45-1.31.95-2.6,1.46-3.89.27-.69.55-1.37.85-2.05a8.8,8.8,0,0,1,.85-1.71,13.12,13.12,0,0,1-.77-1.66c0-.05,0-.09.09-.05a21,21,0,0,1,1.85,2.87l.77,1.36a14.72,14.72,0,0,1,1.6.24c.57.11,1.13.22,1.7.35l1.69.39c.56.14,1.11.32,1.68.41a.09.09,0,1,1-.05.18,10.73,10.73,0,0,0-1.77-.47c-.55-.11-1.09-.21-1.64-.29s-1.11-.15-1.66-.2l-1.26-.1c.23.39.46.79.68,1.19a1.74,1.74,0,0,1,.1.19,5.29,5.29,0,0,1,1.37.16c.49.09,1,.18,1.46.29,1,.22,2,.45,3,.73,2,.57,4.08,1.23,6.11,1.89.11,0,0,.21-.07.17a57,57,0,0,0-6.14-1.7c-1-.22-1.94-.45-2.92-.65l-1.46-.31a8.41,8.41,0,0,1-1.13-.25q1.56,2.89,2.93,5.89c2,4.36,3.62,8.84,5.31,13.31,0,.11-.13.19-.17.07a123.77,123.77,0,0,0-5.65-13c-.38-.77-.77-1.54-1.16-2.31,0,.16-.07.31-.1.47-.09.53-.19,1.06-.28,1.59-.17,1.06-.35,2.11-.51,3.18a37.51,37.51,0,0,0-.77,6.59.09.09,0,1,1-.18,0c.17-1.05.17-2.15.24-3.21s.15-2.22.28-3.33.26-2.13.43-3.19c.09-.53.18-1.06.28-1.58a3.15,3.15,0,0,1,.3-1.15c-.56-1.12-1.11-2.24-1.67-3.35s-1.06-2.08-1.6-3.12c-.23-.43-.48-.88-.73-1.32a10.84,10.84,0,0,1-.63,1.6c-.24.59-.48,1.19-.73,1.79-.54,1.32-1,2.66-1.56,4-.71,1.9-1.51,3.85-2.1,5.82C413.44,345.65,413.93,343.68,414.58,341.76Z" style="fill:#263238"></path><path d="M412.73,348.05c0-.15.09-.3.13-.46Z" style="fill:#263238"></path><polygon points="371.85 362.09 372.52 376.23 374.24 412.64 411.81 412.64 413.53 376.23 414.2 362.09 371.85 362.09" style="fill:#37474f"></polygon><polygon points="371.85 362.09 372.52 376.23 413.53 376.23 414.2 362.09 371.85 362.09" style="fill:#263238"></polygon><rect x="369.18" y="356.38" width="47.69" height="11.43" transform="translate(786.05 724.19) rotate(180)" style="fill:#37474f"></rect><rect x="402.18" y="412.64" width="6.6" height="5.98" style="fill:#37474f"></rect><rect x="402.18" y="412.64" width="6.6" height="2.99" style="fill:#263238"></rect><rect x="377.28" y="412.64" width="6.59" height="5.98" style="fill:#37474f"></rect><rect x="377.28" y="412.64" width="6.59" height="2.99" style="fill:#263238"></rect></g></svg>