<svg xmlns="http://www.w3.org/2000/svg" xmlns:xlink="http://www.w3.org/1999/xlink" viewBox="0 0 500 500"><defs><clipPath id="freepik--clip-path--inject-226"><path d="M363.39,264.94s-5.82,4.16-12.26,8.52-8.32,6.44-8.52,10.39,1,10.19.2,12.06-5.4,5.19-3.74,8.1,15.59.63,15.59.63A170,170,0,0,0,368,288.22c5.41-7.9,5.2-16.42,3.54-19.54S366.92,262.86,363.39,264.94Z" style="fill:#fff;stroke:#263238;stroke-linecap:round;stroke-linejoin:round"></path></clipPath><clipPath id="freepik--clip-path-2--inject-226"><path d="M362,236.36s-4.89.55-7.26,3.19-2.63,5-4.27,6.37-3.47.87-2.61,2.1,2,2.8,2,2.8-1.64,6.5-1.52,7.89,2.22,1.76,5,2,9.1-.46,10.06-1.2a24.59,24.59,0,0,0,2.07-1.87S357.32,244.35,362,236.36Z" style="fill:#fff;stroke:#263238;stroke-linecap:round;stroke-linejoin:round"></path></clipPath></defs><g id="freepik--background-simple--inject-226"><path d="M347.58,141.39s-52.13-29.16-111.94-7-97.93,79.79-130,125.7-27.19,99,10.43,129.24,71.72.9,130.33,9.16,72.88,19.26,126.89-5.44,76-101,47.66-165.06S347.58,141.39,347.58,141.39Z" style="fill:#407BFF"></path><path d="M347.58,141.39s-52.13-29.16-111.94-7-97.93,79.79-130,125.7-27.19,99,10.43,129.24,71.72.9,130.33,9.16,72.88,19.26,126.89-5.44,76-101,47.66-165.06S347.58,141.39,347.58,141.39Z" style="fill:#fff;opacity:0.8"></path></g><g id="freepik--Floor--inject-226"><ellipse cx="266.22" cy="425.76" rx="157.59" ry="5.32" style="fill:#407BFF"></ellipse><ellipse cx="266.22" cy="425.76" rx="157.59" ry="5.32" style="fill:#fff;opacity:0.5"></ellipse></g><g id="freepik--Plants--inject-226"><path d="M368.52,400.56c-3.33-2.74-8.26,1.12-10.25,3.89-1.65,2.31-3.83,5.89-4.34,6.73l0-.22.11-.07-.12.05a41.22,41.22,0,0,0-2.69-9.09c.84-.85,4.05-1.71,4.77-2,3-1,5.85-1.78,7.78-4.48,1.52-2.14,2.38-5.25-.42-6.76-3.8-2-7.89,2.7-9.3,5.8-1.11,2.44-2.46,6.09-2.88,7.27a58.09,58.09,0,0,0-3.78-7.27,21.56,21.56,0,0,1,3.95-2.86c2.63-1.74,5.2-3.21,6.37-6.32.93-2.45,1-5.68-2.14-6.42-4.18-1-6.93,4.62-7.5,8-.4,2.36-.74,5.7-.89,7.27-1.08-1.76-2.16-3.38-3.14-4.84s-2-2.93-2.67-4.16l.3-.11a.67.67,0,0,1-.35,0l0-.06c.67-1,3.67-2.43,4.34-2.8,2.75-1.54,5.42-2.83,6.81-5.84,1.11-2.38,1.37-5.6-1.66-6.57-4.1-1.3-7.25,4.11-8.07,7.43-.64,2.59-1.28,6.42-1.49,7.66-.11-.21-.23-.42-.33-.62a63,63,0,0,1-3.31-7.84l.31,0a.87.87,0,0,1-.34-.06c0-.1-.07-.2-.1-.29a22.17,22.17,0,0,1,3.42-3.44c2.32-2.14,4.61-4,5.27-7.26.52-2.58,0-5.77-3.15-6-4.29-.32-6.1,5.68-6.12,9.1,0,2.09.15,4.91.26,6.64-.58-1.77-1-3.27-1.26-4.25h0v0c-.13-.48-.21-.84-.26-1.05a27.1,27.1,0,0,1,.45-4.36c.4-3.13,1-6-.63-8.95-1.26-2.31-3.69-4.43-6.27-2.57-3.49,2.52-1,8.27,1.16,10.9,1.54,1.85,3.86,4.29,5,5.43.24,1,.81,3.13,1.71,5.8a27,27,0,0,1-3.22-3.18c-2.18-2.27-4.1-4.53-7.36-5.12-2.59-.47-5.77.08-5.94,3.26-.23,4.3,5.8,6,9.22,5.94,2.47,0,5.95-.33,7.46-.46a62.09,62.09,0,0,0,3.36,8c.08.15.16.3.25.45a25.22,25.22,0,0,1-3.94-2.29c-2.68-1.67-5.1-3.39-8.41-3.16-2.62.18-5.56,1.5-4.95,4.63.84,4.22,7.1,4.37,10.4,3.48,2.38-.64,5.68-1.77,7.11-2.28.72,1.27,1.66,2.67,2.73,4.25s2.25,3.37,3.43,5.32v0c-.93.32-4.15-2-4.86-2.43-2.68-1.67-5.09-3.39-8.4-3.16-2.62.18-5.57,1.5-4.95,4.63.83,4.22,7.1,4.37,10.39,3.48,3.08-.82,7.69-2.48,7.82-2.52l0,.15c0-.05,0-.09,0-.14a55.11,55.11,0,0,1,3.65,7.08c-1.2.17-4.26-1-5-1.18-3-.91-5.8-1.93-8.93-.84-2.48.86-5,2.91-3.57,5.76,1.92,3.86,8,2.36,10.95.64,2.33-1.36,5.58-3.59,6.58-4.28a40.83,40.83,0,0,1,2.65,9,20.48,20.48,0,0,1-4.79-1.2c-3-.91-5.81-1.93-8.94-.84-2.48.86-5,2.91-3.56,5.76,1.91,3.86,8,2.36,10.94.64,2.21-1.28,5.22-3.34,6.39-4.15a38.54,38.54,0,0,1-.06,12.81l.42.07a38.71,38.71,0,0,0,.07-12.88c.82-.73,4.4-1,5.18-1.07,3.13-.41,6.09-.61,8.5-2.89C369.53,405.47,371,402.58,368.52,400.56Z" style="fill:#407BFF"></path><path d="M397.55,406.17c-3.3.29-5.41,2.37-7.79,4.44-.54.47-2.67,2.57-3.88,3.07a41.2,41.2,0,0,1-1.28-9.26c1.2.21,5.07.91,7.76,1.18,3.4.35,9.56-.78,9.71-5.09.11-3.18-3-4-5.62-3.78-3.3.3-5.42,2.38-7.79,4.45-.57.49-2.89,2.79-4.06,3.13a56.27,56.27,0,0,1,.41-8,.44.44,0,0,1,.09.11l-.07-.13c.14,0,5-.4,8.16-.92,3.37-.55,9-3.27,8-7.46-.72-3.1-4-3.09-6.41-2.17-3.12,1.15-4.61,3.71-6.36,6.33-.47.7-2.44,4.13-3.42,4.22v0c.26-2.27.62-4.37.93-6.26s.6-3.55.73-5c1.51-.13,5-.45,7.42-.85,3.37-.56,9-3.27,8-7.46-.73-3.1-4-3.09-6.42-2.18-3.11,1.16-4.6,3.72-6.35,6.34a26.39,26.39,0,0,1-2.65,3.72c0-.18,0-.35,0-.52a63.74,63.74,0,0,0-.23-8.67c1.42-.5,4.72-1.67,7-2.66,3.13-1.37,7.93-5.39,5.95-9.21-1.47-2.82-4.59-2-6.75-.53-2.73,1.89-3.55,4.74-4.6,7.71a26.29,26.29,0,0,1-1.63,4.22c-.27-2.81-.64-5-.82-6,.53-1.48,1.64-4.67,2.27-7,.9-3.29.79-9.55-3.43-10.41-3.12-.63-4.46,2.31-4.65,4.93-.25,3.31,1.46,5.73,3.11,8.41a29,29,0,0,1,2.22,3.79c0,.21.1.58.19,1.06,0,0,0,0,0,0v0c.17,1,.4,2.54.6,4.4-.61-1.63-1.63-4.26-2.5-6.17-1.43-3.1-5.54-7.82-9.33-5.76-2.79,1.52-1.92,4.63-.39,6.76,1.94,2.69,4.8,3.45,7.8,4.45a22,22,0,0,1,4.53,1.72c0,.1,0,.2,0,.3a.64.64,0,0,1-.28.2l.29-.1a61.59,61.59,0,0,1,.22,8.51c0,.23,0,.46-.05.7-.69-1-2.86-4.26-4.51-6.37-2.11-2.68-7.21-6.32-10.41-3.44-2.37,2.13-.8,5,1.19,6.67,2.51,2.17,5.47,2.24,8.61,2.51.76.07,4.09.14,5.11.77V385a.77.77,0,0,1-.32.13l.31,0c-.13,1.41-.41,3.05-.72,4.89s-.61,3.65-.87,5.71c-.78-1.37-2.46-4.28-3.8-6.27-1.91-2.83-6.73-6.82-10.13-4.18-2.51,1.95-1.16,4.88.7,6.73,2.35,2.35,5.3,2.64,8.41,3.14a21.27,21.27,0,0,1,4.78,1,57.58,57.58,0,0,0-.45,8.18c-.87-.89-3.6-3.67-5.62-5.43-2.56-2.25-8.25-4.88-10.86-1.46-1.93,2.53.13,5,2.4,6.33,2.87,1.67,5.79,1.2,8.93.88.76-.07,4-.62,5.16-.19a40.57,40.57,0,0,0,1.29,9.39.28.28,0,0,1-.13,0l.13,0,.06.21c-.81-.55-4.27-2.92-6.72-4.34-3-1.71-9.05-3.19-10.95.67-1.4,2.86,1.1,4.9,3.59,5.75,3.13,1.08,5.91,0,8.93-.87.76-.23,4.11-1.49,5.16-1.16a38.93,38.93,0,0,0,5.38,11.7l.35-.24a38.1,38.1,0,0,1-5.33-11.64c1.4.26,5,.89,7.53,1.15,3.39.35,9.55-.79,9.7-5.09C403.29,406.77,400.17,405.93,397.55,406.17Z" style="fill:#407BFF"></path><path d="M156,406.43c-3.44-1-6.36.29-9.56,1.45-.72.26-3.67,1.55-5.08,1.58a43.75,43.75,0,0,1,2.31-9.81c1.11.68,4.74,2.88,7.34,4.2,3.27,1.67,9.9,2.92,11.73-1.35,1.34-3.15-1.47-5.2-4.19-6-3.43-1-6.36.29-9.55,1.45-.77.28-4,1.68-5.29,1.57a59.11,59.11,0,0,1,3.5-7.83,1.21,1.21,0,0,1,.05.14l0-.16c.15,0,5.2,1.54,8.56,2.24,3.6.75,10.33.22,11-4.38.47-3.39-2.78-4.63-5.61-4.67-3.57-.05-6.06,1.95-8.84,3.9-.74.52-4.06,3.2-5.08,2.91v0c1.15-2.17,2.32-4.14,3.37-5.92s2-3.34,2.67-4.74c1.57.45,5.19,1.48,7.79,2,3.6.75,10.33.21,11-4.38.47-3.4-2.78-4.64-5.61-4.68-3.57,0-6.06,2-8.84,3.91a28.69,28.69,0,0,1-4.1,2.71c.08-.17.16-.34.23-.51a67.85,67.85,0,0,0,3.14-8.8c1.62.05,5.39.15,8,0,3.67-.16,10.06-2.34,9.55-6.95-.38-3.41-3.83-3.81-6.58-3.15-3.48.83-5.4,3.38-7.62,6a28.27,28.27,0,0,1-3.26,3.61c.81-2.93,1.29-5.28,1.49-6.34,1.11-1.29,3.46-4.06,5-6.14,2.18-3,4.49-9.3.58-11.8-2.88-1.84-5.37.6-6.58,3.15-1.53,3.23-.76,6.33-.14,9.67a30.4,30.4,0,0,1,.76,4.66c0,.23-.11.62-.22,1.14a0,0,0,0,0,0,0v0c-.22,1.08-.58,2.71-1.1,4.65,0-1.87,0-4.91-.13-7.16-.23-3.67-2.53-10-7.13-9.41-3.4.44-3.73,3.9-3,6.64.9,3.46,3.49,5.33,6.11,7.49a24.09,24.09,0,0,1,3.89,3.49l-.09.32a1.11,1.11,0,0,1-.36.09h.33a68,68,0,0,1-3.09,8.64c-.09.22-.2.45-.32.68-.29-1.32-1.22-5.4-2.06-8.15-1.08-3.52-4.8-9.15-9.13-7.5-3.2,1.23-2.72,4.67-1.39,7.17,1.68,3.15,4.63,4.37,7.68,5.86.74.36,4.06,1.73,4.84,2.75l0,.07a.77.77,0,0,1-.37,0l.32.1c-.68,1.37-1.59,2.9-2.61,4.63s-2,3.44-3.09,5.4c-.26-1.68-.82-5.25-1.4-7.77-.82-3.58-4.11-9.47-8.55-8.14-3.29,1-3.06,4.46-1.91,7.05,1.45,3.26,4.3,4.7,7.23,6.41.66.38,3.45,1.77,4.42,2.83a60.69,60.69,0,0,0-3.61,8.05c-.53-1.24-2.2-5.08-3.54-7.64-1.71-3.26-6.4-8.11-10.36-5.68-2.92,1.79-1.81,5.09,0,7.29,2.23,2.79,5.36,3.45,8.63,4.35.79.22,4.3,1,5.26,1.81a44.23,44.23,0,0,0-2.35,9.94l-.12,0,.12.08,0,.23c-.6-.87-3.15-4.59-5.07-7-2.31-2.87-7.85-6.72-11.26-3.57-2.52,2.33-.79,5.35,1.37,7.17,2.74,2.3,5.93,2.34,9.32,2.59.85.06,4.71.09,5.63.84a41.59,41.59,0,0,0,.87,13.84l.44-.1a41.37,41.37,0,0,1-.84-13.77c1.31.8,4.67,2.83,7.12,4.07,3.28,1.67,9.91,2.92,11.73-1.35C161.55,409.26,158.74,407.21,156,406.43Z" style="fill:#407BFF"></path><path d="M122.88,409.21c-2.13,1-3,3-4.08,4.94a14.86,14.86,0,0,1-1.82,3,29.18,29.18,0,0,1-3.19-5.87c.85-.15,3.62-.67,5.48-1.16,2.36-.63,6.19-2.94,5.21-5.86-.73-2.15-3-1.92-4.71-1.11-2.14,1-3,3-4.09,4.95a13.14,13.14,0,0,1-1.92,3.11,40.78,40.78,0,0,1-1.74-5.42l.09.05-.08-.07c.09,0,3.25-1.54,5.22-2.67,2.12-1.22,5.2-4.46,3.49-7-1.27-1.89-3.42-1.06-4.84.17-1.79,1.55-2.14,3.64-2.65,5.84-.13.58-.59,3.37-1.22,3.68h0c-.4-1.58-.69-3.08-1-4.42s-.5-2.52-.77-3.52c1-.47,3.22-1.57,4.74-2.45,2.12-1.22,5.2-4.46,3.49-7-1.27-1.88-3.42-1.06-4.84.17-1.79,1.56-2.14,3.65-2.65,5.84a18.06,18.06,0,0,1-.82,3.16c0-.13-.08-.24-.11-.36a46.8,46.8,0,0,0-2.34-5.74c.82-.69,2.73-2.31,4-3.54,1.75-1.7,4-5.6,1.65-7.66-1.69-1.51-3.57-.19-4.64,1.36-1.35,1.95-1.18,4.06-1.13,6.31a19.41,19.41,0,0,1,0,3.23c-.89-1.81-1.7-3.18-2.07-3.8,0-1.12-.08-3.53-.24-5.24-.23-2.43-1.89-6.59-4.92-6.09-2.25.36-2.4,2.66-1.87,4.46.67,2.28,2.42,3.47,4.21,4.84a20.46,20.46,0,0,1,2.43,2c.08.13.22.35.4.66v0c.37.63.91,1.6,1.52,2.79-.82-.93-2.17-2.44-3.23-3.49-1.74-1.71-5.68-3.83-7.69-1.5-1.49,1.72-.12,3.58,1.44,4.62,2,1.31,4.08,1.1,6.34,1a15.33,15.33,0,0,1,3.46,0l.09.2a.63.63,0,0,1-.13.2l.17-.14a45.4,45.4,0,0,1,2.29,5.63c0,.16.1.32.14.48-.73-.52-3-2.12-4.62-3.11-2.09-1.27-6.42-2.41-7.83.33-1,2,.72,3.51,2.48,4.15,2.23.82,4.22.12,6.39-.49.53-.15,2.77-.94,3.61-.78v.05a.7.7,0,0,1-.18.17l.2-.1c.27,1,.5,2.14.76,3.45s.51,2.59.86,4c-.87-.72-2.73-2.23-4.13-3.22-2-1.41-6.22-2.87-7.83-.24-1.19,1.93.46,3.55,2.17,4.32,2.16,1,4.21.42,6.41,0a15.56,15.56,0,0,1,3.44-.55,42.44,42.44,0,0,0,1.77,5.58c-.81-.38-3.33-1.54-5.13-2.21-2.28-.86-6.75-1.18-7.63,1.76-.65,2.18,1.36,3.32,3.21,3.63,2.33.39,4.17-.66,6.19-1.67.49-.24,2.54-1.43,3.4-1.43a29.3,29.3,0,0,0,3.23,6l-.08,0,.09,0,.09.13c-.68-.17-3.59-.88-5.59-1.21-2.41-.39-6.85.15-7.14,3.22-.22,2.26,2,3,3.84,2.93,2.37-.07,4-1.46,5.75-2.83.45-.35,2.38-2,3.16-2.08A27.57,27.57,0,0,0,123.4,424l.18-.25a27.45,27.45,0,0,1-6.51-6.43c1-.18,3.56-.67,5.32-1.13,2.36-.63,6.19-2.94,5.21-5.86C126.87,408.17,124.57,408.4,122.88,409.21Z" style="fill:#407BFF"></path></g><g id="freepik--Calendar--inject-226"><rect x="145.94" y="82.01" width="252.15" height="167.53" rx="11.66" style="fill:#407BFF"></rect><rect x="145.94" y="82.01" width="252.15" height="167.53" rx="11.66" style="fill:#fff;opacity:0.6"></rect><rect x="222.79" y="175.67" width="29.5" height="16.55" style="fill:#fff"></rect><rect x="222.79" y="195.21" width="29.5" height="16.55" style="fill:#fff"></rect><rect x="255.29" y="175.67" width="29.5" height="16.55" style="fill:#fff"></rect><rect x="287.8" y="156.12" width="29.5" height="16.55" style="fill:#fff"></rect><rect x="287.8" y="136.57" width="29.5" height="16.55" style="fill:#fff"></rect><rect x="287.8" y="100.44" width="29.5" height="13.58" style="fill:#407BFF"></rect><rect x="255.29" y="100.44" width="29.5" height="13.58" style="fill:#407BFF"></rect><rect x="255.29" y="195.21" width="29.5" height="16.55" style="fill:#fff"></rect><rect x="255.29" y="117.02" width="29.5" height="16.55" style="fill:#fff"></rect><rect x="255.29" y="136.57" width="29.5" height="16.55" style="fill:#fff"></rect><rect x="255.29" y="156.12" width="29.5" height="16.55" style="fill:#fff"></rect><rect x="287.8" y="195.21" width="29.5" height="16.55" style="fill:#fff"></rect><rect x="155.83" y="117.02" width="31.45" height="16.55" style="fill:#fff"></rect><rect x="155.83" y="156.12" width="31.45" height="16.55" style="fill:#fff"></rect><rect x="155.83" y="175.67" width="31.45" height="16.55" style="fill:#fff"></rect><rect x="155.83" y="136.57" width="31.45" height="16.55" style="fill:#fff"></rect><rect x="352.81" y="100.44" width="31.45" height="13.58" style="fill:#407BFF"></rect><rect x="155.83" y="195.21" width="31.45" height="16.55" style="fill:#fff"></rect><rect x="320.3" y="117.02" width="29.5" height="16.55" style="fill:#fff"></rect><rect x="287.8" y="175.67" width="29.5" height="16.55" style="fill:#fff"></rect><rect x="320.3" y="175.67" width="29.5" height="16.55" style="fill:#fff"></rect><rect x="320.3" y="136.57" width="29.5" height="16.55" style="fill:#fff"></rect><rect x="320.3" y="156.12" width="29.5" height="16.55" style="fill:#fff"></rect><rect x="320.3" y="195.21" width="29.5" height="16.55" style="fill:#fff"></rect><rect x="287.8" y="117.02" width="29.5" height="16.55" style="fill:#fff"></rect><rect x="352.81" y="195.21" width="31.45" height="16.55" style="fill:#fff"></rect><rect x="320.3" y="100.44" width="29.5" height="13.58" style="fill:#407BFF"></rect><rect x="352.81" y="175.67" width="31.45" height="16.55" style="fill:#fff"></rect><rect x="320.3" y="214.76" width="29.5" height="17.49" style="fill:#fff"></rect><rect x="352.81" y="156.12" width="31.45" height="16.55" style="fill:#fff"></rect><rect x="255.29" y="214.76" width="29.5" height="17.49" style="fill:#fff"></rect><rect x="287.8" y="214.76" width="29.5" height="17.49" style="fill:#fff"></rect><rect x="352.81" y="136.57" width="31.45" height="16.55" style="fill:#fff"></rect><rect x="352.81" y="214.76" width="31.45" height="17.49" style="fill:#fff"></rect><rect x="155.83" y="214.76" width="31.45" height="17.49" style="fill:#fff"></rect><rect x="352.81" y="117.02" width="31.45" height="16.55" style="fill:#fff"></rect><rect x="155.83" y="100.44" width="31.45" height="13.58" style="fill:#407BFF"></rect><rect x="190.28" y="100.44" width="29.5" height="13.58" style="fill:#407BFF"></rect><rect x="190.28" y="175.67" width="29.5" height="16.55" style="fill:#fff"></rect><rect x="222.79" y="100.44" width="29.5" height="13.58" style="fill:#407BFF"></rect><rect x="222.79" y="136.57" width="29.5" height="16.55" style="fill:#fff"></rect><rect x="190.28" y="195.21" width="29.5" height="16.55" style="fill:#fff"></rect><rect x="222.79" y="117.02" width="29.5" height="16.55" style="fill:#fff"></rect><rect x="190.28" y="117.02" width="29.5" height="16.55" style="fill:#fff"></rect><rect x="222.79" y="156.12" width="29.5" height="16.55" style="fill:#fff"></rect><rect x="190.28" y="156.12" width="29.5" height="16.55" style="fill:#fff"></rect><rect x="190.28" y="214.76" width="29.5" height="17.49" style="fill:#fff"></rect><rect x="190.28" y="136.57" width="29.5" height="16.55" style="fill:#fff"></rect><rect x="222.79" y="214.76" width="29.5" height="17.49" style="fill:#fff"></rect><circle cx="169.71" cy="87.06" r="4.25" style="fill:#fff"></circle><circle cx="184.1" cy="87.06" r="4.25" style="fill:#fff"></circle><path d="M169.79,89.83h0a2.23,2.23,0,0,1-2.23-2.23V72.52a2.23,2.23,0,0,1,2.23-2.24h0A2.24,2.24,0,0,1,172,72.52V87.6A2.23,2.23,0,0,1,169.79,89.83Z" style="fill:#407BFF"></path><path d="M184.31,89.83h0a2.23,2.23,0,0,1-2.23-2.23V72.52a2.23,2.23,0,0,1,2.23-2.24h0a2.24,2.24,0,0,1,2.24,2.24V87.6A2.23,2.23,0,0,1,184.31,89.83Z" style="fill:#407BFF"></path><circle cx="214.06" cy="87.06" r="4.25" style="fill:#fff"></circle><circle cx="228.44" cy="87.06" r="4.25" style="fill:#fff"></circle><path d="M214.14,89.83h0a2.23,2.23,0,0,1-2.24-2.23V72.52a2.24,2.24,0,0,1,2.24-2.24h0a2.23,2.23,0,0,1,2.23,2.24V87.6A2.23,2.23,0,0,1,214.14,89.83Z" style="fill:#407BFF"></path><path d="M228.66,89.83h0a2.23,2.23,0,0,1-2.24-2.23V72.52a2.24,2.24,0,0,1,2.24-2.24h0a2.23,2.23,0,0,1,2.23,2.24V87.6A2.23,2.23,0,0,1,228.66,89.83Z" style="fill:#407BFF"></path><circle cx="311.54" cy="87.06" r="4.25" style="fill:#fff"></circle><circle cx="325.92" cy="87.06" r="4.25" style="fill:#fff"></circle><path d="M311.62,89.83h0a2.23,2.23,0,0,1-2.24-2.23V72.52a2.24,2.24,0,0,1,2.24-2.24h0a2.23,2.23,0,0,1,2.23,2.24V87.6A2.23,2.23,0,0,1,311.62,89.83Z" style="fill:#407BFF"></path><path d="M326.14,89.83h0a2.23,2.23,0,0,1-2.24-2.23V72.52a2.24,2.24,0,0,1,2.24-2.24h0a2.23,2.23,0,0,1,2.23,2.24V87.6A2.23,2.23,0,0,1,326.14,89.83Z" style="fill:#407BFF"></path><circle cx="361.62" cy="87.06" r="4.25" style="fill:#fff"></circle><path d="M380.25,87.06A4.25,4.25,0,1,0,376,91.31,4.25,4.25,0,0,0,380.25,87.06Z" style="fill:#fff"></path><path d="M361.69,89.83h0a2.23,2.23,0,0,1-2.23-2.23V72.52a2.23,2.23,0,0,1,2.23-2.24h0a2.24,2.24,0,0,1,2.24,2.24V87.6A2.23,2.23,0,0,1,361.69,89.83Z" style="fill:#407BFF"></path><path d="M376.22,89.83h0A2.23,2.23,0,0,1,374,87.6V72.52a2.24,2.24,0,0,1,2.24-2.24h0a2.23,2.23,0,0,1,2.23,2.24V87.6A2.23,2.23,0,0,1,376.22,89.83Z" style="fill:#407BFF"></path><path d="M269.92,87.06a4.26,4.26,0,1,0-4.25,4.25A4.25,4.25,0,0,0,269.92,87.06Z" style="fill:#fff"></path><circle cx="280.05" cy="87.06" r="4.25" style="fill:#fff"></circle><path d="M265.74,89.83h0a2.23,2.23,0,0,1-2.23-2.23V72.52a2.23,2.23,0,0,1,2.23-2.24h0A2.24,2.24,0,0,1,268,72.52V87.6A2.23,2.23,0,0,1,265.74,89.83Z" style="fill:#407BFF"></path><path d="M280.26,89.83h0A2.23,2.23,0,0,1,278,87.6V72.52a2.23,2.23,0,0,1,2.23-2.24h0a2.24,2.24,0,0,1,2.24,2.24V87.6A2.23,2.23,0,0,1,280.26,89.83Z" style="fill:#407BFF"></path></g><g id="freepik--Arrow--inject-226"><path d="M101.12,223.81V94.56A5.37,5.37,0,0,1,110,90.5l196.35,170" style="fill:none;stroke:#263238;stroke-linecap:round;stroke-linejoin:round;stroke-width:2px"></path><path d="M109.54,92.16a5.16,5.16,0,1,0-5.16,5.16A5.16,5.16,0,0,0,109.54,92.16Z" style="fill:#407BFF;stroke:#263238;stroke-linecap:round;stroke-linejoin:round"></path><path d="M141.36,287.4,98.42,207.12l11.38,6.24a5.35,5.35,0,0,0,5.14-9.39L87.33,188.85a5.35,5.35,0,0,0-7.91,4.35l-2.11,33.55a5.35,5.35,0,0,0,5,5.68h.34a5.36,5.36,0,0,0,5.34-5l1-15.32,43,80.34a5.35,5.35,0,0,0,9.44-5.05Z" style="fill:#263238;stroke:#263238;stroke-linecap:round;stroke-linejoin:round"></path><path d="M141.36,285.05,98.42,204.77,109.8,211a5.35,5.35,0,1,0,5.14-9.38L87.33,186.5a5.35,5.35,0,0,0-7.91,4.36l-2.11,33.55a5.33,5.33,0,0,0,5,5.67l.34,0a5.36,5.36,0,0,0,5.34-5l1-15.32,43,80.34a5.35,5.35,0,0,0,9.44-5.05Z" style="fill:#407BFF;stroke:#263238;stroke-linecap:round;stroke-linejoin:round"></path><path d="M227.88,351.55a5.31,5.31,0,0,1-2.87-.84l-89.4-56.89a5.35,5.35,0,1,1,5.75-9l89.4,56.9a5.35,5.35,0,0,1-2.88,9.86Z" style="fill:#263238;stroke:#263238;stroke-linecap:round;stroke-linejoin:round"></path><path d="M227.88,349.2a5.39,5.39,0,0,1-2.87-.83l-89.4-56.9a5.35,5.35,0,1,1,5.75-9l89.4,56.89a5.35,5.35,0,0,1-2.88,9.86Z" style="fill:#407BFF;stroke:#263238;stroke-linecap:round;stroke-linejoin:round"></path><path d="M311,379.5a5.2,5.2,0,0,1-1.64-.26l-85-27.33a5.35,5.35,0,0,1,3.28-10.19l85,27.34A5.35,5.35,0,0,1,311,379.5Z" style="fill:#263238;stroke:#263238;stroke-linecap:round;stroke-linejoin:round"></path><path d="M311,377.16a5.5,5.5,0,0,1-1.64-.26l-85-27.34a5.35,5.35,0,0,1,3.28-10.18l85,27.33A5.36,5.36,0,0,1,311,377.16Z" style="fill:#407BFF;stroke:#263238;stroke-linecap:round;stroke-linejoin:round"></path><path d="M311,379.5a5.35,5.35,0,0,1-1.21-10.56l107.13-25.12a5.35,5.35,0,1,1,2.44,10.42L312.23,379.36A5.16,5.16,0,0,1,311,379.5Z" style="fill:#263238;stroke:#263238;stroke-linecap:round;stroke-linejoin:round"></path><path d="M311,377.16a5.35,5.35,0,0,1-1.21-10.56l107.13-25.12a5.35,5.35,0,1,1,2.44,10.41L312.23,377A5.17,5.17,0,0,1,311,377.16Z" style="fill:#407BFF;stroke:#263238;stroke-linecap:round;stroke-linejoin:round"></path><path d="M144.22,289.17a7,7,0,1,0-7.05,7.05A7,7,0,0,0,144.22,289.17Z" style="fill:#263238;stroke:#263238;stroke-linecap:round;stroke-linejoin:round"></path><path d="M234.78,345.86a7.05,7.05,0,1,0-7.05,7A7.05,7.05,0,0,0,234.78,345.86Z" style="fill:#263238;stroke:#263238;stroke-linecap:round;stroke-linejoin:round"></path><circle cx="311.55" cy="374.23" r="7.05" style="fill:#263238;stroke:#263238;stroke-linecap:round;stroke-linejoin:round"></circle><line x1="102.84" y1="213.89" x2="95.51" y2="226.39" style="fill:none;stroke:#263238;stroke-linecap:round;stroke-linejoin:round;stroke-width:2px"></line><line x1="105.43" y1="218.63" x2="98.1" y2="231.13" style="fill:none;stroke:#263238;stroke-linecap:round;stroke-linejoin:round;stroke-width:2px"></line><line x1="107.58" y1="222.51" x2="100.25" y2="235.02" style="fill:none;stroke:#263238;stroke-linecap:round;stroke-linejoin:round;stroke-width:2px"></line></g><g id="freepik--Character--inject-226"><ellipse cx="309.08" cy="280.15" rx="3.69" ry="13.18" style="fill:none;stroke:#263238;stroke-linecap:round;stroke-linejoin:round;stroke-width:2px"></ellipse><ellipse cx="311.05" cy="285.93" rx="3.69" ry="15.02" style="fill:none;stroke:#263238;stroke-linecap:round;stroke-linejoin:round;stroke-width:2px"></ellipse><path d="M308.14,270.43s-3.57,36.56.89,43.25,6.24-17.39,4.9-41.91" style="fill:none;stroke:#263238;stroke-linecap:round;stroke-linejoin:round;stroke-width:2px"></path><path d="M311.82,273.83s20.7,24.28,24,24.56,11.32-1.66,11.32-1.66l-.83-5.79-11.87-2.21-17.38-16.28s-3.59-6.9-5.25-7.45-3.58-1.93-5.24-1.93-3,6.9-1.38,8.55S311.82,273.83,311.82,273.83Z" style="fill:#fff;stroke:#263238;stroke-linecap:round;stroke-linejoin:round"></path><path d="M356.48,239.82s-5.68-.26-2.84-6.45,11.1-.52,11.1-.52,1.81-2.06,9.81,2.58,1.55,18.33,1.55,22.72,9,6.2,17.82,15,5.67,21.69.51,25.56-3.87,8-.77,13.94-2.33,16.26-16.78,16.78-24.27-9.29-21.95-19.36,13.95-26.07,11.62-32-7.74-12.91-8.78-18.59.26-13.68.78-16S356.48,239.82,356.48,239.82Z" style="fill:#263238;stroke:#263238;stroke-linecap:round;stroke-linejoin:round"></path><path d="M385.05,322a8.87,8.87,0,0,0,3.93-1.16" style="fill:none;stroke:#fff;stroke-linecap:round;stroke-linejoin:round"></path><path d="M367.38,258.18s5.18,9.5,13,13S395.89,285,392,292.74s-18.15,7.35-17.72,17.29c.25,5.69,3,9.54,6.53,11.14" style="fill:none;stroke:#fff;stroke-linecap:round;stroke-linejoin:round"></path><path d="M364.35,237.44s-1.72,9.94.44,16" style="fill:none;stroke:#fff;stroke-linecap:round;stroke-linejoin:round"></path><path d="M397.9,290.3a6.5,6.5,0,0,1-1.57,3.31" style="fill:none;stroke:#fff;stroke-linecap:round;stroke-linejoin:round"></path><path d="M374.63,245.36A25.23,25.23,0,0,0,373,257.75c1.29,8.21,11.66,14.25,17.28,18.14a19.9,19.9,0,0,1,7,9.07" style="fill:none;stroke:#fff;stroke-linecap:round;stroke-linejoin:round"></path><path d="M376.45,241.33s-.3.51-.72,1.41" style="fill:none;stroke:#fff;stroke-linecap:round;stroke-linejoin:round"></path><path d="M297.93,351s-3.46,3.32-3.46,5.61,10.32,21.2,13.85,28.48,18.08,29.09,17.25,31.17-7.69,7.9-8.94,8.94,2.08,1.25,5.41.83,6.85-2.28,7.06-3.32a9.88,9.88,0,0,1,2.29-4.78c1.45-1.46,4.36-2.91,3.12-4.78s-3.95-1.25-5.2-3.33-4.66-11-7.36-20.58S318.5,376.78,315.8,371a54.62,54.62,0,0,0-7.48-11.22Z" style="fill:#263238;stroke:#263238;stroke-linecap:round;stroke-linejoin:round"></path><path d="M329.31,409.83a73,73,0,0,1-4-9.85,13.8,13.8,0,0,1-6,3.86C323,410,326,415.3,325.57,416.27c-.83,2.08-7.69,7.9-8.94,8.94s2.08,1.25,5.41.83,6.85-2.29,7.06-3.32a9.88,9.88,0,0,1,2.29-4.78c1.45-1.46,4.36-2.91,3.12-4.78S330.56,411.91,329.31,409.83Z" style="fill:#fff;stroke:#263238;stroke-linecap:round;stroke-linejoin:round"></path><path d="M334.51,413.16c-.95-1.42-2.72-1.41-4.07-2.22-.72,3.48-2.72,4.54-2.87,3.74,0,0-1.35-1.91-3.11-1.7.83,1.69,1.27,2.88,1.11,3.29-.83,2.08-7.69,7.9-8.94,8.94-.54.45-.21.75.61.9A18.15,18.15,0,0,0,322,426c3.32-.41,6.85-2.29,7.06-3.32,0-.26.13-.6.24-1a9,9,0,0,1,2.05-3.8C332.84,416.48,335.75,415,334.51,413.16Z" style="fill:#263238;stroke:#263238;stroke-linecap:round;stroke-linejoin:round"></path><path d="M354.72,319.94a141.48,141.48,0,0,0-.46-17.08l-14.62-1.79-14.31,15.8a79.57,79.57,0,0,0-15.51,15.21,163,163,0,0,0-14.35,22.11l12.85,5.55a126,126,0,0,1,13.77-13.54c7-5.78,8.61-8.15,8.61-8.15L317.11,364.9c-2,4.27-2.74,9-3.61,11.73-1.46,4.57-10,29.64-12.46,35.87a74.35,74.35,0,0,1-5.2,10.6,41,41,0,0,1-9.76,2.71c-5.62.83-7.69,2.28-6.24,3.53s8.73,2.49,11.64,1.66,7.9-2.08,8.52-3.74a21.2,21.2,0,0,0,.83-4.57s8.11-9.35,13.1-16,12.61-25.76,14.9-31a75.55,75.55,0,0,1,12.69-18.79C353.76,343.92,353.91,337.72,354.72,319.94Z" style="fill:#263238;stroke:#263238;stroke-linecap:round;stroke-linejoin:round"></path><line x1="330.7" y1="338.05" x2="336.15" y2="322.21" style="fill:none;stroke:#fff;stroke-linecap:round;stroke-linejoin:round"></line><line x1="335.12" y1="325.03" x2="333.07" y2="316.57" style="fill:none;stroke:#fff;stroke-linecap:round;stroke-linejoin:round"></line><path d="M291.48,431c2.91-.83,7.9-2.08,8.52-3.74a21.2,21.2,0,0,0,.83-4.57s4.77-5.51,9.25-11.08a15.79,15.79,0,0,1-7.71-2.41L301,412.5a74.35,74.35,0,0,1-5.2,10.6,41,41,0,0,1-9.76,2.71c-5.62.83-7.69,2.28-6.24,3.53S288.57,431.83,291.48,431Z" style="fill:#fff;stroke:#263238;stroke-linecap:round;stroke-linejoin:round"></path><path d="M363.39,264.94s-5.82,4.16-12.26,8.52-8.32,6.44-8.52,10.39,1,10.19.2,12.06-5.4,5.19-3.74,8.1,15.59.63,15.59.63A170,170,0,0,0,368,288.22c5.41-7.9,5.2-16.42,3.54-19.54S366.92,262.86,363.39,264.94Z" style="fill:#fff"></path><g style="clip-path:url(#freepik--clip-path--inject-226)"><path d="M354.66,304.64A170,170,0,0,0,368,288.22c5.41-7.9,5.2-16.42,3.54-19.54-1.49-2.78-4-5.22-7-4.24l.58,1.14s4.7,4,2.35,12.45-18.55,15-18.55,15l7.75,5.41-8.92,6.93C351.32,305.18,354.66,304.64,354.66,304.64Z" style="fill:#407BFF"></path></g><path d="M363.39,264.94s-5.82,4.16-12.26,8.52-8.32,6.44-8.52,10.39,1,10.19.2,12.06-5.4,5.19-3.74,8.1,15.59.63,15.59.63A170,170,0,0,0,368,288.22c5.41-7.9,5.2-16.42,3.54-19.54S366.92,262.86,363.39,264.94Z" style="fill:none;stroke:#263238;stroke-linecap:round;stroke-linejoin:round"></path><path d="M300,427.26a16.47,16.47,0,0,0,.7-3.26,26.33,26.33,0,0,1-3.61,1.81,2.48,2.48,0,0,0-1.48-2.6,42.52,42.52,0,0,1-9.53,2.6c-5.62.83-7.69,2.28-6.24,3.53s8.73,2.49,11.64,1.66S299.38,428.92,300,427.26Z" style="fill:#263238;stroke:#263238;stroke-linecap:round;stroke-linejoin:round"></path><path d="M342,285.52s-10.95-4.4-13.43-5.68c-5.74-3-18.07-13.43-18.07-13.43a27.59,27.59,0,0,1-.77-4.64c0-1.55-2.32-3.1-3.36-3.88s-4.39-1.8-4.39,0-1.29,2.58-1.29,3.62-.76,2.66,2.33,5.16a27.68,27.68,0,0,0,3.61,2.32s8.78,8.78,12.39,12.91,13.68,13.43,17,14.46,9-3.87,9-3.87Z" style="fill:#fff;stroke:#263238;stroke-linecap:round;stroke-linejoin:round"></path><path d="M370.09,273.23s-2.54-3.61-6-2.09S340.86,285,340.86,285l2.23,10.69s17.54-5.9,21.57-8.41a14.19,14.19,0,0,0,5.4-5.7" style="fill:#fff;stroke:#263238;stroke-linecap:round;stroke-linejoin:round"></path><path d="M355.28,259.74a19.62,19.62,0,0,1,1,6.66,14.3,14.3,0,0,1-1.45,5.4l8.52-6.86s-.21-2.29-.62-6-.42-5.4-.42-5.4Z" style="fill:#fff;stroke:#263238;stroke-linecap:round;stroke-linejoin:round"></path><path d="M362,236.36s-4.89.55-7.26,3.19-2.63,5-4.27,6.37-3.47.87-2.61,2.1,2,2.8,2,2.8-1.64,6.5-1.52,7.89,2.22,1.76,5,2,9.1-.46,10.06-1.2a24.59,24.59,0,0,0,2.07-1.87S357.32,244.35,362,236.36Z" style="fill:#fff"></path><g style="clip-path:url(#freepik--clip-path-2--inject-226)"><path d="M363.47,259.47a24.59,24.59,0,0,0,2.07-1.87s-7.53-12.15-4.05-20.2c-1.27,2.63-4.38,9.68-3.73,14.09.82,5.51,2.17,6.78,3.53,8.05l.49.48A5.15,5.15,0,0,0,363.47,259.47Z" style="fill:#407BFF"></path><path d="M354.62,246.85c-.23.58-.61,1-.85.89s-.26-.65,0-1.23.61-1,.85-.89S354.85,246.27,354.62,246.85Z" style="fill:#263238"></path><path d="M350.35,253.1s2.6.61,4-.45" style="fill:none;stroke:#263238;stroke-linecap:round;stroke-linejoin:round;stroke-width:0.75px"></path><path d="M354,242.75s2.09-1.22,2.85.5" style="fill:none;stroke:#263238;stroke-linecap:round;stroke-linejoin:round;stroke-width:0.75px"></path></g><path d="M362,236.36s-4.89.55-7.26,3.19-2.63,5-4.27,6.37-3.47.87-2.61,2.1,2,2.8,2,2.8-1.64,6.5-1.52,7.89,2.22,1.76,5,2,9.1-.46,10.06-1.2a24.59,24.59,0,0,0,2.07-1.87S357.32,244.35,362,236.36Z" style="fill:none;stroke:#263238;stroke-linecap:round;stroke-linejoin:round"></path><polygon points="364.22 262.03 353.62 269.25 352.58 275.96 367.55 264.94 364.22 262.03" style="fill:#fff;stroke:#263238;stroke-linecap:round;stroke-linejoin:round"></polygon></g></svg>