<svg xmlns="http://www.w3.org/2000/svg" viewBox="0 0 500 500"><g id="freepik--background-complete--inject-75"><path d="M386.1,160.34c-37.64,0-37.7,53.52,0,53.52S423.8,160.34,386.1,160.34Z" style="fill:#ebebeb"></path><path d="M409,192.12c-2,9.21-9.65,17.19-22.9,17.19-31.28,0-31.23-44.42,0-44.42h.62c-29.4.54-29.26,42.61.57,42.61C399.45,207.51,406.7,200.47,409,192.12Z" style="fill:#dbdbdb"></path><path d="M386.32,170.75a1,1,0,0,1,1,.89v1.49a14,14,0,0,1,7.25,2.61c.36.26.57.48.57.86a1,1,0,0,1-1.06.93,1.06,1.06,0,0,1-.73-.26,12.09,12.09,0,0,0-6.11-2.42v10.43c6.19,1.19,8.79,3.31,8.79,7,0,3.95-3.62,6.74-8.71,6.89V202a1,1,0,0,1-1.95,0V199.1a16,16,0,0,1-9.17-3.61,1,1,0,0,1-.45-.79,1,1,0,0,1,1-.93,1.12,1.12,0,0,1,.74.26,13.63,13.63,0,0,0,7.94,3.39V186.81c-6.11-1.23-8.64-3.28-8.64-7s3.59-6.63,8.56-6.74v-1.42A.94.94,0,0,1,386.32,170.75Zm-.89,14.16V174.73c-3.95.08-6.56,2.24-6.56,4.92S380.17,183.75,385.43,184.91Zm1.79,2.27v10.28c4.07-.07,6.72-2.23,6.72-5.07C393.94,189.82,392.51,188.26,387.22,187.18Z" style="fill:#dbdbdb"></path><path d="M169.3,43c-37.64,0-37.7,53.52,0,53.52S207,43,169.3,43Z" style="fill:#ebebeb"></path><path d="M192.19,74.81c-2,9.2-9.65,17.19-22.9,17.19-31.28,0-31.23-44.42,0-44.42h.62c-29.4.54-29.26,42.61.57,42.61C182.65,90.2,189.9,83.16,192.19,74.81Z" style="fill:#dbdbdb"></path><path d="M169.52,53.43a1,1,0,0,1,1,.9v1.49a14,14,0,0,1,7.25,2.61c.36.26.57.48.57.85a1,1,0,0,1-1.06.93,1,1,0,0,1-.74-.26,12.21,12.21,0,0,0-6.1-2.42V68c6.19,1.2,8.79,3.32,8.79,7,0,3.95-3.62,6.75-8.71,6.9v2.9a1,1,0,0,1-2,0V81.79a16,16,0,0,1-9.16-3.62,1,1,0,0,1-.45-.78,1,1,0,0,1,1-.93,1.07,1.07,0,0,1,.73.26,13.72,13.72,0,0,0,7.95,3.39V69.49c-6.11-1.23-8.64-3.28-8.64-7s3.59-6.63,8.55-6.75V54.33A1,1,0,0,1,169.52,53.43Zm-.89,14.16V57.42c-3.95.07-6.56,2.24-6.56,4.92C162.07,64.87,163.37,66.44,168.63,67.59Zm1.79,2.27V80.15c4.07-.08,6.72-2.24,6.72-5.07C177.14,72.51,175.71,71,170.42,69.86Z" style="fill:#dbdbdb"></path><path d="M98.52,131.33c-33.9,6.08-24.94,56.29,9,50.2S132.46,125.24,98.52,131.33Z" style="fill:#dbdbdb"></path><path d="M101.7,130.76c-32.3,5.8-23.35,56,9,50.2S134.05,125,101.7,130.76Z" style="fill:#ebebeb"></path><path d="M126.69,157c-.18,9-5.38,17.61-16.75,19.65-26.85,4.82-34.29-36.85-7.48-41.66l.53-.09c-25.14,5-17.93,44.47,7.66,39.88C121.1,172.94,126.13,165.22,126.69,157Z" style="fill:#dbdbdb"></path><path d="M103.64,140.49a.85.85,0,0,1,1,.68l.25,1.4a11.58,11.58,0,0,1,6.66,1.33c.36.19.57.37.63.72a.9.9,0,0,1-.75,1,.83.83,0,0,1-.67-.13,10.19,10.19,0,0,0-5.65-1.33l1.76,9.79c5.51.16,8.1,1.75,8.72,5.18.66,3.7-2,6.88-6.32,7.8l.49,2.73a.85.85,0,0,1-1.68.3l-.5-2.76a13.34,13.34,0,0,1-8.47-2,.89.89,0,0,1,.2-1.69.88.88,0,0,1,.68.13,11.49,11.49,0,0,0,7.38,1.95l-1.78-10c-5.45-.21-8-1.74-8.59-5.23s2-6.78,6.2-7.65l-.24-1.32A.87.87,0,0,1,103.64,140.49Zm1.62,13.41-1.72-9.54c-3.37.68-5.25,3.11-4.79,5.63C99.17,152.36,100.55,153.63,105.26,153.9Zm1.92,1.86,1.73,9.64c3.48-.69,5.39-3.13,4.91-5.78C113.39,157.21,111.9,156,107.18,155.76Z" style="fill:#dbdbdb"></path><path d="M321.25,220.72c-29,5.21-21.37,48.23,7.71,43S350.33,215.5,321.25,220.72Z" style="fill:#dbdbdb"></path><path d="M324,220.23c-27.67,5-20,48,7.72,43S351.69,215.26,324,220.23Z" style="fill:#ebebeb"></path><path d="M345.38,242.75c-.15,7.66-4.61,15.09-14.35,16.83-23,4.13-29.37-31.57-6.41-35.69l.46-.07c-21.54,4.31-15.37,38.09,6.56,34.16C340.59,256.37,344.9,249.76,345.38,242.75Z" style="fill:#dbdbdb"></path><path d="M329.49,228.55a.73.73,0,0,1,.64.81l-.14,1.21a9.84,9.84,0,0,1,5.13,2.74.84.84,0,0,1,.34.75.78.78,0,0,1-.87.66.74.74,0,0,1-.52-.28,8.67,8.67,0,0,0-4.3-2.49l-1,8.46c4.48,1.5,6.21,3.45,5.86,6.41-.37,3.2-3.33,5.15-7.12,4.83l-.28,2.36a.74.74,0,0,1-.81.64.75.75,0,0,1-.64-.81l.29-2.39a11.43,11.43,0,0,1-6.46-3.73.76.76,0,0,1-.25-.67.77.77,0,0,1,1.36-.39,9.84,9.84,0,0,0,5.57,3.44l1-8.61c-4.42-1.53-6.09-3.41-5.74-6.43s3.29-5.07,7-4.72l.13-1.15A.74.74,0,0,1,329.49,228.55Zm-2,11.4,1-8.25c-2.94-.28-5.08,1.24-5.33,3.42S323.69,238.55,327.48,240Zm1.11,2-1,8.33c3,.3,5.2-1.22,5.47-3.52C333.32,244.68,332.42,243.28,328.59,242Z" style="fill:#dbdbdb"></path><path d="M223.37,363.64c-5.41,7.64-4.31,31-7.58,34.24s-36.83,2.93-39.09,1-1.19-10.16-3.73-11.52C172,386.83,223.37,363.64,223.37,363.64Z" style="fill:#ebebeb"></path><path d="M80.09,364c6.76,9.75,3.11,30.59,6.38,33.86s36.83,2.93,39.09,1,1.22-10.61,2.56-12.26C128.83,385.74,80.09,364,80.09,364Z" style="fill:#ebebeb"></path><path d="M173,387.36a3.7,3.7,0,0,1,1.44,2.49,159.34,159.34,0,0,0,44.94-12.09c.77-5.68,1.89-11.11,4-14.11C223.36,363.65,172,386.83,173,387.36Z" style="fill:#dbdbdb"></path><path d="M80.09,364c2.52,3.64,3.6,8.83,4.12,14.06A152.44,152.44,0,0,0,127.37,390a7.43,7.43,0,0,1,.75-3.38C128.83,385.74,80.09,364,80.09,364Z" style="fill:#dbdbdb"></path><path d="M154,222.61c67.5,0,93.33,52.83,93.33,83.75,0,30.51-19.62,82.36-93.33,82.36s-98.17-43.93-98.17-83.06S85.79,222.61,154,222.61Z" style="fill:#ebebeb"></path><path d="M134.93,226.42s-30.82-23.64-64.21-20.82c-11.5,1,7.59,25.88,7.94,45.34Z" style="fill:#ebebeb"></path><path d="M91.53,241.41c.2,1.23-10.44,5.79-11.54,5.09s-2.21-16-10.89-32.36C67.82,211.74,89.48,228.24,91.53,241.41Z" style="fill:#dbdbdb"></path><path d="M229.58,272.53c-.4-2.08-.65-3.95-.85-5.94a56.15,56.15,0,0,1-.3-6,34.23,34.23,0,0,1,.54-6.21,15,15,0,0,1,2.77-6.54,8.59,8.59,0,0,1,3.38-2.56,8.1,8.1,0,0,1,2-.56,9.94,9.94,0,0,1,2-.09,11.78,11.78,0,0,1,6.61,2.66,18.28,18.28,0,0,1,4.23,4.84,16.93,16.93,0,0,1,2.32,6A7.31,7.31,0,0,1,252,262a4.19,4.19,0,0,1-1.53,1.94,4.46,4.46,0,0,1-2.22.73,4.09,4.09,0,0,1-2.33-.56,4.88,4.88,0,0,1-1.51-1.49,8.72,8.72,0,0,1-1.18-3.19,17.59,17.59,0,0,1,.06-6.06,14.22,14.22,0,0,1,2.14-5.62,6.69,6.69,0,0,1,2.33-2.18,4.94,4.94,0,0,1,3.18-.53,9.61,9.61,0,0,1,5.07,3,32.13,32.13,0,0,1,6,9.52,31.69,31.69,0,0,0-6.6-8.86,8.32,8.32,0,0,0-4.61-2.27,3.93,3.93,0,0,0-3.74,2.37,12.2,12.2,0,0,0-1.33,4.92,14.76,14.76,0,0,0,.43,5.08,5.5,5.5,0,0,0,.92,2,1.53,1.53,0,0,0,.51.42.58.58,0,0,0,.37,0c.17,0,.37-.13.38-.19a.58.58,0,0,0,.11-.28,3.84,3.84,0,0,0-.12-1.72,14,14,0,0,0-5.57-7.46,6.37,6.37,0,0,0-3.73-1.16,3.69,3.69,0,0,0-.82.13,2.51,2.51,0,0,0-.64.25,2.74,2.74,0,0,0-.94.92,9.21,9.21,0,0,0-1.11,3.83,27.38,27.38,0,0,0,0,5,51.67,51.67,0,0,0,.7,5.17c.32,1.71.73,3.51,1.17,5.07Z" style="fill:#ebebeb"></path><path d="M81,288c.1-.21.4.38.34.62-1.48,5.78-2.2,12.65,2.64,15.75.15.09.07.38-.12.31C77.66,302.37,78.71,293.26,81,288Z" style="fill:#dbdbdb"></path><path d="M87.58,283.1c9.52,1.36,6.09,20.3-2.73,19S79.6,282,87.58,283.1Z" style="fill:#dbdbdb"></path><path d="M62.13,275.15c-1.47,4.43-14.86.84-18.23,3.64-5.31,4.41-3.84,59.09,1,63.49,2.73,2.47,17.91-.13,22.17,2.87S62.13,275.15,62.13,275.15Z" style="fill:#ebebeb"></path><ellipse cx="45.67" cy="309.21" rx="2.49" ry="24.12" style="fill:#dbdbdb"></ellipse><path d="M180.14,240.13c-.22-.08-23-7.48-44.15-1.69l-2.11-7.71c23.56-6.45,47.77,1.47,48.79,1.81l-2.53,7.59,1.27-3.8Z" style="fill:#dbdbdb"></path><path d="M211.73,356.23c30.41-34.94,11.81-75.51,11-77.25a5,5,0,0,1,9-4.4,84.56,84.56,0,0,1,7.17,29.13c1.46,22.21-5.89,42.62-23.28,56.51C210.31,364.4,207.83,360.72,211.73,356.23Z" style="fill:#fff"></path><path d="M225,263.48a5.44,5.44,0,1,1-5.44-5.44A5.44,5.44,0,0,1,225,263.48Z" style="fill:#fff"></path></g><g id="freepik--Shadows--inject-75"><ellipse cx="260.27" cy="456.17" rx="129" ry="18.56" style="fill:#ebebeb"></ellipse><path d="M184.62,439.26c0,7.28-30.84,13.19-68.88,13.19s-68.88-5.91-68.88-13.19,30.84-13.19,68.88-13.19S184.62,432,184.62,439.26Z" style="fill:#ebebeb"></path></g><g id="freepik--Chart--inject-75"><rect x="350.26" y="303.1" width="29.98" height="97.7" style="fill:#407BFF"></rect><g style="opacity:0.1"><rect x="373.37" y="303.1" width="6.86" height="97.7"></rect></g><rect x="389.75" y="271.31" width="29.98" height="129.48" style="fill:#407BFF"></rect><g style="opacity:0.1"><rect x="412.87" y="271.31" width="6.86" height="129.48"></rect></g><rect x="310.85" y="322.04" width="29.98" height="78.76" style="fill:#407BFF"></rect><g style="opacity:0.1"><rect x="333.96" y="322.04" width="6.86" height="78.76"></rect></g><rect x="429.25" y="228.99" width="29.98" height="171.8" style="fill:#407BFF"></rect><g style="opacity:0.1"><rect x="452.36" y="228.99" width="6.86" height="171.8"></rect></g><path d="M310.85,349.93V334.78s102-8.69,143.24-121.71h4.37S430.81,330,310.85,349.93Z" style="fill:#c7c7c7"></path><polygon points="462.01 217.93 449.12 213.66 459.8 203.02 462.01 217.93" style="fill:#c7c7c7"></polygon></g><g id="freepik--Floor--inject-75"><polygon points="23.61 400.79 80.21 400.55 136.81 400.46 250 400.3 363.19 400.46 419.79 400.55 476.39 400.79 419.79 401.04 363.19 401.13 250 401.29 136.81 401.13 80.21 401.04 23.61 400.79" style="fill:#263238"></polygon></g><g id="freepik--Coins--inject-75"><rect x="286.87" y="442.69" width="62.98" height="13.92" style="fill:#407BFF"></rect><g style="opacity:0.1"><path d="M289.47,444a31.22,31.22,0,0,1,0,11.13,31.22,31.22,0,0,1,0-11.13Z"></path><path d="M294.16,444a31.22,31.22,0,0,1,0,11.13,31.22,31.22,0,0,1,0-11.13Z"></path><path d="M296.45,444a31.22,31.22,0,0,1,0,11.13,26.91,26.91,0,0,1-.5-5.57A27.52,27.52,0,0,1,296.45,444Z"></path><path d="M309,444a31.22,31.22,0,0,1,0,11.13A31.22,31.22,0,0,1,309,444Z"></path><path d="M312.43,444a28.26,28.26,0,0,1,.5,5.56,27.61,27.61,0,0,1-.5,5.57,26.91,26.91,0,0,1-.5-5.57A27.52,27.52,0,0,1,312.43,444Z"></path><path d="M326.5,444a28.26,28.26,0,0,1,.5,5.56,27.61,27.61,0,0,1-.5,5.57,26.91,26.91,0,0,1-.5-5.57A28.26,28.26,0,0,1,326.5,444Z"></path><path d="M329.75,444a28.26,28.26,0,0,1,.5,5.56,26.91,26.91,0,0,1-.5,5.57,27.61,27.61,0,0,1-.5-5.57A28.26,28.26,0,0,1,329.75,444Z"></path><path d="M335.72,444a28.26,28.26,0,0,1,.5,5.56,27.61,27.61,0,0,1-.5,5.57,26.91,26.91,0,0,1-.5-5.57A28.26,28.26,0,0,1,335.72,444Z"></path><path d="M323.78,444a27.52,27.52,0,0,1,.5,5.56,26.91,26.91,0,0,1-.5,5.57,27.61,27.61,0,0,1-.5-5.57A28.26,28.26,0,0,1,323.78,444Z"></path><path d="M300.61,444a31.85,31.85,0,0,1,0,11.13,31.22,31.22,0,0,1,0-11.13Z"></path><path d="M316.91,444a31.22,31.22,0,0,1,0,11.13,31.22,31.22,0,0,1,0-11.13Z"></path><path d="M319.25,444a27.52,27.52,0,0,1,.5,5.56,26.91,26.91,0,0,1-.5,5.57,27.61,27.61,0,0,1-.5-5.57A28.26,28.26,0,0,1,319.25,444Z"></path><path d="M343.5,444a27.52,27.52,0,0,1,.5,5.56,26.91,26.91,0,0,1-.5,5.57,27.61,27.61,0,0,1-.5-5.57A28.26,28.26,0,0,1,343.5,444Z"></path><path d="M347,444a28.26,28.26,0,0,1,.5,5.56,27.61,27.61,0,0,1-.5,5.57,26.91,26.91,0,0,1-.5-5.57A27.52,27.52,0,0,1,347,444Z"></path><path d="M338.49,444a27.52,27.52,0,0,1,.5,5.56,26.91,26.91,0,0,1-.5,5.57,27.61,27.61,0,0,1-.5-5.57A28.26,28.26,0,0,1,338.49,444Z"></path><path d="M306.31,444a31.22,31.22,0,0,1,0,11.13,26.91,26.91,0,0,1-.5-5.57A27.52,27.52,0,0,1,306.31,444Z"></path></g><polygon points="349.85 442.69 349.85 445.65 286.87 447.63 286.87 442.69 349.85 442.69" style="opacity:0.1"></polygon><rect x="281.62" y="428.78" width="62.98" height="13.92" style="fill:#407BFF"></rect><g style="opacity:0.1"><path d="M341.76,441.19a31.27,31.27,0,0,1,0-11.14,31.27,31.27,0,0,1,0,11.14Z"></path><path d="M337.07,441.19a31.27,31.27,0,0,1,0-11.14,31.27,31.27,0,0,1,0,11.14Z"></path><path d="M334.78,441.19a28.43,28.43,0,0,1-.5-5.57,27.61,27.61,0,0,1,.5-5.57,26.91,26.91,0,0,1,.5,5.57A27.68,27.68,0,0,1,334.78,441.19Z"></path><path d="M322.2,441.19a31.27,31.27,0,0,1,0-11.14,31.27,31.27,0,0,1,0,11.14Z"></path><path d="M318.8,441.19a28.43,28.43,0,0,1-.5-5.57,27.61,27.61,0,0,1,.5-5.57,26.91,26.91,0,0,1,.5,5.57A28.43,28.43,0,0,1,318.8,441.19Z"></path><path d="M304.73,441.19a28.43,28.43,0,0,1-.5-5.57,26.91,26.91,0,0,1,.5-5.57,26.91,26.91,0,0,1,.5,5.57A28.43,28.43,0,0,1,304.73,441.19Z"></path><path d="M301.48,441.19a27.68,27.68,0,0,1-.5-5.57,26.91,26.91,0,0,1,.5-5.57,27.61,27.61,0,0,1,.5,5.57A28.43,28.43,0,0,1,301.48,441.19Z"></path><path d="M295.51,441.19a28.43,28.43,0,0,1-.5-5.57,26.91,26.91,0,0,1,.5-5.57,27.61,27.61,0,0,1,.5,5.57A28.43,28.43,0,0,1,295.51,441.19Z"></path><path d="M307.45,441.19a27.68,27.68,0,0,1-.5-5.57,26.91,26.91,0,0,1,.5-5.57,31.27,31.27,0,0,1,0,11.14Z"></path><path d="M330.62,441.19a31.27,31.27,0,0,1,0-11.14,31.27,31.27,0,0,1,0,11.14Z"></path><path d="M314.32,441.19a31.27,31.27,0,0,1,0-11.14,31.27,31.27,0,0,1,0,11.14Z"></path><path d="M312,441.19a27.68,27.68,0,0,1-.5-5.57,26.91,26.91,0,0,1,.5-5.57,31.27,31.27,0,0,1,0,11.14Z"></path><path d="M287.73,441.19a27.68,27.68,0,0,1-.5-5.57,26.91,26.91,0,0,1,.5-5.57,31.27,31.27,0,0,1,0,11.14Z"></path><path d="M284.21,441.19a28.43,28.43,0,0,1-.5-5.57,27.61,27.61,0,0,1,.5-5.57,26.91,26.91,0,0,1,.5,5.57A27.68,27.68,0,0,1,284.21,441.19Z"></path><path d="M292.74,441.19a27.68,27.68,0,0,1-.5-5.57,26.91,26.91,0,0,1,.5-5.57,31.27,31.27,0,0,1,0,11.14Z"></path><path d="M324.92,441.19a28.43,28.43,0,0,1-.5-5.57,27.61,27.61,0,0,1,.5-5.57,26.91,26.91,0,0,1,.5,5.57A27.68,27.68,0,0,1,324.92,441.19Z"></path></g><polygon points="344.59 428.78 344.59 431.73 281.61 433.72 281.61 428.78 344.59 428.78" style="opacity:0.1"></polygon><rect x="286.47" y="414.97" width="62.98" height="13.92" style="fill:#407BFF"></rect><g style="opacity:0.1"><path d="M289.06,416.25a31.22,31.22,0,0,1,0,11.13,31.22,31.22,0,0,1,0-11.13Z"></path><path d="M293.75,416.25a31.22,31.22,0,0,1,0,11.13,31.22,31.22,0,0,1,0-11.13Z"></path><path d="M296.05,416.25a31.85,31.85,0,0,1,0,11.13,31.22,31.22,0,0,1,0-11.13Z"></path><path d="M308.62,416.25a31.22,31.22,0,0,1,0,11.13,31.22,31.22,0,0,1,0-11.13Z"></path><path d="M312,416.25a31.22,31.22,0,0,1,0,11.13,31.22,31.22,0,0,1,0-11.13Z"></path><path d="M326.1,416.25a31.22,31.22,0,0,1,0,11.13,31.22,31.22,0,0,1,0-11.13Z"></path><path d="M329.35,416.25a31.22,31.22,0,0,1,0,11.13,31.22,31.22,0,0,1,0-11.13Z"></path><path d="M335.32,416.25a31.22,31.22,0,0,1,0,11.13,31.22,31.22,0,0,1,0-11.13Z"></path><path d="M323.38,416.25a31.22,31.22,0,0,1,0,11.13,26.82,26.82,0,0,1-.5-5.56A27.55,27.55,0,0,1,323.38,416.25Z"></path><path d="M300.2,416.25a27.55,27.55,0,0,1,.5,5.57,26.82,26.82,0,0,1-.5,5.56,31.22,31.22,0,0,1,0-11.13Z"></path><path d="M316.5,416.25a31.22,31.22,0,0,1,0,11.13,31.22,31.22,0,0,1,0-11.13Z"></path><path d="M318.85,416.25a31.22,31.22,0,0,1,0,11.13,26.82,26.82,0,0,1-.5-5.56A27.55,27.55,0,0,1,318.85,416.25Z"></path><path d="M343.1,416.25a31.22,31.22,0,0,1,0,11.13,31.22,31.22,0,0,1,0-11.13Z"></path><path d="M346.62,416.25a31.22,31.22,0,0,1,0,11.13,31.22,31.22,0,0,1,0-11.13Z"></path><path d="M338.09,416.25a31.22,31.22,0,0,1,0,11.13,26.82,26.82,0,0,1-.5-5.56A27.55,27.55,0,0,1,338.09,416.25Z"></path><path d="M305.9,416.25a31.22,31.22,0,0,1,0,11.13,31.85,31.85,0,0,1,0-11.13Z"></path></g><polygon points="349.44 414.97 349.44 417.93 286.47 419.92 286.47 414.97 349.44 414.97" style="opacity:0.1"></polygon><rect x="99.22" y="425.61" width="62.98" height="13.92" style="fill:#407BFF"></rect><g style="opacity:0.1"><path d="M101.82,426.88a31.27,31.27,0,0,1,0,11.14,31.27,31.27,0,0,1,0-11.14Z"></path><path d="M106.51,426.88a31.27,31.27,0,0,1,0,11.14,31.27,31.27,0,0,1,0-11.14Z"></path><path d="M108.8,426.88a31.27,31.27,0,0,1,0,11.14,31.27,31.27,0,0,1,0-11.14Z"></path><path d="M121.38,426.88a31.9,31.9,0,0,1,0,11.14,31.27,31.27,0,0,1,0-11.14Z"></path><path d="M124.78,426.88a31.27,31.27,0,0,1,0,11.14,26.91,26.91,0,0,1-.5-5.57A27.68,27.68,0,0,1,124.78,426.88Z"></path><path d="M138.85,426.88a31.27,31.27,0,0,1,0,11.14,26.91,26.91,0,0,1-.5-5.57A27.68,27.68,0,0,1,138.85,426.88Z"></path><path d="M142.1,426.88a28.43,28.43,0,0,1,.5,5.57,27.61,27.61,0,0,1-.5,5.57,26.91,26.91,0,0,1-.5-5.57A28.43,28.43,0,0,1,142.1,426.88Z"></path><path d="M148.07,426.88a28.43,28.43,0,0,1,.5,5.57,27.61,27.61,0,0,1-.5,5.57,26.91,26.91,0,0,1-.5-5.57A27.68,27.68,0,0,1,148.07,426.88Z"></path><path d="M136.13,426.88a28.43,28.43,0,0,1,.5,5.57,26.91,26.91,0,0,1-.5,5.57,27.61,27.61,0,0,1-.5-5.57A28.43,28.43,0,0,1,136.13,426.88Z"></path><path d="M113,426.88A31.27,31.27,0,0,1,113,438a31.27,31.27,0,0,1,0-11.14Z"></path><path d="M129.26,426.88a31.9,31.9,0,0,1,0,11.14,31.27,31.27,0,0,1,0-11.14Z"></path><path d="M131.6,426.88a28.43,28.43,0,0,1,.5,5.57,26.91,26.91,0,0,1-.5,5.57,27.61,27.61,0,0,1-.5-5.57A28.43,28.43,0,0,1,131.6,426.88Z"></path><path d="M155.85,426.88a28.43,28.43,0,0,1,.5,5.57,26.91,26.91,0,0,1-.5,5.57,26.91,26.91,0,0,1-.5-5.57A28.43,28.43,0,0,1,155.85,426.88Z"></path><path d="M159.37,426.88a31.27,31.27,0,0,1,0,11.14,31.27,31.27,0,0,1,0-11.14Z"></path><path d="M150.84,426.88a28.43,28.43,0,0,1,.5,5.57,26.91,26.91,0,0,1-.5,5.57,27.61,27.61,0,0,1-.5-5.57A28.43,28.43,0,0,1,150.84,426.88Z"></path><path d="M118.66,426.88a31.27,31.27,0,0,1,0,11.14,31.27,31.27,0,0,1,0-11.14Z"></path></g><polygon points="162.19 425.61 162.19 428.57 99.22 430.55 99.22 425.61 162.19 425.61" style="opacity:0.1"></polygon><rect x="94.91" y="411.69" width="62.98" height="13.92" style="fill:#407BFF"></rect><g style="opacity:0.1"><path d="M97.51,413a31.22,31.22,0,0,1,0,11.13,26.82,26.82,0,0,1-.5-5.56A27.55,27.55,0,0,1,97.51,413Z"></path><path d="M102.2,413a31.22,31.22,0,0,1,0,11.13,26.82,26.82,0,0,1-.5-5.56A27.55,27.55,0,0,1,102.2,413Z"></path><path d="M104.49,413a28.29,28.29,0,0,1,.5,5.57,26.82,26.82,0,0,1-.5,5.56,26.82,26.82,0,0,1-.5-5.56A28.29,28.29,0,0,1,104.49,413Z"></path><path d="M117.07,413a31.22,31.22,0,0,1,0,11.13,31.22,31.22,0,0,1,0-11.13Z"></path><path d="M120.47,413a27.55,27.55,0,0,1,.5,5.57,26.82,26.82,0,0,1-.5,5.56,27.52,27.52,0,0,1-.5-5.56A28.29,28.29,0,0,1,120.47,413Z"></path><path d="M134.54,413a27.55,27.55,0,0,1,.5,5.57,26.82,26.82,0,0,1-.5,5.56,27.52,27.52,0,0,1-.5-5.56A28.29,28.29,0,0,1,134.54,413Z"></path><path d="M137.79,413a31.22,31.22,0,0,1,0,11.13,31.22,31.22,0,0,1,0-11.13Z"></path><path d="M143.76,413a27.55,27.55,0,0,1,.5,5.57,26.82,26.82,0,0,1-.5,5.56,31.22,31.22,0,0,1,0-11.13Z"></path><path d="M131.82,413a31.22,31.22,0,0,1,0,11.13,31.22,31.22,0,0,1,0-11.13Z"></path><path d="M108.65,413a31.22,31.22,0,0,1,0,11.13,31.22,31.22,0,0,1,0-11.13Z"></path><path d="M125,413a31.22,31.22,0,0,1,0,11.13,26.82,26.82,0,0,1-.5-5.56A27.55,27.55,0,0,1,125,413Z"></path><path d="M127.29,413a31.22,31.22,0,0,1,0,11.13,31.22,31.22,0,0,1,0-11.13Z"></path><path d="M151.54,413a31.22,31.22,0,0,1,0,11.13,31.22,31.22,0,0,1,0-11.13Z"></path><path d="M155.06,413a28.29,28.29,0,0,1,.5,5.57,26.82,26.82,0,0,1-.5,5.56,27.52,27.52,0,0,1-.5-5.56A28.29,28.29,0,0,1,155.06,413Z"></path><path d="M146.53,413a31.22,31.22,0,0,1,0,11.13,31.22,31.22,0,0,1,0-11.13Z"></path><path d="M114.35,413a28.29,28.29,0,0,1,.5,5.57,27.52,27.52,0,0,1-.5,5.56,26.82,26.82,0,0,1-.5-5.56A28.29,28.29,0,0,1,114.35,413Z"></path></g><polygon points="157.89 411.69 157.89 414.65 94.91 416.64 94.91 411.69 157.89 411.69" style="opacity:0.1"></polygon><rect x="104.64" y="383.98" width="62.98" height="13.92" style="fill:#407BFF"></rect><g style="opacity:0.1"><path d="M107.24,385.25a31.22,31.22,0,0,1,0,11.13,31.22,31.22,0,0,1,0-11.13Z"></path><path d="M111.93,385.25a31.22,31.22,0,0,1,0,11.13,31.22,31.22,0,0,1,0-11.13Z"></path><path d="M114.22,385.25a28.36,28.36,0,0,1,.5,5.57,27.52,27.52,0,0,1-.5,5.56,26.82,26.82,0,0,1-.5-5.56A28.36,28.36,0,0,1,114.22,385.25Z"></path><path d="M126.8,385.25a31.22,31.22,0,0,1,0,11.13,31.22,31.22,0,0,1,0-11.13Z"></path><path d="M130.2,385.25a28.36,28.36,0,0,1,.5,5.57,26.82,26.82,0,0,1-.5,5.56,27.52,27.52,0,0,1-.5-5.56A28.36,28.36,0,0,1,130.2,385.25Z"></path><path d="M144.27,385.25a27.61,27.61,0,0,1,.5,5.57,26.82,26.82,0,0,1-.5,5.56,27.52,27.52,0,0,1-.5-5.56A28.36,28.36,0,0,1,144.27,385.25Z"></path><path d="M147.52,385.25a27.61,27.61,0,0,1,.5,5.57,26.82,26.82,0,0,1-.5,5.56,31.22,31.22,0,0,1,0-11.13Z"></path><path d="M153.49,385.25a27.61,27.61,0,0,1,.5,5.57,26.82,26.82,0,0,1-.5,5.56,27.52,27.52,0,0,1-.5-5.56A28.36,28.36,0,0,1,153.49,385.25Z"></path><path d="M141.55,385.25a31.22,31.22,0,0,1,0,11.13,31.22,31.22,0,0,1,0-11.13Z"></path><path d="M118.38,385.25a31.22,31.22,0,0,1,0,11.13,31.22,31.22,0,0,1,0-11.13Z"></path><path d="M134.68,385.25a31.22,31.22,0,0,1,0,11.13,31.22,31.22,0,0,1,0-11.13Z"></path><path d="M137,385.25a31.22,31.22,0,0,1,0,11.13,31.22,31.22,0,0,1,0-11.13Z"></path><path d="M161.27,385.25a31.22,31.22,0,0,1,0,11.13,31.22,31.22,0,0,1,0-11.13Z"></path><path d="M164.79,385.25a28.36,28.36,0,0,1,.5,5.57,26.82,26.82,0,0,1-.5,5.56,26.82,26.82,0,0,1-.5-5.56A28.36,28.36,0,0,1,164.79,385.25Z"></path><path d="M156.26,385.25a31.22,31.22,0,0,1,0,11.13,31.22,31.22,0,0,1,0-11.13Z"></path><path d="M124.08,385.25a28.36,28.36,0,0,1,.5,5.57,27.52,27.52,0,0,1-.5,5.56,26.82,26.82,0,0,1-.5-5.56A27.61,27.61,0,0,1,124.08,385.25Z"></path></g><polygon points="167.62 383.98 167.62 386.93 104.64 388.92 104.64 383.98 167.62 383.98" style="opacity:0.1"></polygon><rect x="103.05" y="370.06" width="62.98" height="13.92" style="fill:#407BFF"></rect><g style="opacity:0.1"><path d="M163.2,382.47a28.36,28.36,0,0,1-.5-5.57,27,27,0,0,1,.5-5.57,27,27,0,0,1,.5,5.57A28.36,28.36,0,0,1,163.2,382.47Z"></path><path d="M158.51,382.47a28.36,28.36,0,0,1-.5-5.57,27,27,0,0,1,.5-5.57,27,27,0,0,1,.5,5.57A28.36,28.36,0,0,1,158.51,382.47Z"></path><path d="M156.22,382.47a27.61,27.61,0,0,1-.5-5.57,27,27,0,0,1,.5-5.57,31.27,31.27,0,0,1,0,11.14Z"></path><path d="M143.64,382.47a28.36,28.36,0,0,1-.5-5.57,27.68,27.68,0,0,1,.5-5.57,27,27,0,0,1,.5,5.57A28.36,28.36,0,0,1,143.64,382.47Z"></path><path d="M140.24,382.47a31.27,31.27,0,0,1,0-11.14,31.27,31.27,0,0,1,0,11.14Z"></path><path d="M126.17,382.47a31.27,31.27,0,0,1,0-11.14,31.27,31.27,0,0,1,0,11.14Z"></path><path d="M122.92,382.47a31.27,31.27,0,0,1,0-11.14,31.27,31.27,0,0,1,0,11.14Z"></path><path d="M117,382.47a31.27,31.27,0,0,1,0-11.14,31.27,31.27,0,0,1,0,11.14Z"></path><path d="M128.89,382.47a31.27,31.27,0,0,1,0-11.14,31.9,31.9,0,0,1,0,11.14Z"></path><path d="M152.06,382.47a28.36,28.36,0,0,1-.5-5.57,27.68,27.68,0,0,1,.5-5.57,27,27,0,0,1,.5,5.57A27.61,27.61,0,0,1,152.06,382.47Z"></path><path d="M135.76,382.47a28.36,28.36,0,0,1-.5-5.57,27.68,27.68,0,0,1,.5-5.57,27,27,0,0,1,.5,5.57A28.36,28.36,0,0,1,135.76,382.47Z"></path><path d="M133.42,382.47a31.27,31.27,0,0,1,0-11.14,31.9,31.9,0,0,1,0,11.14Z"></path><path d="M109.17,382.47a31.27,31.27,0,0,1,0-11.14,31.27,31.27,0,0,1,0,11.14Z"></path><path d="M105.65,382.47a31.27,31.27,0,0,1,0-11.14,31.27,31.27,0,0,1,0,11.14Z"></path><path d="M114.18,382.47a31.27,31.27,0,0,1,0-11.14,31.9,31.9,0,0,1,0,11.14Z"></path><path d="M146.36,382.47a27.61,27.61,0,0,1-.5-5.57,27,27,0,0,1,.5-5.57,31.27,31.27,0,0,1,0,11.14Z"></path></g><polygon points="166.03 370.06 166.03 373.02 103.05 375 103.05 370.06 166.03 370.06" style="opacity:0.1"></polygon><rect x="99.22" y="356.14" width="62.98" height="13.92" style="fill:#407BFF"></rect><g style="opacity:0.1"><path d="M101.82,357.42a31.22,31.22,0,0,1,0,11.13,31.22,31.22,0,0,1,0-11.13Z"></path><path d="M106.51,357.42a31.22,31.22,0,0,1,0,11.13,31.22,31.22,0,0,1,0-11.13Z"></path><path d="M108.8,357.42a28.29,28.29,0,0,1,.5,5.57,27.52,27.52,0,0,1-.5,5.56,26.82,26.82,0,0,1-.5-5.56A27.55,27.55,0,0,1,108.8,357.42Z"></path><path d="M121.38,357.42a31.22,31.22,0,0,1,0,11.13,31.22,31.22,0,0,1,0-11.13Z"></path><path d="M124.78,357.42a28.29,28.29,0,0,1,.5,5.57,27.52,27.52,0,0,1-.5,5.56,26.82,26.82,0,0,1-.5-5.56A28.29,28.29,0,0,1,124.78,357.42Z"></path><path d="M138.85,357.42a28.29,28.29,0,0,1,.5,5.57,27.52,27.52,0,0,1-.5,5.56,26.82,26.82,0,0,1-.5-5.56A28.29,28.29,0,0,1,138.85,357.42Z"></path><path d="M142.1,357.42a27.55,27.55,0,0,1,.5,5.57,26.82,26.82,0,0,1-.5,5.56,27.52,27.52,0,0,1-.5-5.56A28.29,28.29,0,0,1,142.1,357.42Z"></path><path d="M148.07,357.42a28.29,28.29,0,0,1,.5,5.57,26.82,26.82,0,0,1-.5,5.56,27.52,27.52,0,0,1-.5-5.56A28.29,28.29,0,0,1,148.07,357.42Z"></path><path d="M136.13,357.42a27.55,27.55,0,0,1,.5,5.57,26.82,26.82,0,0,1-.5,5.56,31.22,31.22,0,0,1,0-11.13Z"></path><path d="M113,357.42a31.22,31.22,0,0,1,0,11.13,31.22,31.22,0,0,1,0-11.13Z"></path><path d="M129.26,357.42a31.22,31.22,0,0,1,0,11.13,31.22,31.22,0,0,1,0-11.13Z"></path><path d="M131.6,357.42a27.55,27.55,0,0,1,.5,5.57,26.82,26.82,0,0,1-.5,5.56,31.22,31.22,0,0,1,0-11.13Z"></path><path d="M155.85,357.42a27.55,27.55,0,0,1,.5,5.57,26.82,26.82,0,0,1-.5,5.56,27.52,27.52,0,0,1-.5-5.56A28.29,28.29,0,0,1,155.85,357.42Z"></path><path d="M159.37,357.42a28.29,28.29,0,0,1,.5,5.57,27.52,27.52,0,0,1-.5,5.56,26.82,26.82,0,0,1-.5-5.56A27.55,27.55,0,0,1,159.37,357.42Z"></path><path d="M150.84,357.42a27.55,27.55,0,0,1,.5,5.57,26.82,26.82,0,0,1-.5,5.56,31.22,31.22,0,0,1,0-11.13Z"></path><path d="M118.66,357.42a31.22,31.22,0,0,1,0,11.13,26.82,26.82,0,0,1-.5-5.56A27.55,27.55,0,0,1,118.66,357.42Z"></path></g><polygon points="162.2 356.14 162.2 359.1 99.22 361.09 99.22 356.14 162.2 356.14" style="opacity:0.1"></polygon><rect x="99.22" y="397.89" width="62.98" height="13.92" style="fill:#407BFF"></rect><g style="opacity:0.1"><path d="M159.37,410.3a27.55,27.55,0,0,1-.5-5.57,26.82,26.82,0,0,1,.5-5.56,31.22,31.22,0,0,1,0,11.13Z"></path><path d="M154.68,410.3a27.55,27.55,0,0,1-.5-5.57,26.82,26.82,0,0,1,.5-5.56,31.22,31.22,0,0,1,0,11.13Z"></path><path d="M152.39,410.3a31.22,31.22,0,0,1,0-11.13,31.22,31.22,0,0,1,0,11.13Z"></path><path d="M139.81,410.3a27.55,27.55,0,0,1-.5-5.57,26.82,26.82,0,0,1,.5-5.56,27.52,27.52,0,0,1,.5,5.56A28.29,28.29,0,0,1,139.81,410.3Z"></path><path d="M136.41,410.3a31.22,31.22,0,0,1,0-11.13,31.22,31.22,0,0,1,0,11.13Z"></path><path d="M122.34,410.3a31.22,31.22,0,0,1,0-11.13,31.85,31.85,0,0,1,0,11.13Z"></path><path d="M119.08,410.3a31.22,31.22,0,0,1,0-11.13,31.22,31.22,0,0,1,0,11.13Z"></path><path d="M113.11,410.3a31.85,31.85,0,0,1,0-11.13,31.22,31.22,0,0,1,0,11.13Z"></path><path d="M125.05,410.3a31.22,31.22,0,0,1,0-11.13,31.22,31.22,0,0,1,0,11.13Z"></path><path d="M148.23,410.3a27.55,27.55,0,0,1-.5-5.57,26.82,26.82,0,0,1,.5-5.56,27.52,27.52,0,0,1,.5,5.56A28.29,28.29,0,0,1,148.23,410.3Z"></path><path d="M131.93,410.3a27.55,27.55,0,0,1-.5-5.57,26.82,26.82,0,0,1,.5-5.56,27.52,27.52,0,0,1,.5,5.56A28.29,28.29,0,0,1,131.93,410.3Z"></path><path d="M129.58,410.3a31.22,31.22,0,0,1,0-11.13,31.22,31.22,0,0,1,0,11.13Z"></path><path d="M105.33,410.3a31.22,31.22,0,0,1,0-11.13,31.22,31.22,0,0,1,0,11.13Z"></path><path d="M101.82,410.3a31.22,31.22,0,0,1,0-11.13,31.22,31.22,0,0,1,0,11.13Z"></path><path d="M110.34,410.3a31.22,31.22,0,0,1,0-11.13,31.22,31.22,0,0,1,0,11.13Z"></path><path d="M142.53,410.3a31.22,31.22,0,0,1,0-11.13,31.22,31.22,0,0,1,0,11.13Z"></path></g><polygon points="162.2 397.89 162.2 400.85 99.22 402.84 99.22 397.89 162.2 397.89" style="opacity:0.1"></polygon><path d="M94.92,386c41.45,7.44,30.51,68.85-11,61.4S53.39,378.52,94.92,386Z" style="fill:#407BFF"></path><path d="M94.92,386c41.45,7.44,30.51,68.85-11,61.4S53.39,378.52,94.92,386Z" style="opacity:0.1"></path><path d="M91,385.27c39.51,7.09,28.55,68.5-11,61.4S51.45,378.17,91,385.27Z" style="fill:#407BFF"></path><path d="M60.46,417.41C60.67,428.36,67,439,81,441.45c32.84,5.89,41.93-45.08,9.14-51-.21,0-.43-.08-.64-.1,30.74,6.15,21.93,54.39-9.38,48.77C67.3,436.87,61.14,427.42,60.46,417.41Z" style="opacity:0.1"></path><g style="opacity:0.1"><path d="M88.93,396.86a1,1,0,0,1,.76,1.26l-.42,1.69A14.16,14.16,0,0,1,96,404.63a1.19,1.19,0,0,1,.34,1.11,1.11,1.11,0,0,1-1.36.78,1,1,0,0,1-.68-.48,12.36,12.36,0,0,0-5.64-4.32l-2.94,11.8c6.07,3,8.17,6,7.13,10.15-1.11,4.47-5.65,6.69-11,5.55l-.82,3.28a1,1,0,1,1-2-.5l.83-3.33a16.3,16.3,0,0,1-8.46-6.45,1.09,1.09,0,0,1,1.07-1.79,1.1,1.1,0,0,1,.69.48,14.05,14.05,0,0,0,7.26,5.89l3-12c-6-3-8-5.94-7-10.15s5.58-6.58,10.75-5.42l.4-1.6A1,1,0,0,1,88.93,396.86ZM84,412.64l2.87-11.51c-4.11-.93-7.41.84-8.17,3.87C78,407.87,78.9,410,84,412.64Zm1.21,3-2.9,11.63c4.24,1,7.59-.79,8.38-4C91.43,420.4,90.4,418.26,85.22,415.67Z"></path></g></g><g id="freepik--Character--inject-75"><path d="M331.06,415.15c-2.29.74-67.66-.11-70.13-1.73-.95-.59-1.38-10.12-1.57-21.66v-.36c-.05-2.38-.08-4.82-.08-7.3,0-.35,0-.69,0-1l3.17-33.91,43.73.44-4.32,33.59-.05,1.33-.26,7,0,.71s24.88,11.52,27.41,13.58S333.36,414.42,331.06,415.15Z" style="fill:#f7a9a0"></path><path d="M331.06,415.15c-2.29.74-67.66-.11-70.13-1.73-.95-.59-1.38-10.12-1.57-21.66v-.36c-.05-2.38-.08-4.82-.08-7.3,0-.35,0-.69,0-1l42.58.12-.05,1.33-.26,7,0,.71s24.88,11.52,27.41,13.58S333.36,414.42,331.06,415.15Z" style="fill:#ebebeb"></path><path d="M331.07,415.14c-1.18.38-18.94.34-36.3,0-3.49-.07-7-.15-10.27-.24-12.38-.34-22.61-.85-23.56-1.47s-1.37-9.86-1.56-21.18c0-.16,0-.32,0-.48s0-.25,0-.37h.05l42.13.08,0,.72s24.88,11.51,27.4,13.57S333.36,414.41,331.07,415.14Z" style="fill:#37474f"></path><path d="M330.36,412.6c-11-.41-55.49-1-66.41-.61-.09,0-.09.06,0,.07,10.91.65,55.38.91,66.4.72C330.59,412.78,330.59,412.61,330.36,412.6Z" style="fill:#263238"></path><path d="M306.23,391.66c-4.32-.87-9.64-.27-13,2.78-.13.11,0,.3.18.25a61,61,0,0,1,12.79-2.48A.28.28,0,0,0,306.23,391.66Z" style="fill:#263238"></path><path d="M309.34,393.58c-4.33-.86-9.64-.26-13,2.78-.13.12,0,.3.18.26a61,61,0,0,1,12.78-2.49A.28.28,0,0,0,309.34,393.58Z" style="fill:#263238"></path><path d="M312.44,395.51c-4.32-.86-9.64-.27-13,2.78-.13.12,0,.3.18.26a61.06,61.06,0,0,1,12.79-2.49A.28.28,0,0,0,312.44,395.51Z" style="fill:#263238"></path><path d="M304.41,391.63h-51.3s11.14-101.26,10.77-103.18c-.19-1-9.41-14.92-20.37-31.21-6.13-9.12-12.8-19-18.73-27.72-9.8-14.44-17.59-25.84-17.59-25.84h50.23s6.76,8.16,15.62,19.71c12.54,16.36,29.29,39.51,37,55.89C316,292,304.41,391.63,304.41,391.63Z" style="fill:#455a64"></path><path d="M297.23,286.05c-1-5.64-3.77-10.58-6.56-15.48-5.77-10.14-31.78-48.79-39-57.9l-2.77-3.46c-.06-.08-.19,0-.13.08,7.07,9.13,32.84,47.43,38.62,57.39,2.85,4.9,6,9.85,7.87,15.26,1.93,5.7,1.66,11.76,1.36,17.69q-.93,18.35-2.22,36.68-1.31,18.53-3,37c-.14,1.51-.28,3-.41,4.54-.05.48.43.53.48,0,1.18-12.29,2.48-24.46,3.4-36.77s1.73-24.78,2.4-37.18C297.6,298,298.23,291.94,297.23,286.05Z" style="fill:#263238"></path><path d="M302.32,383.59c-7.19-.15-5.12-.21-12.31-.28-3.52,0-26.65-.23-29.94.31-.07,0-.07.14,0,.15,3.29.54,26.42.34,29.94.31,7.19-.07,5.12-.13,12.31-.28A.1.1,0,1,0,302.32,383.59Z" style="fill:#263238"></path><path d="M259.66,281.54c-13.14-20.28-52.47-77.86-52.47-77.86h26.32Z" style="fill:#263238"></path><path d="M152.93,458.13c2.3.72,67.66-.8,70.11-2.44.94-.61,1.27-10.14,1.35-21.68v-.36c0-2.37,5.48-42.32,5.48-42.32l-42.72.87-4.94,42,0,.72S157.48,446.65,155,448.73,150.63,457.42,152.93,458.13Z" style="fill:#f7a9a0"></path><path d="M152.93,458.13c2.3.72,67.66-.8,70.11-2.44.94-.61,1.27-10.14,1.35-21.68v-.36s1-8,1-8.34l-42.18.75-.95,8.1,0,.72S157.48,446.65,155,448.73,150.63,457.42,152.93,458.13Z" style="fill:#ebebeb"></path><path d="M152.93,458.13c2.3.72,67.66-.8,70.11-2.44.94-.61,1.27-10.14,1.35-21.68v-.36l-42.18.51,0,.72S157.48,446.65,155,448.73,150.63,457.42,152.93,458.13Z" style="fill:#37474f"></path><path d="M153.61,455.58c11-.53,55.47-1.61,66.4-1.29.09,0,.09.06,0,.07-10.9.76-55.37,1.48-66.4,1.4C153.38,455.76,153.38,455.59,153.61,455.58Z" style="fill:#263238"></path><path d="M177.52,434.39c4.32-.91,9.63-.37,13,2.64.13.12,0,.31-.18.26a61.13,61.13,0,0,0-12.81-2.35A.28.28,0,0,1,177.52,434.39Z" style="fill:#263238"></path><path d="M174.43,436.35c4.32-.91,9.64-.37,13,2.64.13.12,0,.3-.18.26a60.38,60.38,0,0,0-12.81-2.35A.28.28,0,0,1,174.43,436.35Z" style="fill:#263238"></path><path d="M171.35,438.31c4.31-.91,9.63-.37,13,2.64.13.12,0,.3-.18.26a61.15,61.15,0,0,0-12.81-2.36A.27.27,0,0,1,171.35,438.31Z" style="fill:#263238"></path><path d="M257.42,203.68s-6,36.69-6.43,37.87c0,0-2.24,1.06-6.28,2.92L226.88,434.73l-47.07.19,26.24-231.24Z" style="fill:#455a64"></path><path d="M225.27,426.36c-7.19-.12-5.12-.19-12.32-.23-3.51,0-26.64-.12-29.93.44-.07,0-.07.13,0,.15,3.3.53,26.42.23,29.94.18,7.19-.1,5.12-.15,12.31-.33A.11.11,0,1,0,225.27,426.36Z" style="fill:#263238"></path><path d="M217.8,210.78c-1.83,26.21-3.72,52.42-5.86,78.61s-4.7,52.53-7.87,78.71c-1.77,14.62-3.7,35.22-5.82,49.79,0,.1.14.14.15,0,4.39-25.9,7.48-58,10.13-84.16s4.76-52.32,6.62-78.52c1-14.82,2-29.65,3-44.47C218.14,210.56,217.81,210.57,217.8,210.78Z" style="fill:#263238"></path><path d="M253,240.41a86.63,86.63,0,0,0-13.46,7.05.15.15,0,0,0,.14.27c4.54-2.2,9.18-4.33,13.59-6.78A.3.3,0,0,0,253,240.41Z" style="fill:#263238"></path><path d="M251.21,219.39c-.74,4.39-1.15,8.85-1.64,13.27-.12,1.06-.25,2.13-.36,3.19a6.17,6.17,0,0,1-.77,2.79c-.95,1.48-2.66,2.17-4.21,2.85-.18.08-.11.36.09.3a10.23,10.23,0,0,0,4.48-2.37c1.41-1.49,1.36-3.75,1.58-5.67a120.84,120.84,0,0,0,1-14.34C251.41,219.3,251.23,219.27,251.21,219.39Z" style="fill:#263238"></path><path d="M245.88,220.74c-.16,3.16-.51,6.32-.78,9.48-.13,1.55-.24,3.12-.33,4.68s-.28,3.21-.23,4.79a.1.1,0,0,0,.19,0c.26-1.5.3-3.06.42-4.58s.24-3.2.33-4.8c.18-3.19.26-6.41.55-9.6C246,220.63,245.88,220.64,245.88,220.74Z" style="fill:#263238"></path><path d="M273,223.39l-19.29,2.45-29,3.68-22,2.79,3.25-28.63h51.37S264.18,211.84,273,223.39Z" style="fill:#263238"></path><path d="M248.86,153.21c8.84,18.18,27.51,37.25,38.15,37.25,10,0,35.14-19.7,46.9-31.28,2.68-2.64-21.77-23.51-24.4-20.45-6.14,7.15-20.5,22.67-25.1,22.67-4.1,0-17-9.3-28.29-18.52C242.44,131.69,245.34,146,248.86,153.21Z" style="fill:#f7a9a0"></path><path d="M333.91,159.18c3.13-1.76,12.58-9.79,18.46-17.23,2.85-3.62,9.94-14.86,7.34-17.26s-5,.7-5,.7,2.28-5.2-.56-7.38-6.36,2.77-6.36,2.77,2-5.51-1-7.48-5.7,3.6-5.7,3.6,2-5-1.12-5.54c-3.79-.71-6.49,8.85-9.84,12.68-.77.88-16.7,16.56-16.7,16.56Z" style="fill:#f7a9a0"></path><path d="M341,117c-2,7-4.09,9.74-9.45,14.53-.1.1,0,.28.13.19,5.68-4.22,8.79-7.26,9.67-14.65C341.38,116.66,341.09,116.61,341,117Z" style="fill:#263238"></path><path d="M348,120.53c-2.72,7.11-5,10.09-10.2,15.52-.08.07,0,.21.13.14,5.59-4.9,8.63-8,10.41-15.47C348.41,120.38,348.11,120.2,348,120.53Z" style="fill:#263238"></path><path d="M354.48,126c-3.12,6.7-5.44,10.07-11.21,14.69a.14.14,0,0,0,.16.22c6.34-4.14,9.26-8.32,11.25-14.79C354.81,125.64,354.68,125.54,354.48,126Z" style="fill:#263238"></path><rect x="324.08" y="92.11" width="73.82" height="53.25" transform="translate(-1.19 3.69) rotate(-0.58)" style="fill:#ebebeb"></rect><rect x="337.52" y="103.28" width="5.38" height="29.5" transform="translate(-1.19 3.47) rotate(-0.58)" style="fill:#407BFF"></rect><polygon points="351.87 132.66 346.49 132.72 346.3 111.35 351.67 111.3 351.87 132.66" style="fill:#407BFF"></polygon><rect x="355.23" y="116.14" width="5.38" height="16.46" transform="translate(-1.25 3.65) rotate(-0.58)" style="fill:#407BFF"></rect><rect x="364.06" y="119.32" width="5.38" height="13.19" transform="translate(-1.26 3.74) rotate(-0.58)" style="fill:#407BFF"></rect><rect x="372.84" y="111.05" width="5.38" height="21.37" transform="translate(-1.22 3.83) rotate(-0.58)" style="fill:#407BFF"></rect><rect x="381.64" y="106.89" width="5.38" height="25.44" transform="translate(-1.2 3.94) rotate(-0.59)" style="fill:#407BFF"></rect><path d="M333.7,100.06c.19,5.46.36,10.92.47,16.39s.25,10.93.31,16.39l-.45-.45,14.19-.18,14.18-.09c4.73,0,9.46,0,14.2,0s9.46.06,14.19.14q-7.1.25-14.19.42c-4.73.1-9.46.24-14.19.3l-14.18.2L334,133.3h-.46v-.45c-.05-5.47,0-10.93,0-16.4S333.61,105.52,333.7,100.06Z" style="fill:#c7c7c7"></path><path d="M332,103a12.92,12.92,0,0,1,1.76-.14,11.43,11.43,0,0,1,1.75.11,12.38,12.38,0,0,1-3.51,0Z" style="fill:#c7c7c7"></path><path d="M332,106a13,13,0,0,1,1.76-.14,11.43,11.43,0,0,1,1.75.11,12.38,12.38,0,0,1-3.51,0Z" style="fill:#c7c7c7"></path><path d="M332,109.06a11.6,11.6,0,0,1,1.76-.14,11.43,11.43,0,0,1,1.75.11,12.38,12.38,0,0,1-3.51,0Z" style="fill:#c7c7c7"></path><path d="M332.06,112.08a12.45,12.45,0,0,1,3.52,0,12.45,12.45,0,0,1-3.52,0Z" style="fill:#c7c7c7"></path><path d="M332.09,115.1a12.45,12.45,0,0,1,3.52,0,12.45,12.45,0,0,1-3.52,0Z" style="fill:#c7c7c7"></path><path d="M332.12,118.12a12.45,12.45,0,0,1,3.52,0,12.45,12.45,0,0,1-3.52,0Z" style="fill:#c7c7c7"></path><path d="M332.16,121.14a11.37,11.37,0,0,1,1.75-.14,11.56,11.56,0,0,1,1.76.11,11.6,11.6,0,0,1-1.76.14A11.43,11.43,0,0,1,332.16,121.14Z" style="fill:#c7c7c7"></path><path d="M332.19,124.16a12.38,12.38,0,0,1,3.51,0,11.6,11.6,0,0,1-1.76.14A11.43,11.43,0,0,1,332.19,124.16Z" style="fill:#c7c7c7"></path><path d="M332.22,127.18a12.38,12.38,0,0,1,3.51,0,11.6,11.6,0,0,1-1.76.14A11.43,11.43,0,0,1,332.22,127.18Z" style="fill:#c7c7c7"></path><path d="M332.25,130.2a12.38,12.38,0,0,1,3.51,0,12.9,12.9,0,0,1-1.75.14A11.48,11.48,0,0,1,332.25,130.2Z" style="fill:#c7c7c7"></path><path d="M349.24,99.14c1.93-.18,3.85-.27,5.77-.35s3.85-.12,5.78-.15,3.85,0,5.77,0,3.85.09,5.78.23c-1.93.18-3.85.27-5.77.35s-3.85.11-5.78.14-3.85,0-5.77,0S351.17,99.27,349.24,99.14Z" style="fill:#c7c7c7"></path><path d="M353.6,101.77a69.6,69.6,0,0,1,14.43-.15,60,60,0,0,1-7.21.45A62.27,62.27,0,0,1,353.6,101.77Z" style="fill:#c7c7c7"></path><path d="M333.84,138.82l0-3.45,3.45,0,0,3.46Zm.47-3,0,2.46,2.45,0,0-2.45Z" style="fill:#c7c7c7"></path><path d="M339.78,135.56c2.93-.13,5.86-.22,8.8-.29l8.79-.14,8.79,0c2.94,0,5.87,0,8.8.11-2.93.12-5.86.22-8.79.28l-8.8.15-8.79,0Q344.18,135.65,339.78,135.56Z" style="fill:#c7c7c7"></path><path d="M339.8,137c3.31-.24,6.62-.28,9.93-.35s6.63,0,9.94.15c-3.31.24-6.62.29-9.93.35S343.11,137.21,339.8,137Z" style="fill:#c7c7c7"></path><path d="M339.81,138.51c4.06-.24,8.13-.3,12.19-.37s8.12,0,12.19.12c-4.06.25-8.12.31-12.19.38S343.88,138.68,339.81,138.51Z" style="fill:#c7c7c7"></path><path d="M333.94,104.5a13.71,13.71,0,0,1,3.94-.92,8.33,8.33,0,0,1,4.06.52,11.67,11.67,0,0,1,3.25,2.52c.95,1,1.82,2,2.66,3.08,1.7,2.09,3.28,4.27,5.1,6.2a14.92,14.92,0,0,0,6.35,4.39,8.08,8.08,0,0,0,3.75.23,12.61,12.61,0,0,0,3.63-1.37,44.54,44.54,0,0,0,6.47-4.64c2.08-1.7,4.09-3.5,6.24-5.14a25.41,25.41,0,0,1,3.39-2.23,11.47,11.47,0,0,1,1.86-.83,6.78,6.78,0,0,1,2-.3,8.18,8.18,0,0,0-3.73,1.36,25.73,25.73,0,0,0-3.22,2.38c-2.06,1.71-4,3.56-6,5.34a38.81,38.81,0,0,1-6.54,4.86,13.33,13.33,0,0,1-3.88,1.51,9.13,9.13,0,0,1-4.22-.21,15.82,15.82,0,0,1-6.73-4.73,79.11,79.11,0,0,1-5-6.35c-.81-1.07-1.63-2.13-2.52-3.12a11.29,11.29,0,0,0-3-2.51,8,8,0,0,0-3.82-.69A15.32,15.32,0,0,0,333.94,104.5Z" style="fill:#263238"></path><path d="M307.71,140.8s5.58-7.22,8.79-9.79,18.72-7.76,20-4.47c1.69,4.24-6.67,9-11.07,10.79,0,0,3.92,9.8-1.34,14.51S307.71,140.8,307.71,140.8Z" style="fill:#f7a9a0"></path><path d="M336.61,127.86c-1.25,5-7.18,7-11.31,9a.42.42,0,0,0-.13.68c1.36,4.22,2.07,10.57-.76,14.3a.1.1,0,1,0,.15.14c3.58-3.59,3.4-9.88,1.61-14.41,4.27-2,10.13-4.29,10.49-9.72A0,0,0,0,0,336.61,127.86Z" style="fill:#263238"></path><path d="M253.87,140.89c7.39,4.94,25.44,20.68,30.37,19.42S305,142.2,305,142.2l24.94,23.59s-28.27,26.88-43.9,25.89-31.84-25-37-35.34S241.56,132.68,253.87,140.89Z" style="fill:#407BFF"></path><path d="M285.4,173.54a4.19,4.19,0,0,1,0-2.85,4.19,4.19,0,0,1,0,2.85ZM309,156.09a3.74,3.74,0,0,0-.25-1.42,3.74,3.74,0,0,0-.25,1.42,3.94,3.94,0,0,0,.25,1.42A3.94,3.94,0,0,0,309,156.09Zm3,22.24a3.94,3.94,0,0,0-.25-1.42,4.16,4.16,0,0,0,0,2.84A3.94,3.94,0,0,0,312,178.33ZM260.32,167.9a3.52,3.52,0,0,0-.25-1.42,4.16,4.16,0,0,0,0,2.84A3.74,3.74,0,0,0,260.32,167.9Zm44.25,7.17a3.74,3.74,0,0,0-.25-1.42,4.16,4.16,0,0,0,0,2.84A3.74,3.74,0,0,0,304.57,175.07Zm-28-16.16a4,4,0,0,0,1.42-.25,3.58,3.58,0,0,0-1.42-.25,3.7,3.7,0,0,0-1.42.25A3.9,3.9,0,0,0,276.59,158.91Zm1.8,20.65a3.94,3.94,0,0,0,1.42-.25,4.16,4.16,0,0,0-2.84,0A3.9,3.9,0,0,0,278.39,179.56Zm17.88-10a3.77,3.77,0,0,0,1.42-.25,3.77,3.77,0,0,0-1.42-.25,4,4,0,0,0-1.43.25A4,4,0,0,0,296.27,169.57Zm21.51,2.11a3.74,3.74,0,0,0,1.42-.25,4.16,4.16,0,0,0-2.84,0A3.7,3.7,0,0,0,317.78,171.68Zm-12-24a3.9,3.9,0,0,0,1.42-.25,3.52,3.52,0,0,0-1.42-.25,3.77,3.77,0,0,0-1.42.25A4,4,0,0,0,305.74,147.7Zm-46.24,4.06a3.91,3.91,0,0,0-1.19-.83,3.75,3.75,0,0,0,.83,1.18,3.7,3.7,0,0,0,1.18.83A3.84,3.84,0,0,0,259.5,151.76Zm10.3,22.13a3.86,3.86,0,0,0-1.18-.83,4.2,4.2,0,0,0,2,2A3.86,3.86,0,0,0,269.8,173.89Zm24.57,5a3.79,3.79,0,0,0-1.19-.83,4.06,4.06,0,0,0,2,2A4,4,0,0,0,294.37,178.88ZM307.89,166a3.7,3.7,0,0,0-1.18-.83,4.2,4.2,0,0,0,2,2A3.86,3.86,0,0,0,307.89,166Zm-18.34-4.89a3.84,3.84,0,0,0-1.18-.82,4.2,4.2,0,0,0,2,2A3.91,3.91,0,0,0,289.55,161.14ZM286,185.92a3.86,3.86,0,0,0-.83,1.18,3.75,3.75,0,0,0,1.18-.83,3.7,3.7,0,0,0,.83-1.18A3.86,3.86,0,0,0,286,185.92Zm15.23-1.85a3.72,3.72,0,0,0-.82,1.18,4.2,4.2,0,0,0,2-2A3.91,3.91,0,0,0,301.21,184.07Zm-25.8-17a3.7,3.7,0,0,0-.83,1.18,3.7,3.7,0,0,0,1.18-.83,3.75,3.75,0,0,0,.83-1.18A3.75,3.75,0,0,0,275.41,167ZM319,160.64a3.67,3.67,0,0,0-.82,1.18,3.86,3.86,0,0,0,1.18-.83,4,4,0,0,0,.83-1.18A3.91,3.91,0,0,0,319,160.64Zm-52.7,0a3.86,3.86,0,0,0-.83,1.18,4.2,4.2,0,0,0,2-2A3.86,3.86,0,0,0,266.32,160.64Zm31.75-3.72a3.86,3.86,0,0,0-.83,1.18,3.79,3.79,0,0,0,1.19-.83,4,4,0,0,0,.83-1.18A3.91,3.91,0,0,0,298.07,156.92Zm-45.18-11.38a3.94,3.94,0,0,0-.25-1.42,3.55,3.55,0,0,0-.25,1.42,3.7,3.7,0,0,0,.25,1.42A3.9,3.9,0,0,0,252.89,145.54Zm.49,15.28a4,4,0,0,0,1.43-.25,3.6,3.6,0,0,0-1.43-.25,3.77,3.77,0,0,0-1.42.25A4,4,0,0,0,253.38,160.82Z" style="fill:#fff"></path><path d="M322.7,168.45c-.76-1-1.71-1.77-2.56-2.65s-1.74-1.73-2.63-2.57c-1.72-1.63-3.46-3.24-5.2-4.83l-5.26-4.77c-1.81-1.64-3.58-3.4-5.52-4.89a.08.08,0,1,0-.11.12c1.62,1.82,3.5,3.46,5.27,5.15l5.23,5q2.61,2.49,5.28,4.94c.88.8,1.76,1.58,2.66,2.35s1.77,1.62,2.75,2.29C322.69,168.64,322.76,168.52,322.7,168.45Z" style="fill:#263238"></path><path d="M284,191.41c-15-2.81-30-25.18-35-35.06-3.32-6.61-5.42-14.43-3.29-17.08C251.78,147.51,273,176.45,284,191.41Z" style="fill:#263238"></path><path d="M270.72,220.19c-1,1.13-68.46,1.23-68.8.82-.93-1.12,15.05-70.1,30-82.1,3.21-2.58,15.53-2.19,17.21-1.53,1.92.73,7.34,9.9,9.81,17.37C263.86,169.7,271.6,219.2,270.72,220.19Z" style="fill:#407BFF"></path><path d="M244.6,178.33a3.94,3.94,0,0,1-.25-1.42,3.7,3.7,0,0,1,.25-1.42,3.7,3.7,0,0,1,.25,1.42A3.94,3.94,0,0,1,244.6,178.33Zm8.54,14.8a4,4,0,0,0-.25-1.43,3.6,3.6,0,0,0-.25,1.43,3.77,3.77,0,0,0,.25,1.42A4,4,0,0,0,253.14,193.13Zm-.25-47.59a3.94,3.94,0,0,0-.25-1.42,3.55,3.55,0,0,0-.25,1.42,3.7,3.7,0,0,0,.25,1.42A3.9,3.9,0,0,0,252.89,145.54Zm-20.62,48.13a3.9,3.9,0,0,0-.25-1.42,3.52,3.52,0,0,0-.25,1.42,3.74,3.74,0,0,0,.25,1.42A3.94,3.94,0,0,0,232.27,193.67Zm35.23,6.73a3.79,3.79,0,0,0-.25-1.43,3.79,3.79,0,0,0-.25,1.43,4,4,0,0,0,.25,1.42A3.77,3.77,0,0,0,267.5,200.4Zm-24.33,9.72a3.74,3.74,0,0,0-.25-1.42,3.74,3.74,0,0,0-.25,1.42,3.9,3.9,0,0,0,.25,1.42A3.7,3.7,0,0,0,243.17,210.12Zm-19.8,6.69a3.94,3.94,0,0,0-.25-1.42,4.16,4.16,0,0,0,0,2.84A3.94,3.94,0,0,0,223.37,216.81Zm16.24-58.43a3.77,3.77,0,0,0-.25-1.42,4.19,4.19,0,0,0,0,2.85A3.79,3.79,0,0,0,239.61,158.38ZM226.8,150.3a3.9,3.9,0,0,0-.25-1.42,4.16,4.16,0,0,0,0,2.84A3.94,3.94,0,0,0,226.8,150.3Zm-.25,24.15a4,4,0,0,0-.25-1.42,4.19,4.19,0,0,0,0,2.85A4,4,0,0,0,226.55,174.45Zm-13.48,26a3.52,3.52,0,0,0-.25-1.42,3.9,3.9,0,0,0-.25,1.42,4,4,0,0,0,.25,1.42A3.77,3.77,0,0,0,213.07,200.4Zm47.25-32.5a3.52,3.52,0,0,0-.25-1.42,4.16,4.16,0,0,0,0,2.84A3.74,3.74,0,0,0,260.32,167.9Zm-24.59,4.37a4,4,0,0,0,1.42-.25,4.19,4.19,0,0,0-2.85,0A4,4,0,0,0,235.73,172.27Zm-1.43,31.66a4,4,0,0,0,1.43-.25,4.19,4.19,0,0,0-2.85,0A4,4,0,0,0,234.3,203.93ZM242,220a3.7,3.7,0,0,0,1.42-.25,3.9,3.9,0,0,0-1.42-.25,4,4,0,0,0-1.42.25A3.77,3.77,0,0,0,242,220Zm17.69-42.23a3.94,3.94,0,0,0,1.42-.25,4.16,4.16,0,0,0-2.84,0A3.9,3.9,0,0,0,259.66,177.79Zm-35-17.31a3.74,3.74,0,0,0,1.42-.25,3.74,3.74,0,0,0-1.42-.25,3.94,3.94,0,0,0-1.42.25A3.74,3.74,0,0,0,224.64,160.48Zm17.58-13a3.94,3.94,0,0,0,1.42-.25,3.55,3.55,0,0,0-1.42-.25,3.7,3.7,0,0,0-1.42.25A3.9,3.9,0,0,0,242.22,147.45ZM224.54,185a3.94,3.94,0,0,0,1.42-.25,3.55,3.55,0,0,0-1.42-.25,3.7,3.7,0,0,0-1.42.25A3.9,3.9,0,0,0,224.54,185Zm-9.92,25.11a3.77,3.77,0,0,0,1.42-.25,4.19,4.19,0,0,0-2.85,0A3.79,3.79,0,0,0,214.62,210.12Zm38.76-49.3a4,4,0,0,0,1.43-.25,3.6,3.6,0,0,0-1.43-.25,3.77,3.77,0,0,0-1.42.25A4,4,0,0,0,253.38,160.82Zm-9.29,26.48a3.7,3.7,0,0,0,1.42-.25,4.16,4.16,0,0,0-2.84,0A3.74,3.74,0,0,0,244.09,187.3ZM264.39,218a3.7,3.7,0,0,0,1.42-.25,4.16,4.16,0,0,0-2.84,0A3.74,3.74,0,0,0,264.39,218Zm-11.75-13.78a4,4,0,0,0,1.42-.25,4.19,4.19,0,0,0-2.85,0A4,4,0,0,0,252.64,204.18Zm.17,11.29a3.86,3.86,0,0,0-1.18-.83,3.75,3.75,0,0,0,.83,1.18,3.7,3.7,0,0,0,1.18.83A3.86,3.86,0,0,0,252.81,215.47Zm-38-25.19a3.86,3.86,0,0,0-1.18-.83,3.75,3.75,0,0,0,.83,1.18,3.86,3.86,0,0,0,1.18.83A3.86,3.86,0,0,0,214.79,190.28Zm20.7-8.22a3.64,3.64,0,0,0-1.19-.83,3.86,3.86,0,0,0,.83,1.18,3.91,3.91,0,0,0,1.19.83A4,4,0,0,0,235.49,182.06Zm-11.38,21.69a3.86,3.86,0,0,0-1.18-.83,4.2,4.2,0,0,0,2,2A3.86,3.86,0,0,0,224.11,203.75Zm-18.26,11.79a3.77,3.77,0,0,0-1.19-.82,3.86,3.86,0,0,0,.83,1.18,3.91,3.91,0,0,0,1.19.83A4.09,4.09,0,0,0,205.85,215.54Zm15.24-47.82a3.75,3.75,0,0,0-1.18-.83,3.91,3.91,0,0,0,.83,1.19,3.84,3.84,0,0,0,1.18.82A3.7,3.7,0,0,0,221.09,167.72ZM244.78,166a3.64,3.64,0,0,0-1.19-.83,3.86,3.86,0,0,0,.83,1.18,3.91,3.91,0,0,0,1.19.83A4,4,0,0,0,244.78,166ZM260.5,198.8a3.86,3.86,0,0,0-1.18-.83,3.75,3.75,0,0,0,.83,1.18,3.7,3.7,0,0,0,1.18.83A3.86,3.86,0,0,0,260.5,198.8Zm-26-46a3.7,3.7,0,0,0-1.18-.83,4.2,4.2,0,0,0,2,2A3.86,3.86,0,0,0,234.48,152.77Zm18.74,29.83a3.86,3.86,0,0,0-1.18-.83,3.79,3.79,0,0,0,.83,1.19,4,4,0,0,0,1.18.83A3.91,3.91,0,0,0,253.22,182.6Zm-.35-11.34a3.75,3.75,0,0,0-.83,1.18,4.2,4.2,0,0,0,2-2A3.7,3.7,0,0,0,252.87,171.26Zm-31.12,23.65a3.7,3.7,0,0,0-.83,1.18,3.84,3.84,0,0,0,1.18-.82,3.91,3.91,0,0,0,.83-1.19A3.86,3.86,0,0,0,221.75,194.91Zm39.15-5.63a3.75,3.75,0,0,0-.83,1.18,3.91,3.91,0,0,0,1.19-.83,3.84,3.84,0,0,0,.82-1.18A3.81,3.81,0,0,0,260.9,189.28ZM233.6,214a3.86,3.86,0,0,0-.83,1.18,3.77,3.77,0,0,0,1.19-.82,4.09,4.09,0,0,0,.83-1.19A3.91,3.91,0,0,0,233.6,214Zm-1.76-48.49a3.75,3.75,0,0,0-.83,1.18,4.2,4.2,0,0,0,2-2A3.86,3.86,0,0,0,231.84,165.46Zm10.65,33.34a3.84,3.84,0,0,0-.82,1.18,3.7,3.7,0,0,0,1.18-.83,3.75,3.75,0,0,0,.83-1.18A3.91,3.91,0,0,0,242.49,198.8Zm18,10.73a3.7,3.7,0,0,0-.83,1.18,4.2,4.2,0,0,0,2-2A3.86,3.86,0,0,0,260.49,209.53Zm-43.41-30.26a3.86,3.86,0,0,0-.83,1.18,3.91,3.91,0,0,0,1.19-.83,3.84,3.84,0,0,0,.82-1.18A3.86,3.86,0,0,0,217.08,179.27Zm30.09-24.49a3.86,3.86,0,0,0-.83,1.18,4.2,4.2,0,0,0,2-2A3.86,3.86,0,0,0,247.17,154.78Zm-14.88-12.13a3.72,3.72,0,0,0-.82,1.19,3.86,3.86,0,0,0,1.18-.83,4,4,0,0,0,.83-1.18A3.88,3.88,0,0,0,232.29,142.65Z" style="fill:#fff"></path><polygon points="249.9 156.47 250.88 152.15 246.9 147.81 243.82 153.26 245.98 156.98 244.1 201.12 252.37 215.72 256.67 199.29 249.9 156.47" style="fill:#263238"></polygon><path d="M236.91,137.28,206.35,200.4c5.65-21.67,15.82-53.67,25.54-61.49A11.17,11.17,0,0,1,236.91,137.28Z" style="fill:#263238"></path><path d="M231.27,152c-4.25,7.62-29.44,36-30.08,38.81s4.9,10.25,4.94,11.37c.14,4.56-4.93,34.73-9.21,32.15-5.63-3.41-29.82-28.79-28.24-41.65s50.46-47.29,58.22-50.87S235.47,144.44,231.27,152Z" style="fill:#f7a9a0"></path><path d="M214.58,239.41c2.36-2.71-2.19-3.94-2.19-3.94s7,.19,8.33-3.55-4.26-4.9-4.66-5c.37,0,6.79,0,7.76-3.88s-4.79-4.39-5.16-4.41c.35-.1,5-1.54,5-4.67.11-5.38-13.44-2.39-17.15-4.67,0,0-.45-6.94-.4-7.15a7.88,7.88,0,0,1-2.95,4.25c-2.68,1.59-5.16,2.76-6,4.46a3.93,3.93,0,0,0,.78,4.64s-3.78.55-4.64,3.6c-.44,1.56,1.67,3.65,1.67,3.65s-3,.57-3.6,3.32c-.48,2.2,1.71,4,1.71,4s-2.63,1.88-2.39,4.29C191.2,239.16,209.52,245.22,214.58,239.41Z" style="fill:#f7a9a0"></path><path d="M193.44,230.35a.05.05,0,1,0-.05.09,33.46,33.46,0,0,0,19.24,5.12c.21,0,.28-.37,0-.4A68.37,68.37,0,0,1,193.44,230.35Z" style="fill:#263238"></path><path d="M194.92,222.75c-.07,0-.12.08,0,.13,5.73,3.53,13.84,5.68,21.34,4.28.25,0,.44-.35.14-.32C211.29,227.4,200.65,225.21,194.92,222.75Z" style="fill:#263238"></path><path d="M219.15,218.35c-7.24,1.07-14.1-.29-20.94-2.7-.09,0-.12.1-.05.15,3,2.09,7.54,3.17,11.13,3.71a19.23,19.23,0,0,0,9.89-.91C219.31,218.56,219.3,218.33,219.15,218.35Z" style="fill:#263238"></path><path d="M192.94,230.05c-1.38-1-2.53-2.48-2.26-4.3a3.46,3.46,0,0,1,1.2-2.12,6,6,0,0,1,2.67-1,4.56,4.56,0,0,1-1.39-5A3.41,3.41,0,0,1,195,216a10.86,10.86,0,0,1,2.9-.65,4,4,0,0,1-1.74-3.17,4.37,4.37,0,0,1,1.83-3.53,20.44,20.44,0,0,1,4.26-2.26,10.42,10.42,0,0,0,2.14-1.25,4.52,4.52,0,0,0,1.37-2.17c0-.16.22-.11.18,0a4.93,4.93,0,0,1-.81,1.69,7.35,7.35,0,0,1-1.3,1.43,32.11,32.11,0,0,1-4,2.42,6.25,6.25,0,0,0-2.68,3,3.73,3.73,0,0,0,.89,3.82c.06.05,0,.15-.07.16a11,11,0,0,0-2.47,1,3.71,3.71,0,0,0-1.49,1.58,4.78,4.78,0,0,0,1,4.67,8.22,8.22,0,0,0-2.49,1.41,3.52,3.52,0,0,0-.9,1.74,4.14,4.14,0,0,0,1.53,4.06.05.05,0,0,1,0,.05h0a.08.08,0,0,1,0,0,.14.14,0,0,1,0,.06h0s-.83.63-.88.65,0,0,0-.05A6.6,6.6,0,0,1,192.94,230.05Z" style="fill:#263238"></path><path d="M184.92,226.7l20-28.71s-3.31-5.6-3-7.42,25.85-29.78,30.48-39.41,5.71-15.53-5.16-10.43-56.37,40.19-59,49.45S176.44,214.12,184.92,226.7Z" style="fill:#407BFF"></path><path d="M214.62,165.34a4.19,4.19,0,0,1,0-2.85,4.19,4.19,0,0,1,0,2.85Zm12.18-15a3.9,3.9,0,0,0-.25-1.42,4.16,4.16,0,0,0,0,2.84A3.94,3.94,0,0,0,226.8,150.3Zm-28.27,24.15a3.77,3.77,0,0,0-.25-1.42,4.19,4.19,0,0,0,0,2.85A3.79,3.79,0,0,0,198.53,174.45Zm-19.82,9.75a3.74,3.74,0,0,0-.25-1.42,4.16,4.16,0,0,0,0,2.84A3.7,3.7,0,0,0,178.71,184.2Zm16.63,7.05a3.94,3.94,0,0,0-.25-1.42,4.16,4.16,0,0,0,0,2.84A3.94,3.94,0,0,0,195.34,191.25Zm-16.13,9.82a3.79,3.79,0,0,0-.25-1.43,4.19,4.19,0,0,0,0,2.85A3.77,3.77,0,0,0,179.21,201.07Zm16.13,4.86a3.94,3.94,0,0,0-.25-1.42,4.16,4.16,0,0,0,0,2.84A3.94,3.94,0,0,0,195.34,205.93Zm27.53-61a3.77,3.77,0,0,0,1.42-.25,4,4,0,0,0-1.42-.25,3.9,3.9,0,0,0-1.42.25A3.7,3.7,0,0,0,222.87,145Zm1.77,15.53a3.74,3.74,0,0,0,1.42-.25,3.74,3.74,0,0,0-1.42-.25,3.94,3.94,0,0,0-1.42.25A3.74,3.74,0,0,0,224.64,160.48Zm-18.29-1.23a3.74,3.74,0,0,0,1.42-.25,3.74,3.74,0,0,0-1.42-.25,3.9,3.9,0,0,0-1.42.25A3.7,3.7,0,0,0,206.35,159.25ZM213.07,172a4,4,0,0,0,1.43-.25,4.19,4.19,0,0,0-2.85,0A4,4,0,0,0,213.07,172Zm-21.61-1.09a3.94,3.94,0,0,0,1.42-.25,4.16,4.16,0,0,0-2.84,0A3.9,3.9,0,0,0,191.46,170.93Zm-3.58,16.62a3.74,3.74,0,0,0,1.42-.25,4.16,4.16,0,0,0-2.84,0A3.7,3.7,0,0,0,187.88,187.55Zm-4.88,32a3.52,3.52,0,0,0,1.42-.25,4.16,4.16,0,0,0-2.84,0A3.74,3.74,0,0,0,183,219.56Zm3.46-15.38a4,4,0,0,0,1.42-.25,3.77,3.77,0,0,0-1.42-.25,3.7,3.7,0,0,0-1.42.25A3.9,3.9,0,0,0,186.46,204.18Zm-14.92-5.71a3.79,3.79,0,0,0,1.43-.25,4.19,4.19,0,0,0-2.85,0A3.77,3.77,0,0,0,171.54,198.47Zm26.67-34.21a3.86,3.86,0,0,0-1.18-.83,3.74,3.74,0,0,0,.83,1.19,3.84,3.84,0,0,0,1.18.82A3.86,3.86,0,0,0,198.21,164.26Zm-6.57,15.63a3.91,3.91,0,0,0-1.19-.83,4.2,4.2,0,0,0,2,2A3.84,3.84,0,0,0,191.64,179.89Zm-14.26,30.05a3.72,3.72,0,0,0-1.18-.82,4.2,4.2,0,0,0,2,2A3.74,3.74,0,0,0,177.38,209.94Zm14.52,2.43a3.75,3.75,0,0,0-1.18-.83,3.75,3.75,0,0,0,.83,1.18,3.7,3.7,0,0,0,1.18.83A3.86,3.86,0,0,0,191.9,212.37Zm-19.17-21.55a3.79,3.79,0,0,0-1.19-.83,3.75,3.75,0,0,0,.83,1.18,3.81,3.81,0,0,0,1.18.83A3.84,3.84,0,0,0,172.73,190.82Zm16.75,4.82a3.84,3.84,0,0,0-1.18-.82,3.67,3.67,0,0,0,.82,1.18,3.91,3.91,0,0,0,1.19.83A4.09,4.09,0,0,0,189.48,195.64Zm22.89-41.87a3.91,3.91,0,0,0-1.19-.83,3.91,3.91,0,0,0,.83,1.19,3.84,3.84,0,0,0,1.18.82A3.84,3.84,0,0,0,212.37,153.77Zm-5,25.11a3.75,3.75,0,0,0-1.18-.83,3.91,3.91,0,0,0,.83,1.19,3.84,3.84,0,0,0,1.18.82A3.7,3.7,0,0,0,207.36,178.88Zm12.09-24.1a3.7,3.7,0,0,0-.83,1.18,4.2,4.2,0,0,0,2-2A3.75,3.75,0,0,0,219.45,154.78Zm-13.7,12.94a3.7,3.7,0,0,0-.83,1.18,3.84,3.84,0,0,0,1.18-.82,3.91,3.91,0,0,0,.83-1.19A3.86,3.86,0,0,0,205.75,167.72Zm-22.93,9.89a3.84,3.84,0,0,0-.82,1.18,3.84,3.84,0,0,0,1.18-.82,3.91,3.91,0,0,0,.83-1.19A3.91,3.91,0,0,0,182.82,177.61Zm-2.18,15.51a3.79,3.79,0,0,0-.83,1.19,4.06,4.06,0,0,0,2-2A4.18,4.18,0,0,0,180.64,193.12Zm17.22,5.68A3.7,3.7,0,0,0,197,200a3.7,3.7,0,0,0,1.18-.83A3.75,3.75,0,0,0,199,198,3.86,3.86,0,0,0,197.86,198.8Zm-13.61,12.57a3.59,3.59,0,0,0-.83,1.18,4.2,4.2,0,0,0,2-2A3.86,3.86,0,0,0,184.25,211.37Zm15.49-27a3.86,3.86,0,0,0-.83,1.18,4.2,4.2,0,0,0,2-2A3.86,3.86,0,0,0,199.74,184.33Zm32.55-41.68a3.72,3.72,0,0,0-.82,1.19,3.86,3.86,0,0,0,1.18-.83,4,4,0,0,0,.83-1.18A3.88,3.88,0,0,0,232.29,142.65Z" style="fill:#fff"></path><path d="M183.15,219.59c.85-.88,1.53-1.93,2.29-2.88s1.49-2,2.21-3c1.38-1.92,2.74-3.86,4.09-5.8s2.7-3.89,4-5.84,2.9-4,4.12-6.11a.09.09,0,1,0-.14-.1c-1.59,1.85-3,3.93-4.4,5.9s-2.85,3.89-4.26,5.84-2.82,3.92-4.2,5.89c-.68,1-1.34,2-2,3s-1.37,2-1.91,3C183,219.61,183.09,219.65,183.15,219.59Z" style="fill:#263238"></path><path d="M247.77,146.37c-3.54,1.27-10.41-3.58-13.39-7.8-.2-.29-.09-3.6-.16-7.63-.05-2.44-.16-5.16-.44-7.63-.06-.51,1.78.22,1.78.22l3.29.41,10.88,1.37a39.5,39.5,0,0,0-.42,9.67,5.15,5.15,0,0,0,.22,1s0,.1,0,.16C250.1,138.05,251.19,145.14,247.77,146.37Z" style="fill:#f7a9a0"></path><path d="M249.53,136s0,.1,0,.16a8.91,8.91,0,0,1-1.59.27c-10.47,1-13.28-12.19-13.28-12.19l4.15-.29,10.88,1.37a39.5,39.5,0,0,0-.42,9.67A5.15,5.15,0,0,0,249.53,136Z" style="fill:#263238"></path><path d="M230.2,104.22c-1.46,5.6,2.14,21.46,6.23,24.85,5.92,4.93,15.28,5,19.38-2,4-6.83-1.08-27.41-5.62-30.46C243.52,92.09,232.34,95.94,230.2,104.22Z" style="fill:#f7a9a0"></path><path d="M243.81,113.7s-.08.07-.06.11c.27,1.06.4,2.32-.49,2.89,0,0,0,.07,0,.06C244.43,116.33,244.23,114.66,243.81,113.7Z" style="fill:#263238"></path><path d="M242.6,112.79c-1.74.25-1.11,3.73.51,3.5S244.07,112.58,242.6,112.79Z" style="fill:#263238"></path><path d="M250.32,112.32s.09,0,.1.08c.16,1.08.53,2.3,1.56,2.48,0,0,0,.06,0,.06C250.77,115,250.3,113.37,250.32,112.32Z" style="fill:#263238"></path><path d="M251.08,111c1.7-.45,2.47,3,.89,3.42S249.64,111.39,251.08,111Z" style="fill:#263238"></path><path d="M240.94,111.45a12.05,12.05,0,0,0,1.26-.72c.48-.28.9-.45,1.15-1a.73.73,0,0,0-.28-.86,1.85,1.85,0,0,0-1.87.14,2.73,2.73,0,0,0-1.34,1.44A.8.8,0,0,0,240.94,111.45Z" style="fill:#263238"></path><path d="M252.1,109a13.93,13.93,0,0,1-1.44-.1,2.33,2.33,0,0,1-1.46-.4.74.74,0,0,1-.12-.9,1.85,1.85,0,0,1,1.75-.67,2.75,2.75,0,0,1,1.83.72A.8.8,0,0,1,252.1,109Z" style="fill:#263238"></path><path d="M244.91,123.68c.31.21.63.51,1,.47a2.78,2.78,0,0,0,1.1-.48s.08,0,.06,0a1.46,1.46,0,0,1-1.26.83,1.17,1.17,0,0,1-1-.8C244.79,123.69,244.87,123.65,244.91,123.68Z" style="fill:#263238"></path><path d="M245.46,120.25a3.7,3.7,0,0,0,2.75,1.19,4.68,4.68,0,0,0,1.33-.18l.25-.07.22-.08a.27.27,0,0,0,.18-.28h0l0-.11h0l0-.09c-.12-.84-.43-2.08-.43-2.08.33.09,2,.51,1.9.08a56.53,56.53,0,0,0-3.44-10.85.1.1,0,0,0-.19.06c.69,3.45,2,6.75,2.75,10.2a6.39,6.39,0,0,0-1.83-.21c-.11,0,.64,2.4.67,2.78v0a5.17,5.17,0,0,1-4-.49C245.45,120.09,245.38,120.18,245.46,120.25Z" style="fill:#263238"></path><path d="M249,121.07a4.32,4.32,0,0,1-1.57,1.59,1.92,1.92,0,0,1-1.19.24c-.89-.11-1-.9-1-1.6a5.18,5.18,0,0,1,.25-1.1A5.71,5.71,0,0,0,249,121.07Z" style="fill:#263238"></path><path d="M247.4,122.66a1.92,1.92,0,0,1-1.19.24c-.89-.11-1-.9-1-1.6A2.06,2.06,0,0,1,247.4,122.66Z" style="fill:#ff9abb"></path><path d="M231.66,116.29c3.67-.72,3.11-7.51,3.11-7.51s6.1-2.23,6.11-7.15c0,0,6.7,2.68,11.08.08s2.6-8.32,1.85-9.35c-1.71-2.36-5,1.72-5,1.72s-6.61-2.46-13.2-.51c-5.37,1.59-7.13,7.26-7.13,7.26s-2.82,1.19-3.38,3.43S229.33,116.74,231.66,116.29Z" style="fill:#263238"></path><path d="M233.3,109.11c5-.28,7.6-4.14,7.42-8.94a0,0,0,0,1,.09,0c.69,4.38-2.44,10-7.52,9.18A.12.12,0,0,1,233.3,109.11Z" style="fill:#263238"></path><path d="M228.62,100.72s.09.06,0,.09c-1.25.89-2.72,1.66-3.44,3.09-.87,1.72-.24,3.64.51,5.27,1.18,2.51,3.19,5.68,5.85,6.78.16.07,0,.29-.1.24-3.15-1.13-5.65-5.27-6.64-8.31C223.75,104.48,225.54,102.09,228.62,100.72Z" style="fill:#263238"></path><path d="M246.46,101.88a6.82,6.82,0,0,0,7.4-1.61c2.2-2.46,1.06-5.57-.54-8-.08-.12.07-.3.18-.19,1.95,2.06,2.73,5.62,1,8.07s-5.54,3.2-8.19,2.12C246.1,102.15,246.24,101.79,246.46,101.88Z" style="fill:#263238"></path><path d="M234.17,117.1s-3.94-4.94-6.2-3.51.92,8.75,3.74,9.6a2.8,2.8,0,0,0,3.65-1.74Z" style="fill:#f7a9a0"></path><path d="M228.93,115.67s0,.06,0,.07c2,.66,3.11,2.39,3.94,4.2a1.55,1.55,0,0,0-2.34-.28c-.05,0,0,.11.06.1a1.72,1.72,0,0,1,1.93.48,7.78,7.78,0,0,1,1,1.47c.1.17.41.06.33-.13l0,0C233.72,119.07,231.59,115.75,228.93,115.67Z" style="fill:#263238"></path><path d="M249.7,136.57l-3.38,9.6-12.23-11.43-3.16,4s12.28,18.46,12.32,17.6l3.53-8.29,5.86,5.41-1.07-14.17Z" style="fill:#407BFF"></path><path d="M252.51,146.4c-.26-2.34-.45-4.7-.81-7,0-.08-.15-.11-.16,0-.37,2.28.65,11.2.73,13.35l0,0c-.24-.23-5.41-4.75-5.46-4.67-.78,1.33-3.38,7.37-3.55,7.91-1.95-2.93-9.36-13.58-11.63-16.33a.08.08,0,0,0-.14.09c1.74,3.11,11.57,17.45,11.7,17.41a91,91,0,0,0,3.7-8.77c.88,1,6.13,6.12,6.13,5.77A76,76,0,0,0,252.51,146.4Z" style="fill:#263238"></path></g><g id="freepik--speech-bubble--inject-75"><path d="M319.4,67.77A20.27,20.27,0,0,1,287,84.05l-9.94,2.54,4.14-9.25a20.28,20.28,0,1,1,38.16-9.57Z" style="fill:#fff"></path><path d="M319.4,67.77a20.39,20.39,0,0,1-3,10.65,23.09,23.09,0,0,1-1.61,2.3,21.92,21.92,0,0,1-1.94,2,20.47,20.47,0,0,1-9.88,5.1,19,19,0,0,1-2.8.35,17.83,17.83,0,0,1-2.83,0,20.46,20.46,0,0,1-10.53-3.87l.3.06L277.21,87l-.88.24.37-.84,4.1-9.27v.43a20.53,20.53,0,1,1,38.59-9.8Zm0,0a20,20,0,0,0-25.14-19.39,20,20,0,0,0-8,4.17A20.92,20.92,0,0,0,281,59.74a20,20,0,0,0-1.66,8.77,20.37,20.37,0,0,0,2.33,8.6l.11.21-.09.21-4.18,9.24-.51-.61,10-2.45.17,0,.13.11a20,20,0,0,0,10.14,4,17.09,17.09,0,0,0,2.77.05,19.58,19.58,0,0,0,2.75-.29,19.92,19.92,0,0,0,5.26-1.73,18.89,18.89,0,0,0,4.59-3.12,24.52,24.52,0,0,0,1.95-2,22.91,22.91,0,0,0,1.62-2.28A20.4,20.4,0,0,0,319.4,67.77Z" style="fill:#263238"></path><path d="M299.85,66.82V59.33A9.43,9.43,0,0,1,304,61.12a1.36,1.36,0,0,0,.91.32,1.32,1.32,0,0,0,1.36-1.26,1.33,1.33,0,0,0-.69-1.11,12,12,0,0,0-5.66-2.16v-.75a1.3,1.3,0,0,0-2.59,0v.67c-4.05.27-6.93,2.72-6.93,6s2.1,5,7,6.09v7.65A10.57,10.57,0,0,1,291.78,74a1.38,1.38,0,0,0-.93-.34,1.33,1.33,0,0,0-1.32,1.26,1.24,1.24,0,0,0,.55,1,13.46,13.46,0,0,0,7.24,3v1.93a1.3,1.3,0,0,0,2.59,0V79c4.19-.29,7.07-2.74,7.07-6.07C307,69.72,304.78,67.84,299.85,66.82Zm-2.46-.52c-3.61-.89-4.32-2-4.32-3.64,0-1.85,1.79-3.25,4.32-3.46ZM304.3,73c0,2-1.81,3.38-4.45,3.59v-7.2C303.55,70.24,304.3,71.37,304.3,73Z" style="fill:#407BFF"></path></g></svg>